<?xml version="1.0" encoding="utf-8"?>
<svg version="1.1" xmlns:xlink="http://www.w3.org/1999/xlink" width="8px" height="8px" xmlns="http://www.w3.org/2000/svg">
  <g transform="matrix(1 0 0 1 -1709 -390 )">
    <path d="M 1713 390  C 1715.24 390  1717 391.76  1717 394  C 1717 396.24  1715.24 398  1713 398  C 1710.76 398  1709 396.24  1709 394  C 1709 391.76  1710.76 390  1713 390  Z " fill-rule="nonzero" fill="#ffffff" stroke="none" />
    <path d="M 1713 390.5  C 1714.96 390.5  1716.5 392.04  1716.5 394  C 1716.5 395.96  1714.96 397.5  1713 397.5  C 1711.04 397.5  1709.5 395.96  1709.5 394  C 1709.5 392.04  1711.04 390.5  1713 390.5  Z " stroke-width="1" stroke="#797979" fill="none" />
  </g>
</svg>