<?xml version="1.0" encoding="utf-8"?>
<svg version="1.1" xmlns:xlink="http://www.w3.org/1999/xlink" width="1086px" height="189px" xmlns="http://www.w3.org/2000/svg">
  <g transform="matrix(1 0 0 1 -350 -610 )">
    <path d="M 1084.44566494661 165.5  L 0 68.5833333333334  L 39.6666666666667 187.904761904762  L 31.3333333333333 68.5833333333334  L 104.142857142857 46.2380952380953  L 125.571428571429 56.4268774703556  C 125.571428571429 56.4268774703556  142.238095238095 -29.0357142857142  147 68.5833333333334  C 147.349796626835 75.7541641834575  165.604479436446 50.9969850243775  166.047619047619 56.4268774703556  C 171.637095141539 124.916024579056  166.047619047619 77.1904761904761  166.047619047619 77.1904761904761  L 247.399734327901 56.4268774703556  L 316.691616001635 0.0451251646903756  L 349.951719205027 56.4268774703556  L 431.716139580034 158.18906455863  L 539.811474991059 165.5  L 1084.44566494661 165.5  Z " fill-rule="nonzero" fill="#ffffff" stroke="none" transform="matrix(1 0 0 1 350 610 )" />
    <path d="M 0 68.5833333333334  L 39.6666666666667 187.904761904762  L 31.3333333333333 68.5833333333334  L 104.142857142857 46.2380952380953  L 125.571428571429 56.4268774703556  C 125.571428571429 56.4268774703556  142.238095238095 -29.0357142857142  147 68.5833333333334  C 147.349796626835 75.7541641834575  165.604479436446 50.9969850243775  166.047619047619 56.4268774703556  C 171.637095141539 124.916024579056  166.047619047619 77.1904761904761  166.047619047619 77.1904761904761  L 247.399734327901 56.4268774703556  L 316.691616001635 0.0451251646903756  L 349.951719205027 56.4268774703556  L 431.716139580034 158.18906455863  L 539.811474991059 165.5  L 1084.44566494661 165.5  " stroke-width="1" stroke="#797979" fill="none" transform="matrix(1 0 0 1 350 610 )" />
  </g>
</svg>