<?xml version="1.0" encoding="utf-8"?>
<svg version="1.1" xmlns:xlink="http://www.w3.org/1999/xlink" width="17px" height="15px" xmlns="http://www.w3.org/2000/svg">
  <g transform="matrix(1 0 0 1 -1446 -993 )">
    <path d="M 16.9422718394887 7.5283518145161  C 16.9422718394887 7.5283518145161  14.165283203125 0.100176411290306  8.5 0.100176411290306  C 2.917724609375 0.100176411290306  0.0577281605112603 7.5  0.0577281605112603 7.5  C 0.0577281605112603 7.5  2.21970436789798 14.9021862399194  8.5 14.9021862399194  C 14.1898082386363 14.9021862399194  16.9422718394887 7.5283518145161  16.9422718394887 7.5283518145161  Z M 12.029718572443 7.49763734879031  C 12.02783203125 10.0989163306452  10.552556818182 12.1237084173387  8.51320578835202 12.1237084173387  C 6.47385475852298 12.1237084173387  4.9985795454545 10.1036416330645  4.9985795454545 7.49763734879031  C 4.9985795454545 4.89399571572585  6.47385475852298 2.87156628024195  8.51320578835202 2.87156628024195  C 10.5506702769887 2.87156628024195  12.029718572443 4.89399571572585  12.029718572443 7.49763734879031  Z M 10.624245383523 7.49763734879031  C 10.624245383523 6.01389238911287  9.68097478693198 4.71915952620969  8.51320578835202 4.72388482862902  C 7.34920987215901 4.72388482862902  6.404052734375 6.01625504032256  6.404052734375 7.49763734879031  C 6.404052734375 8.98138230846774  7.34732333096599 10.2713898689516  8.51320578835202 10.2713898689516  C 9.67908824573874 10.2713898689516  10.624245383523 8.98138230846774  10.624245383523 7.49763734879031  Z " fill-rule="nonzero" fill="#666666" stroke="none" transform="matrix(1 0 0 1 1446 993 )" />
  </g>
</svg>