<?xml version="1.0" encoding="utf-8"?>
<svg version="1.1" xmlns:xlink="http://www.w3.org/1999/xlink" width="25px" height="35px" xmlns="http://www.w3.org/2000/svg">
  <g transform="matrix(1 0 0 1 -1713 -690 )">
    <path d="M 25 12.25  C 25 5.425  19.4642857142857 0  12.5 0  C 5.53571428571429 0  0 5.425  0 12.25  C 0 21.35  12.5 35  12.5 35  C 12.5 35  25 21.35  25 12.25  Z M 16.9642857142857 12.25  C 16.9642857142857 14.7  15 16.625  12.5 16.625  C 10 16.625  8.03571428571429 14.7  8.03571428571429 12.25  C 8.03571428571429 9.8  10 7.875  12.5 7.875  C 15 7.875  16.9642857142857 9.8  16.9642857142857 12.25  Z " fill-rule="nonzero" fill="#000000" stroke="none" transform="matrix(1 0 0 1 1713 690 )" />
  </g>
</svg>