<?xml version="1.0" encoding="utf-8"?>
<svg version="1.1" xmlns:xlink="http://www.w3.org/1999/xlink" width="15px" height="15px" xmlns="http://www.w3.org/2000/svg">
  <g transform="matrix(1 0 0 1 -203 -353 )">
    <path d="M 8.662109375 3.837890625  C 8.720703125 3.896484375  8.75 3.97135416666669  8.75 4.0625  L 8.75 8.4375  C 8.75 8.52864583333331  8.720703125 8.603515625  8.662109375 8.662109375  C 8.603515625 8.720703125  8.52864583333331 8.75  8.4375 8.75  L 5.3125 8.75  C 5.22135416666669 8.75  5.146484375 8.720703125  5.087890625 8.662109375  C 5.029296875 8.603515625  5 8.52864583333331  5 8.4375  L 5 7.8125  C 5 7.72135416666669  5.029296875 7.646484375  5.087890625 7.587890625  C 5.146484375 7.529296875  5.22135416666669 7.5  5.3125 7.5  L 7.5 7.5  L 7.5 4.0625  C 7.5 3.97135416666669  7.529296875 3.896484375  7.587890625 3.837890625  C 7.646484375 3.779296875  7.72135416666669 3.75  7.8125 3.75  L 8.4375 3.75  C 8.52864583333331 3.75  8.603515625 3.779296875  8.662109375 3.837890625  Z M 12.099609375 10.166015625  C 12.5748697916667 9.35221354166669  12.8125 8.46354166666669  12.8125 7.5  C 12.8125 6.53645833333331  12.5748697916667 5.64778645833331  12.099609375 4.833984375  C 11.6243489583333 4.02018229166669  10.9798177083333 3.37565104166669  10.166015625 2.900390625  C 9.35221354166669 2.42513020833331  8.46354166666669 2.1875  7.5 2.1875  C 6.53645833333331 2.1875  5.64778645833331 2.42513020833331  4.833984375 2.900390625  C 4.02018229166669 3.37565104166669  3.37565104166669 4.02018229166669  2.900390625 4.833984375  C 2.42513020833331 5.64778645833331  2.1875 6.53645833333331  2.1875 7.5  C 2.1875 8.46354166666669  2.42513020833331 9.35221354166669  2.900390625 10.166015625  C 3.37565104166669 10.9798177083333  4.02018229166669 11.6243489583333  4.833984375 12.099609375  C 5.64778645833331 12.5748697916667  6.53645833333331 12.8125  7.5 12.8125  C 8.46354166666669 12.8125  9.35221354166669 12.5748697916667  10.166015625 12.099609375  C 10.9798177083333 11.6243489583333  11.6243489583333 10.9798177083333  12.099609375 10.166015625  Z M 13.994140625 3.7353515625  C 14.6647135416667 4.88444010416669  15 6.13932291666669  15 7.5  C 15 8.86067708333331  14.6647135416667 10.1155598958333  13.994140625 11.2646484375  C 13.3235677083333 12.4137369791667  12.4137369791667 13.3235677083333  11.2646484375 13.994140625  C 10.1155598958333 14.6647135416667  8.86067708333331 15  7.5 15  C 6.13932291666669 15  4.88444010416669 14.6647135416667  3.7353515625 13.994140625  C 2.58626302083331 13.3235677083333  1.67643229166669 12.4137369791667  1.005859375 11.2646484375  C 0.335286458333314 10.1155598958333  0 8.86067708333331  0 7.5  C 0 6.13932291666669  0.335286458333314 4.88444010416669  1.005859375 3.7353515625  C 1.67643229166669 2.58626302083331  2.58626302083331 1.67643229166669  3.7353515625 1.005859375  C 4.88444010416669 0.335286458333314  6.13932291666669 0  7.5 0  C 8.86067708333331 0  10.1155598958333 0.335286458333314  11.2646484375 1.005859375  C 12.4137369791667 1.67643229166669  13.3235677083333 2.58626302083331  13.994140625 3.7353515625  Z " fill-rule="nonzero" fill="#000000" stroke="none" transform="matrix(1 0 0 1 203 353 )" />
  </g>
</svg>