<?xml version="1.0" encoding="utf-8"?>
<svg version="1.1" xmlns:xlink="http://www.w3.org/1999/xlink" width="15px" height="17px" xmlns="http://www.w3.org/2000/svg">
  <g transform="matrix(1 0 0 1 -187 -346 )">
    <path d="M 1.15384615384613 12.5194099378882  L 1.15384615384613 15.139751552795  L 3.75 15.139751552795  L 3.75 12.5194099378882  L 1.15384615384613 12.5194099378882  Z M 4.32692307692309 12.5194099378882  L 4.32692307692309 15.139751552795  L 7.21153846153845 15.139751552795  L 7.21153846153845 12.5194099378882  L 4.32692307692309 12.5194099378882  Z M 1.15384615384613 9.0256211180124  L 1.15384615384613 11.9371118012422  L 3.75 11.9371118012422  L 3.75 9.0256211180124  L 1.15384615384613 9.0256211180124  Z M 4.32692307692309 9.0256211180124  L 4.32692307692309 11.9371118012422  L 7.21153846153845 11.9371118012422  L 7.21153846153845 9.0256211180124  L 4.32692307692309 9.0256211180124  Z M 1.15384615384613 5.8229813664596  L 1.15384615384613 8.44332298136646  L 3.75 8.44332298136646  L 3.75 5.8229813664596  L 1.15384615384613 5.8229813664596  Z M 7.78846153846155 12.5194099378882  L 7.78846153846155 15.139751552795  L 10.6730769230769 15.139751552795  L 10.6730769230769 12.5194099378882  L 7.78846153846155 12.5194099378882  Z M 4.32692307692309 5.8229813664596  L 4.32692307692309 8.44332298136646  L 7.21153846153845 8.44332298136646  L 7.21153846153845 5.8229813664596  L 4.32692307692309 5.8229813664596  Z M 11.25 12.5194099378882  L 11.25 15.139751552795  L 13.8461538461539 15.139751552795  L 13.8461538461539 12.5194099378882  L 11.25 12.5194099378882  Z M 7.78846153846155 9.0256211180124  L 7.78846153846155 11.9371118012422  L 10.6730769230769 11.9371118012422  L 10.6730769230769 9.0256211180124  L 7.78846153846155 9.0256211180124  Z M 4.52974759615387 4.28080114518633  C 4.58683894230768 4.22317789208074  4.61538461538464 4.15493982919253  4.61538461538464 4.07608695652175  L 4.61538461538464 1.45574534161489  C 4.61538461538464 1.37689246894411  4.58683894230768 1.30865440605589  4.52974759615387 1.2510311529503  C 4.47265625 1.19340789984471  4.40504807692309 1.16459627329192  4.32692307692309 1.16459627329192  L 3.75 1.16459627329192  C 3.671875 1.16459627329192  3.60426682692309 1.19340789984471  3.54717548076923 1.2510311529503  C 3.49008413461536 1.30865440605589  3.46153846153845 1.37689246894411  3.46153846153845 1.45574534161489  L 3.46153846153845 4.07608695652175  C 3.46153846153845 4.15493982919253  3.49008413461536 4.22317789208074  3.54717548076923 4.28080114518633  C 3.60426682692309 4.33842439829192  3.671875 4.36723602484471  3.75 4.36723602484471  L 4.32692307692309 4.36723602484471  C 4.40504807692309 4.36723602484471  4.47265625 4.33842439829192  4.52974759615387 4.28080114518633  Z M 11.25 9.0256211180124  L 11.25 11.9371118012422  L 13.8461538461539 11.9371118012422  L 13.8461538461539 9.0256211180124  L 11.25 9.0256211180124  Z M 7.78846153846155 5.8229813664596  L 7.78846153846155 8.44332298136646  L 10.6730769230769 8.44332298136646  L 10.6730769230769 5.8229813664596  L 7.78846153846155 5.8229813664596  Z M 11.25 5.8229813664596  L 11.25 8.44332298136646  L 13.8461538461539 8.44332298136646  L 13.8461538461539 5.8229813664596  L 11.25 5.8229813664596  Z M 11.4528245192308 4.28080114518633  C 11.5099158653846 4.22317789208074  11.5384615384615 4.15493982919253  11.5384615384615 4.07608695652175  L 11.5384615384615 1.45574534161489  C 11.5384615384615 1.37689246894411  11.5099158653846 1.30865440605589  11.4528245192308 1.2510311529503  C 11.3957331730769 1.19340789984471  11.328125 1.16459627329192  11.25 1.16459627329192  L 10.6730769230769 1.16459627329192  C 10.5949519230769 1.16459627329192  10.52734375 1.19340789984471  10.4702524038461 1.2510311529503  C 10.4131610576923 1.30865440605589  10.3846153846154 1.37689246894411  10.3846153846154 1.45574534161489  L 10.3846153846154 4.07608695652175  C 10.3846153846154 4.15493982919253  10.4131610576923 4.22317789208074  10.4702524038461 4.28080114518633  C 10.52734375 4.33842439829192  10.5949519230769 4.36723602484471  10.6730769230769 4.36723602484471  L 11.25 4.36723602484471  C 11.328125 4.36723602484471  11.3957331730769 4.33842439829192  11.4528245192308 4.28080114518633  Z M 14.6574519230769 2.67493206521738  C 14.8858173076923 2.90542507763973  15 3.17837732919253  15 3.49378881987576  L 15 15.139751552795  C 15 15.4551630434783  14.8858173076923 15.728115295031  14.6574519230769 15.9586083074534  C 14.4290865384615 16.1891013198758  14.1586538461539 16.3043478260869  13.8461538461539 16  L 1.15384615384613 16  C 0.841346153846132 16.3043478260869  0.570913461538453 16.1891013198758  0.342548076923094 15.9586083074534  C 0.114182692307679 15.728115295031  0 15.4551630434783  0 15.139751552795  L 0 3.49378881987576  C 0 3.17837732919253  0.114182692307679 2.90542507763973  0.342548076923094 2.67493206521738  C 0.570913461538453 2.44443905279502  0.841346153846132 2.32919254658384  1.15384615384613 2.32919254658384  L 2.30769230769232 2.32919254658384  L 2.30769230769232 1.45574534161489  C 2.30769230769232 1.05541537267078  2.44891826923077 0.712708656832319  2.73137019230768 0.427625194099392  C 3.01382211538464 0.142541731366464  3.35336538461536 0  3.75 0  L 4.32692307692309 0  C 4.72355769230768 0  5.06310096153845 0.142541731366464  5.34555288461536 0.427625194099392  C 5.62800480769232 0.712708656832319  5.76923076923077 1.05541537267078  5.76923076923077 1.45574534161489  L 5.76923076923077 2.32919254658384  L 9.23076923076923 2.32919254658384  L 9.23076923076923 1.45574534161489  C 9.23076923076923 1.05541537267078  9.37199519230768 0.712708656832319  9.65444711538464 0.427625194099392  C 9.93689903846155 0.142541731366464  10.2764423076923 0  10.6730769230769 0  L 11.25 0  C 11.6466346153846 0  11.9861778846154 0.142541731366464  12.2686298076923 0.427625194099392  C 12.5510817307692 0.712708656832319  12.6923076923077 1.05541537267078  12.6923076923077 1.45574534161489  L 12.6923076923077 2.32919254658384  L 13.8461538461539 2.32919254658384  C 14.1586538461539 2.32919254658384  14.4290865384615 2.44443905279502  14.6574519230769 2.67493206521738  Z " fill-rule="nonzero" fill="#000000" stroke="none" transform="matrix(1 0 0 1 187 346 )" />
  </g>
</svg>