<?xml version="1.0" encoding="utf-8"?>
<svg version="1.1" xmlns:xlink="http://www.w3.org/1999/xlink" width="34px" height="33px" xmlns="http://www.w3.org/2000/svg">
  <g transform="matrix(1 0 0 1 -1846 -188 )">
    <path d="M 20.8515625 20.23828125  C 22.642828525641 18.4996995192308  23.5384615384615 16.4074519230769  23.5384615384615 13.9615384615385  C 23.5384615384615 11.515625  22.642828525641 9.42337740384615  20.8515625 7.68479567307692  C 19.060296474359 5.94621394230769  16.9046474358974 5.07692307692308  14.3846153846154 5.07692307692308  C 11.8645833333333 5.07692307692308  9.7089342948718 5.94621394230769  7.91766826923077 7.68479567307692  C 6.12640224358974 9.42337740384615  5.23076923076923 11.515625  5.23076923076923 13.9615384615385  C 5.23076923076923 16.4074519230769  6.12640224358974 18.4996995192308  7.91766826923077 20.23828125  C 9.7089342948718 21.9768629807692  11.8645833333333 22.8461538461538  14.3846153846154 22.8461538461538  C 16.9046474358974 22.8461538461538  19.060296474359 21.9768629807692  20.8515625 20.23828125  Z M 33.2439903846154 28.6766826923077  C 33.7479967948718 29.1658653846154  34 29.7608173076923  34 30.4615384615385  C 34 31.1490384615385  33.7411858974359 31.7439903846154  33.2235576923077 32.2463942307692  C 32.7059294871795 32.7487980769231  32.0929487179487 33  31.3846153846154 33  C 30.6490384615385 33  30.0360576923077 32.7487980769231  29.5456730769231 32.2463942307692  L 22.5372596153846 25.4639423076923  C 20.0989583333333 27.1033653846154  17.3814102564103 27.9230769230769  14.3846153846154 27.9230769230769  C 12.4366987179487 27.9230769230769  10.5739182692308 27.5561899038462  8.79627403846154 26.8224158653846  C 7.01862980769231 26.0886418269231  5.48617788461538 25.0970552884615  4.19891826923077 23.84765625  C 2.91165865384615 22.5982572115385  1.89002403846154 21.1108774038462  1.13401442307692 19.3855168269231  C 0.378004807692308 17.66015625  0 15.8521634615385  0 13.9615384615385  C 0 12.0709134615385  0.378004807692308 10.2629206730769  1.13401442307692 8.53756009615384  C 1.89002403846154 6.81219951923077  2.91165865384615 5.32481971153846  4.19891826923077 4.07542067307692  C 5.48617788461538 2.82602163461539  7.01862980769231 1.83443509615385  8.79627403846154 1.10066105769231  C 10.5739182692308 0.366887019230768  12.4366987179487 0  14.3846153846154 0  C 16.3325320512821 0  18.1953125 0.366887019230768  19.9729567307692 1.10066105769231  C 21.7506009615385 1.83443509615385  23.2830528846154 2.82602163461539  24.5703125 4.07542067307692  C 25.8575721153846 5.32481971153846  26.8792067307692 6.81219951923077  27.6352163461538 8.53756009615384  C 28.3912259615385 10.2629206730769  28.7692307692308 12.0709134615385  28.7692307692308 13.9615384615385  C 28.7692307692308 16.8701923076923  27.9246794871795 19.5078125  26.2355769230769 21.8743990384615  L 33.2439903846154 28.6766826923077  Z " fill-rule="nonzero" fill="#7f7f7f" stroke="none" transform="matrix(1 0 0 1 1846 188 )" />
  </g>
</svg>