<?xml version="1.0" standalone="no"?><!DOCTYPE svg PUBLIC "-//W3C//DTD SVG 1.1//EN" "http://www.w3.org/Graphics/SVG/1.1/DTD/svg11.dtd"><svg t="1558238292762" class="icon" style="" viewBox="0 0 1024 1024" version="1.1" xmlns="http://www.w3.org/2000/svg" p-id="8913" xmlns:xlink="http://www.w3.org/1999/xlink" width="32" height="32"><defs><style type="text/css"></style></defs><path d="M687.521089 118.449739c2.133681-28.933983-19.172427-54.105269-47.594898-56.203046s-53.197729 19.662829-55.32527 48.604998c-2.141868 28.933983 19.165264 54.098105 47.586711 56.195883S685.386385 147.383722 687.521089 118.449739zM88.253542 436.421674l0 208.67567 209.79967 0 0 104.352673 209.784319 0 0 104.338347 209.79967 0 0 104.338347 209.79967 0L927.436871 749.450017 717.637201 749.450017 717.637201 645.097344l-74.673713 0 3.344302-45.296649c0 0 2.017019-87.219457-66.86966-179.676196l1.877844-25.567305 17.837981-70.629617c0 0 16.38585-16.766872 25.290002-0.689708 0 0-4.107719 21.533432 36.863046 47.688115l48.797332 22.868847c0 0 26.859818 12.262278 33.021397-2.699482 0 0 11.735756-22.267143-2.949289-28.486798l-43.302976-28.897144c0 0-50.073447-39.664372-44.168729-85.49621 0 0-5.354157-51.465139-49.405201-70.13843 0 0-21.278478-19.560498-49.648758-11.367909L430.590098 213.840296c0 0-18.01502 8.947789-18.967758 21.723767-0.93841 12.775978-8.889825 120.444163-8.889825 120.444163s-4.82611 22.765493 10.547649 23.909549c0 0 27.020484-7.011694 27.592536-14.668071l7.981092-90.960665c0 0 3.666656-7.114025 24.071195-18.460444l21.241637-14.169721c0 0 23.720186-13.671371 17.192249 6.40999 0 0-44.286414 57.112766-47.01466 94.179986l-6.806288 92.001367-55.154371 106.508779L298.053212 540.758997 298.053212 436.421674 88.253542 436.421674zM483.349834 540.758997l13.030292-21.401426c0 0 19.407797-40.646746 32.184299-25.581632l47.146672 62.282508c0 0 9.203993 25.305339 6.861549 89.038896l-74.736137 0L507.836508 540.758997 483.349834 540.758997z" p-id="8914" fill="#bfbfbf"></path></svg>