<?xml version="1.0" encoding="utf-8"?>
<svg version="1.1" xmlns:xlink="http://www.w3.org/1999/xlink" width="12px" height="12px" viewBox="591 1059.5  12 12" xmlns="http://www.w3.org/2000/svg">
  <path d="M 597 1059.5  C 600.36 1059.5  603 1062.14  603 1065.5  C 603 1068.86  600.36 1071.5  597 1071.5  C 593.64 1071.5  591 1068.86  591 1065.5  C 591 1062.14  593.64 1059.5  597 1059.5  Z " fill-rule="nonzero" fill="#f0f0f0" stroke="none" />
  <path d="M 597 1060  C 600.08 1060  602.5 1062.42  602.5 1065.5  C 602.5 1068.58  600.08 1071  597 1071  C 593.92 1071  591.5 1068.58  591.5 1065.5  C 591.5 1062.42  593.92 1060  597 1060  Z " stroke-width="1" stroke="#797979" fill="none" />
  <path d="M 597 1068.5  C 595.32 1068.5  594 1067.18  594 1065.5  C 594 1063.82  595.32 1062.5  597 1062.5  C 598.68 1062.5  600 1063.82  600 1065.5  C 600 1067.18  598.68 1068.5  597 1068.5  " fill-rule="nonzero" fill="#797979" stroke="none" />
</svg>