<?xml version="1.0" encoding="utf-8"?>
<svg version="1.1" xmlns:xlink="http://www.w3.org/1999/xlink" width="12px" height="12px" viewBox="663 1059.5  12 12" xmlns="http://www.w3.org/2000/svg">
  <path d="M 669 1059.5  C 672.36 1059.5  675 1062.14  675 1065.5  C 675 1068.86  672.36 1071.5  669 1071.5  C 665.64 1071.5  663 1068.86  663 1065.5  C 663 1062.14  665.64 1059.5  669 1059.5  Z " fill-rule="nonzero" fill="#f0f0f0" stroke="none" />
  <path d="M 669 1060  C 672.08 1060  674.5 1062.42  674.5 1065.5  C 674.5 1068.58  672.08 1071  669 1071  C 665.92 1071  663.5 1068.58  663.5 1065.5  C 663.5 1062.42  665.92 1060  669 1060  Z " stroke-width="1" stroke="#797979" fill="none" />
  <path d="M 669 1068.5  C 667.32 1068.5  666 1067.18  666 1065.5  C 666 1063.82  667.32 1062.5  669 1062.5  C 670.68 1062.5  672 1063.82  672 1065.5  C 672 1067.18  670.68 1068.5  669 1068.5  " fill-rule="nonzero" fill="#797979" stroke="none" />
</svg>