<?xml version="1.0" encoding="utf-8"?>
<svg version="1.1" xmlns:xlink="http://www.w3.org/1999/xlink" width="12px" height="12px" viewBox="815 1059.5  12 12" xmlns="http://www.w3.org/2000/svg">
  <path d="M 821 1059.5  C 824.36 1059.5  827 1062.14  827 1065.5  C 827 1068.86  824.36 1071.5  821 1071.5  C 817.64 1071.5  815 1068.86  815 1065.5  C 815 1062.14  817.64 1059.5  821 1059.5  Z " fill-rule="nonzero" fill="#ffffff" stroke="none" />
  <path d="M 821 1060  C 824.08 1060  826.5 1062.42  826.5 1065.5  C 826.5 1068.58  824.08 1071  821 1071  C 817.92 1071  815.5 1068.58  815.5 1065.5  C 815.5 1062.42  817.92 1060  821 1060  Z " stroke-width="1" stroke="#797979" fill="none" />
  <path d="M 821 1068.5  C 819.32 1068.5  818 1067.18  818 1065.5  C 818 1063.82  819.32 1062.5  821 1062.5  C 822.68 1062.5  824 1063.82  824 1065.5  C 824 1067.18  822.68 1068.5  821 1068.5  " fill-rule="nonzero" fill="#797979" stroke="none" />
</svg>