<?xml version="1.0" encoding="utf-8"?>
<svg version="1.1" xmlns:xlink="http://www.w3.org/1999/xlink" width="28px" height="28px" xmlns="http://www.w3.org/2000/svg">
  <g transform="matrix(1 0 0 1 -901 -1207 )">
    <path d="M 21.6927083333333 11.6666666666667  C 21.6927083333333 11.9826388888889  21.5772569444444 12.2560763888889  21.3463541666667 12.4869791666667  L 13.6536458333333 20.1796875  C 13.4227430555556 20.4105902777778  13.1493055555556 20.5260416666667  12.8333333333333 20.5260416666667  C 12.5173611111111 20.5260416666667  12.2439236111111 20.4105902777778  12.0130208333333 20.1796875  L 6.65364583333333 14.8203125  C 6.42274305555556 14.5894097222222  6.30729166666667 14.3159722222222  6.30729166666667 14  C 6.30729166666667 13.6840277777778  6.42274305555556 13.4105902777778  6.65364583333333 13.1796875  L 8.51302083333333 11.3203125  C 8.74392361111111 11.0894097222222  9.01736111111111 10.9739583333333  9.33333333333333 10.9739583333333  C 9.64930555555556 10.9739583333333  9.92274305555556 11.0894097222222  10.1536458333333 11.3203125  L 12.8333333333333 14  L 17.8463541666667 8.98697916666667  C 18.0772569444444 8.75607638888889  18.3506944444444 8.640625  18.6666666666667 8.640625  C 18.9826388888889 8.640625  19.2560763888889 8.75607638888889  19.4869791666667 8.98697916666667  L 21.3463541666667 10.8463541666667  C 21.5772569444444 11.0772569444444  21.6927083333333 11.3506944444444  21.6927083333333 11.6666666666667  Z M 22.5859375 18.9765625  C 23.4730902777778 17.4574652777778  23.9166666666667 15.7986111111111  23.9166666666667 14  C 23.9166666666667 12.2013888888889  23.4730902777778 10.5425347222222  22.5859375 9.0234375  C 21.6987847222222 7.50434027777778  20.4956597222222 6.30121527777778  18.9765625 5.4140625  C 17.4574652777778 4.52690972222222  15.7986111111111 4.08333333333333  14 4.08333333333333  C 12.2013888888889 4.08333333333333  10.5425347222222 4.52690972222222  9.0234375 5.4140625  C 7.50434027777778 6.30121527777778  6.30121527777778 7.50434027777778  5.4140625 9.0234375  C 4.52690972222222 10.5425347222222  4.08333333333333 12.2013888888889  4.08333333333333 14  C 4.08333333333333 15.7986111111111  4.52690972222222 17.4574652777778  5.4140625 18.9765625  C 6.30121527777778 20.4956597222222  7.50434027777778 21.6987847222222  9.0234375 22.5859375  C 10.5425347222222 23.4730902777778  12.2013888888889 23.9166666666667  14 23.9166666666667  C 15.7986111111111 23.9166666666667  17.4574652777778 23.4730902777778  18.9765625 22.5859375  C 20.4956597222222 21.6987847222222  21.6987847222222 20.4956597222222  22.5859375 18.9765625  Z M 26.1223958333333 6.97265625  C 27.3741319444444 9.11762152777778  28 11.4600694444444  28 14  C 28 16.5399305555556  27.3741319444444 18.8823784722222  26.1223958333333 21.02734375  C 24.8706597222222 23.1723090277778  23.1723090277778 24.8706597222222  21.02734375 26.1223958333333  C 18.8823784722222 27.3741319444444  16.5399305555556 28  14 28  C 11.4600694444444 28  9.11762152777778 27.3741319444444  6.97265625 26.1223958333333  C 4.82769097222222 24.8706597222222  3.12934027777778 23.1723090277778  1.87760416666667 21.02734375  C 0.625868055555555 18.8823784722222  0 16.5399305555556  0 14  C 0 11.4600694444444  0.625868055555555 9.11762152777778  1.87760416666667 6.97265625  C 3.12934027777778 4.82769097222222  4.82769097222222 3.12934027777778  6.97265625 1.87760416666667  C 9.11762152777778 0.625868055555553  11.4600694444444 0  14 0  C 16.5399305555556 0  18.8823784722222 0.625868055555553  21.02734375 1.87760416666667  C 23.1723090277778 3.12934027777778  24.8706597222222 4.82769097222222  26.1223958333333 6.97265625  Z " fill-rule="nonzero" fill="#a6a6a6" stroke="none" transform="matrix(1 0 0 1 901 1207 )" />
  </g>
</svg>