<?xml version="1.0" encoding="utf-8"?>
<svg version="1.1" xmlns:xlink="http://www.w3.org/1999/xlink" width="26px" height="20px" xmlns="http://www.w3.org/2000/svg">
  <g transform="matrix(1 0 0 1 -287 -32 )">
    <path d="M 25.397418666875 19.9756714665625  L 25.3970545778125 20  L 1.1927893334375 20  L 1.1927893334375 18  L 25.397418666875 18  L 25.397418666875 19.9756714665625  Z M 13.6187790225 6.215296  L 13.6187790225 8  L 1.0893880890625 8  L 1.0893880890625 6.215296  L 13.6187790225 6.215296  Z M 13.6187790225 12  L 13.6187790225 13.8178360890625  L 1.0893880890625 13.8178360890625  L 1.0893880890625 12  L 13.6187790225 12  Z M 25.1722296890625 1.684937955625  L 25.1718656 2  L 0.9677824 2  L 0.9677824 0  L 25.1722296890625 0  L 25.1722296890625 1.684937955625  Z M 24.980354844375 14.884252444375  L 17.9359630225 10.188233955625  L 24.980354844375 5.492579555625  L 24.980354844375 14.884252444375  Z " fill-rule="nonzero" fill="#8a8a8a" stroke="none" transform="matrix(1 0 0 1 287 32 )" />
  </g>
</svg>