<?xml version="1.0" encoding="utf-8"?>
<svg version="1.1" xmlns:xlink="http://www.w3.org/1999/xlink" width="21px" height="22px" xmlns="http://www.w3.org/2000/svg">
  <g transform="matrix(1 0 0 1 -335 -31 )">
    <path d="M 20.5875518625 14.1493776015625  C 20.680497928125 13.6929460722656  20.401659753125 13.2365145214844  19.93692946875 13.0539419140625  C 19.472199184375 12.9626555996094  18.914522834375 13.2365145214844  18.82157676875 13.6929460507813  C 17.892116178125 17.4356846425781  14.5460581 19.9917012324219  10.64232365 19.9917012539063  C 5.995020740625 19.9917012539063  2.18423235625 16.2489626621094  2.18423235625 11.6846473046875  C 2.18423235625 7.12033194726562  5.995020740625 3.37759335546875  10.64232365 3.37759335546875  C 12.780082984375 3.37759335546875  14.91784231875 4.19917012109375  16.404979259375 5.65975104492188  L 12.501244809375 5.65975104492188  C 12.036514525 5.65975104492188  11.57178421875 6.02489628125  11.571784240625 6.57261410351563  C 11.571784240625 7.0290456328125  11.94356848125 7.48547718359375  12.501244809375 7.48547718359375  L 18.26390041875 7.48547718359375  C 18.728630703125 7.48547718359375  19.193361009375 7.12033194726563  19.1933609875 6.57261410351563  L 19.1933609875 0.912863080078127  C 19.1933609875 0.456431550781252  18.821576746875 0  18.26390041875 0  C 17.799170134375 0  17.334439828125 0.365145236328127  17.334439828125 0.912863080078127  L 17.334439828125 4.107883828125  C 15.47551866875 2.464730296875  13.058921159375 1.55186723828125  10.549377584375 1.55186721679688  C 4.879668040625 1.55186721679688  0.232365131249995 6.11618257421875  0.232365153124995 11.6846473046875  C 0.232365174999995 17.2531120351562  4.8796680625 21.8174273925781  10.549377584375 21.8174273925781  C 15.2896265375 21.8174273925781  19.379253096875 18.6224066445313  20.5875518625 14.1493776015625  Z " fill-rule="nonzero" fill="#8a8a8a" stroke="none" transform="matrix(1 0 0 1 335 31 )" />
  </g>
</svg>