<?xml version="1.0" encoding="utf-8"?>
<svg version="1.1" xmlns:xlink="http://www.w3.org/1999/xlink" width="19px" height="19px" xmlns="http://www.w3.org/2000/svg">
  <g transform="matrix(1 0 0 1 -1837 -32 )">
    <path d="M 18.4373046875 9.47333984375  C 18.4373046875 14.4095703125  14.43828125 18.41064453125  9.50205078125 18.41064453125  C 4.5658203125 18.41064453125  0.566796875000001 14.41162109375  0.566796875000001 9.475390625  C 0.566796875000001 4.53916015625  4.5658203125 0.5380859375  9.50205078125 0.5380859375  C 14.43828125 0.5380859375  18.4373046875 4.537109375  18.4373046875 9.47333984375  Z M 17.58623046875 9.475390625  C 17.58623046875 5.0498046875  13.92763671875 1.38916015625  9.50205078125 1.38916015625  C 5.07646484375 1.38916015625  1.41787109375 5.04775390625  1.41787109375 9.47333984375  C 1.41787109375 13.89892578125  5.07646484375 17.5595703125  9.50205078125 17.5595703125  C 13.92763671875 17.5595703125  17.58623046875 13.9009765625  17.58623046875 9.475390625  Z " fill-rule="nonzero" fill="#8a8a8a" stroke="none" transform="matrix(1 0 0 1 1837 32 )" />
  </g>
</svg>