<?xml version="1.0" encoding="utf-8"?>
<svg version="1.1" xmlns:xlink="http://www.w3.org/1999/xlink" width="12px" height="16px" xmlns="http://www.w3.org/2000/svg">
  <g transform="matrix(1 0 0 1 -1672 -34 )">
    <path d="M 11.71875 12.75  C 11.875 12.5  11.90625 12.15625  11.78125 11.90625  L 10.84375 9.78125  L 10.84375 6.75  C 10.84375 4.75  9.5625 2.9375  7.71875 2.21875  C 7.65625 1.34375  6.90625 0.65625  6 0.65625  C 5.09375 0.65625  4.375 1.34375  4.28125 2.21875  C 2.40625 2.9375  1.15625 4.75  1.15625 6.75  L 1.15625 9.78125  L 0.21875 11.90625  C 0.09375 12.1875  0.125 12.5  0.28125 12.75  C 0.4375 13  0.71875 13.15625  1.03125 13.15625  L 10.96875 13.15625  C 11.28125 13.15625  11.5625 13  11.71875 12.75  Z M 1.09375 12.25  L 1.09375 12.21875  L 2.09375 9.96875  L 2.09375 6.75  C 2.09375 5.03125  3.25 3.5  4.90625 3  L 5.28125 2.875  L 5.21875 2.46875  L 5.21875 2.375  C 5.21875 1.9375  5.5625 1.59375  6 1.59375  C 6.4375 1.59375  6.78125 1.9375  6.78125 2.375  L 6.78125 2.5  L 6.71875 2.90625  L 7.09375 3.03125  C 8.75 3.53125  9.90625 5.0625  9.90625 6.78125  L 9.90625 10  L 10.90625 12.25  L 1.09375 12.25  Z M 4.4375 13.625  C 4.4375 14.5  5.125 15.1875  6 15.1875  C 6.875 15.1875  7.5625 14.5  7.5625 13.625  L 4.4375 13.625  Z " fill-rule="nonzero" fill="#8a8a8a" stroke="none" transform="matrix(1 0 0 1 1672 34 )" />
  </g>
</svg>