<?xml version="1.0" encoding="utf-8"?>
<svg version="1.1" xmlns:xlink="http://www.w3.org/1999/xlink" width="17px" height="17px" xmlns="http://www.w3.org/2000/svg">
  <g transform="matrix(1 0 0 1 -1838 -33 )">
    <path d="M 7.22646484375 16.4734375  C 7.6509765625 16.64365234375  7.99140625 16.64365234375  8.41591796875 16.64365234375  C 9.09677734375 16.64365234375  9.77763671875 16.5595703125  10.45849609375 16.38935546875  C 10.3744140625 16.219140625  10.20419921875 16.13505859375  9.9478515625 16.219140625  C 10.2021484375 15.02763671875  10.37236328125 14.43291015625  10.8830078125 13.922265625  C 11.2234375 13.66796875  11.39365234375 13.24140625  11.1373046875 12.9009765625  C 10.96708984375 12.6466796875  10.62666015625 12.47646484375  10.37236328125 12.560546875  C 9.86171875 12.64462890625  10.2021484375 11.9658203125  9.77763671875 11.8796875  C 9.353125 11.79560546875  8.75634765625 10.94453125  8.16162109375 10.68818359375  C 7.82119140625 10.51796875  7.48076171875 10.09345703125  6.9701171875 10.09345703125  C 6.54560546875 10.09345703125  5.86474609375 10.51796875  5.86474609375 10.1775390625  C 5.86474609375 9.15625  5.7806640625 8.475390625  5.7806640625 8.1349609375  C 5.7806640625 7.8806640625  5.61044921875 8.05087890625  6.29130859375 8.05087890625  C 6.63173828125 8.05087890625  6.4615234375 7.37001953125  6.801953125 7.37001953125  C 7.1423828125 7.37001953125  7.90732421875 7.71044921875  8.0775390625 7.540234375  C 8.24775390625 7.45615234375  9.4392578125 10.6041015625  9.4392578125 8.05087890625  C 9.4392578125 7.71044921875  9.26904296875 7.1998046875  9.4392578125 6.9455078125  C 9.86376953125 6.2646484375  10.29033203125 5.49970703125  10.63076171875 4.73271484375  C 10.29033203125 4.6486328125  9.8658203125 4.6486328125  9.525390625 4.73271484375  C 9.35517578125 4.816796875  9.60947265625 5.07314453125  9.35517578125 5.07314453125  C 8.5041015625 5.243359375  7.73916015625 4.81884765625  7.99345703125 4.39228515625  C 8.24775390625 3.9677734375  9.26904296875 4.2220703125  9.35517578125 3.37099609375  C 9.4392578125 2.8603515625  9.4392578125 2.34970703125  9.4392578125 1.9251953125  C 10.54462890625 2.09541015625  10.460546875 0.649609375000002  9.01474609375 0.309179687500002  L 8.590234375 0.309179687500002  C 4.67529296875 0.309179687500002  1.35712890625 3.0326171875  0.590136718749999 6.86142578125  C 0.930566406249999 7.20185546875  1.52529296875 7.20185546875  1.781640625 6.77734375  C 1.69755859375 6.69326171875  1.69755859375 6.69326171875  1.781640625 6.60712890625  C 2.1220703125 6.86142578125  2.63271484375 6.86142578125  2.63271484375 7.28798828125  C 2.63271484375 8.7337890625  2.716796875 10.26572265625  3.99443359375 10.26572265625  C 4.505078125 10.4359375  4.8455078125 10.86044921875  5.01572265625 11.37109375  C 5.0998046875 11.7115234375  5.61044921875 11.37109375  6.03701171875 11.37109375  C 6.29130859375 11.37109375  6.03701171875 11.79560546875  6.03701171875 12.6466796875  C 6.03701171875 13.49775390625  7.99345703125 14.9435546875  7.99345703125 14.9435546875  C 7.99345703125 15.45419921875  7.99345703125 15.8787109375  8.0775390625 16.38935546875  C 7.8232421875 16.38935546875  7.4828125 16.38935546875  7.22646484375 16.4734375  Z M 16.5021484375 7.113671875  C 16.416015625 6.77119140625  16.24580078125 6.260546875  16.0755859375 5.74990234375  C 16.0755859375 5.74990234375  15.99150390625 5.74990234375  15.99150390625 5.6658203125  C 15.480859375 4.3041015625  14.2052734375 5.325390625  14.62978515625 6.43076171875  C 12.24677734375 8.2169921875  12.92763671875 9.49462890625  13.69462890625 10.17548828125  C 14.119140625 10.6  14.4595703125 11.0265625  14.71591796875 11.53720703125  C 14.46162109375 12.21806640625  15.480859375 12.0478515625  16.16171875 11.0265625  C 16.5021484375 10.17548828125  16.58623046875 9.24033203125  16.58623046875 8.303125  L 16.58623046875 7.53818359375  C 16.58623046875 7.36796875  16.58623046875 7.19775390625  16.5021484375 7.113671875  Z " fill-rule="nonzero" fill="#8a8a8a" stroke="none" transform="matrix(1 0 0 1 1838 33 )" />
  </g>
</svg>