<?xml version="1.0" encoding="utf-8"?>
<svg version="1.1" xmlns:xlink="http://www.w3.org/1999/xlink" width="19px" height="15px" xmlns="http://www.w3.org/2000/svg">
  <g transform="matrix(1 0 0 1 -1786 -34 )">
    <path d="M 1.71002378710938 5.43814855566406  L 4.94329909765625 5.43814855566406  L 8.45698418261719 2.64973514453125  L 8.45698418261719 12.3504324228516  L 4.94329909765625 9.56185144433594  L 1.71002378710938 9.56185144433594  L 1.71002378710938 5.43814855566406  Z M 4.44669192285156 4.01320971191406  L 0.950165897460938 4.01320971191406  C 0.58275434375 4.01320971191406  0.285118471679688 4.31084558398437  0.285118471679688 4.67825713769531  L 0.285118471679688 10.3218433916016  C 0.285118471679688 10.6890538681641  0.58275434375 10.9869243271484  0.950165897460938 10.9869243271484  L 4.44669192285156 10.9869243271484  C 5.89907854882812 12.1394631767578  7.35143164648438 13.2920020263672  8.80375125292969 14.4447754628906  C 9.23953091113281 14.7905036005859  9.88212410351563 14.4801660058594  9.88212410351563 13.9238372851563  L 9.88212410351563 1.07629675390625  C 9.88212410351563 0.519800465820312  9.23953091113281 0.209429361328125  8.80375125292969 0.555392104492187  C 7.35143166503906 1.70793095410156  5.89907854882812 2.86067088085938  4.44669192285156 4.01320971191406  Z M 13.8923828535156 7.50011730273437  C 12.9533937988281 6.37676896582031  12.0146393496094 5.25345412011719  11.0757843525391 4.13013929296875  C 10.8235261396484 3.82834770898437  10.8636421347656 3.3788274140625  11.16543371875 3.12650216308594  C 11.4674933994141 2.87421044042969  11.9167791259766 2.9143599453125  12.1690708300781 3.21638611621094  C 13.0529632246094 4.27387987792969  13.9369561669922 5.33140716796875  14.8208485615234 6.38910202539063  C 15.7047744658203 5.33140716796875  16.5887338984375 4.27387989648438  17.4728608984375 3.21638611621094  C 17.7251191113281 2.9143599453125  18.1744718574219 2.87421044042969  18.4762969326172 3.12650216308594  C 18.7782560839844 3.37879388574219  18.8184055888672 3.82831419921875  18.5661473759766 4.13013929296875  C 17.6273258886719 5.25348762988281  16.6883033427734 6.37680247558594  15.7495153652344 7.50011730273437  C 16.6883033242188 8.62343212988281  17.6273258886719 9.74671344726562  18.5661473759766 10.8698607070313  C 18.8184055888672 11.1718868779297  18.7782560839844 11.6212061142578  18.4762969326172 11.8734978369141  C 18.1744383291016 12.1259906367188  17.7251190927734 12.0858076220703  17.4728608984375 11.7837814511719  C 16.5887338984375 10.7262876894531  15.704774484375 9.66859283203125  14.8208485615234 8.61109905175782  L 12.1690708300781 11.7837814511719  C 11.9167791074219 12.0858076220703  11.4674598710937 12.1259906367188  11.16543371875 11.8734978369141  C 10.8636421347656 11.6212061142578  10.8235261582031 11.1718533681641  11.0757843525391 10.8698607070313  C 12.0146393496094 9.74671344726562  12.9533602890625 8.62343212988281  13.8923828535156 7.50011730273437  Z " fill-rule="nonzero" fill="#8a8a8a" stroke="none" transform="matrix(1 0 0 1 1786 34 )" />
  </g>
</svg>