<?xml version="1.0" encoding="utf-8"?>
<svg version="1.1" xmlns:xlink="http://www.w3.org/1999/xlink" width="17px" height="30px" xmlns="http://www.w3.org/2000/svg">
  <g transform="matrix(1 0 0 1 -769 -246 )">
    <path d="M 16.0703125 9.13636363636363  C 16.6901041666667 9.77272727272725  17 10.5454545454545  17 11.4545454545455  L 17 18.5454545454545  C 17 19  16.8450520833333 19.3863636363636  16.53515625 19.7045454545455  C 16.2252604166667 20.0227272727273  15.8489583333333 20.1818181818181  15.40625 20.1818181818181  C 14.9635416666667 20.1818181818181  14.5872395833333 20.0227272727273  14.27734375 19.7045454545455  C 13.9674479166667 19.3863636363636  13.8125 19  13.8125 18.5454545454545  L 13.8125 12.5454545454545  L 12.75 12.5454545454545  L 12.75 28.0909090909091  C 12.75 28.6136363636364  12.5673828125 29.0625  12.2021484375 29.4375  C 11.8369140625 29.8125  11.3997395833333 30  10.890625 30  C 10.3815104166667 30  9.9443359375 29.8125  9.5791015625 29.4375  C 9.2138671875 29.0625  9.03125 28.6136363636364  9.03125 28.0909090909091  L 9.03125 20.1818181818181  L 7.96875 20.1818181818181  L 7.96875 28.0909090909091  C 7.96875 28.6136363636364  7.7861328125 29.0625  7.4208984375 29.4375  C 7.0556640625 29.8125  6.61848958333331 30  6.109375 30  C 5.60026041666669 30  5.1630859375 29.8125  4.7978515625 29.4375  C 4.4326171875 29.0625  4.25 28.6136363636364  4.25 28.0909090909091  L 4.25 12.5454545454545  L 3.1875 12.5454545454545  L 3.1875 18.5454545454545  C 3.1875 19  3.03255208333331 19.3863636363636  2.72265625 19.7045454545455  C 2.41276041666669 20.0227272727273  2.03645833333331 20.1818181818181  1.59375 20.1818181818181  C 1.15104166666669 20.1818181818181  0.774739583333314 20.0227272727273  0.46484375 19.7045454545455  C 0.154947916666686 19.3863636363636  0 19  0 18.5454545454545  L 0 11.4545454545455  C 0 10.5454545454545  0.309895833333314 9.77272727272725  0.9296875 9.13636363636363  C 1.54947916666669 8.5  2.30208333333331 8.18181818181813  3.1875 8.18181818181813  L 13.8125 8.18181818181813  C 14.6979166666667 8.18181818181813  15.4505208333333 8.5  16.0703125 9.13636363636363  Z M 11.13134765625 1.11647727272725  C 11.8562825520833 1.8607954545455  12.21875 2.76136363636363  12.21875 3.81818181818187  C 12.21875 4.875  11.8562825520833 5.77556818181813  11.13134765625 6.51988636363637  C 10.4064127604167 7.2642045454545  9.529296875 7.63636363636363  8.5 7.63636363636363  C 7.470703125 7.63636363636363  6.59358723958331 7.2642045454545  5.86865234375 6.51988636363637  C 5.14371744791669 5.77556818181813  4.78125 4.875  4.78125 3.81818181818187  C 4.78125 2.76136363636363  5.14371744791669 1.8607954545455  5.86865234375 1.11647727272725  C 6.59358723958331 0.372159090909122  7.470703125 0  8.5 0  C 9.529296875 0  10.4064127604167 0.372159090909122  11.13134765625 1.11647727272725  Z " fill-rule="nonzero" fill="#000000" stroke="none" transform="matrix(1 0 0 1 769 246 )" />
  </g>
</svg>