<?xml version="1.0" encoding="utf-8"?>
<svg version="1.1" xmlns:xlink="http://www.w3.org/1999/xlink" width="135px" height="77px" xmlns="http://www.w3.org/2000/svg">
  <g transform="matrix(1 0 0 1 -1615 -281 )">
    <path d="M 1615 281  L 1750 281  L 1750 358  L 1615 358  L 1615 281  " fill-rule="nonzero" fill="#cccccc" stroke="none" />
    <path d="M 1620 286  L 1745 286  L 1745 353  L 1620 353  L 1620 286  " fill-rule="nonzero" fill="#ffffff" stroke="none" />
    <path d="M 1690.975 304.1  C 1687.741 304.1  1685.2 301.559  1685.2 298.325  C 1685.2 295.091  1687.741 292.55  1690.975 292.55  C 1694.209 292.55  1696.75 295.091  1696.75 298.325  C 1696.75 301.559  1694.209 304.1  1690.975 304.1  " fill-rule="nonzero" fill="#cccccc" stroke="none" />
    <path d="M 1622 351  L 1622 316.35  L 1652.25 300.6  L 1694.6 329.44  L 1718.8 310.05  L 1743 329.44  L 1743 351  L 1622 351  " fill-rule="nonzero" fill="#169bd5" stroke="none" />
  </g>
</svg>