<?xml version="1.0" encoding="utf-8"?>
<svg version="1.1" xmlns:xlink="http://www.w3.org/1999/xlink" width="170px" height="170px" xmlns="http://www.w3.org/2000/svg">
  <g transform="matrix(1 0 0 1 -136 -815 )">
    <path d="M 221 817  C 267.48 817  304 853.52  304 900  C 304 946.48  267.48 983  221 983  C 174.52 983  138 946.48  138 900  C 138 853.52  174.52 817  221 817  Z " fill-rule="nonzero" fill="#ffffff" stroke="none" />
    <path d="M 221 816.5  C 267.76 816.5  304.5 853.24  304.5 900  C 304.5 946.76  267.76 983.5  221 983.5  C 174.24 983.5  137.5 946.76  137.5 900  C 137.5 853.24  174.24 816.5  221 816.5  Z " stroke-width="3" stroke="#797979" fill="none" />
  </g>
</svg>