<?xml version="1.0" encoding="utf-8"?>
<svg version="1.1" xmlns:xlink="http://www.w3.org/1999/xlink" width="30px" height="29px" xmlns="http://www.w3.org/2000/svg">
  <g transform="matrix(1 0 0 1 -1745 -169 )">
    <path d="M 29.6993987975952 13.3291925465839  C 29.8997995991984 13.5293305728088  30 13.7594893029676  30 14.01966873706  C 30 14.2798481711525  29.8997995991984 14.5100069013112  29.6993987975952 14.7101449275362  L 15.6913827655311 28.6997929606625  C 15.4909819639279 28.8999309868875  15.2605210420842 29  15 29  C 14.7394789579158 29  14.5090180360721 28.8999309868875  14.3086172344689 28.6997929606625  L 0.30060120240481 14.7101449275362  C 0.100200400801604 14.5100069013112  0 14.2798481711525  0 14.01966873706  C 0 13.7594893029676  0.100200400801604 13.5293305728088  0.30060120240481 13.3291925465839  L 1.80360721442886 11.8281573498965  C 2.00400801603206 11.6280193236715  2.23446893787575 11.527950310559  2.49498997995992 11.527950310559  C 2.75551102204409 11.527950310559  2.98597194388778 11.6280193236715  3.18637274549098 11.8281573498965  L 15 23.6262939958592  L 26.813627254509 11.8281573498965  C 27.0140280561122 11.6280193236715  27.2444889779559 11.527950310559  27.5050100200401 11.527950310559  C 27.7655310621243 11.527950310559  27.9959919839679 11.6280193236715  28.1963927855711 11.8281573498965  L 29.6993987975952 13.3291925465839  Z M 29.6993987975952 1.80124223602484  C 29.8997995991984 2.00138026224982  30 2.23153899240856  30 2.49171842650104  C 30 2.75189786059351  29.8997995991984 2.98205659075224  29.6993987975952 3.18219461697722  L 15.6913827655311 17.1718426501035  C 15.4909819639279 17.3719806763285  15.2605210420842 17.472049689441  15 17.472049689441  C 14.7394789579158 17.472049689441  14.5090180360721 17.3719806763285  14.3086172344689 17.1718426501035  L 0.30060120240481 3.18219461697722  C 0.100200400801604 2.98205659075224  0 2.75189786059351  0 2.49171842650104  C 0 2.23153899240856  0.100200400801604 2.00138026224982  0.30060120240481 1.80124223602484  L 1.80360721442886 0.300207039337474  C 2.00400801603206 0.100069013112489  2.23446893787575 0  2.49498997995992 0  C 2.75551102204409 0  2.98597194388778 0.100069013112489  3.18637274549098 0.300207039337474  L 15 12.0983436853002  L 26.813627254509 0.300207039337474  C 27.0140280561122 0.100069013112489  27.2444889779559 0  27.5050100200401 0  C 27.7655310621243 0  27.9959919839679 0.100069013112489  28.1963927855711 0.300207039337474  L 29.6993987975952 1.80124223602484  Z " fill-rule="nonzero" fill="#717171" stroke="none" transform="matrix(1 0 0 1 1745 169 )" />
  </g>
</svg>