<?xml version="1.0" encoding="utf-8"?>
<svg version="1.1" xmlns:xlink="http://www.w3.org/1999/xlink" width="118px" height="118px" xmlns="http://www.w3.org/2000/svg">
  <g transform="matrix(1 0 0 1 -2120 -308 )">
    <path d="M 91.95703125 67.3736979166667  C 92.9301215277778 66.4006076388889  93.4166666666667 65.2482638888889  93.4166666666667 63.9166666666667  L 93.4166666666667 54.0833333333333  C 93.4166666666667 52.7517361111111  92.9301215277778 51.5993923611111  91.95703125 50.6263020833333  C 90.9839409722222 49.6532118055556  89.8315972222222 49.1666666666667  88.5 50  L 68 50  L 68 29.5  C 68.8333333333333 28.1684027777778  68.3467881944445 27.0160590277778  67.3736979166667 26.04296875  C 66.4006076388889 25.0698784722222  65.2482638888889 24.5833333333333  63.9166666666667 24.5833333333333  L 54.0833333333333 24.5833333333333  C 52.7517361111111 24.5833333333333  51.5993923611111 25.0698784722222  50.6263020833333 26.04296875  C 49.6532118055556 27.0160590277778  49.1666666666667 28.1684027777778  50 29.5  L 50 50  L 29.5 50  C 28.1684027777778 49.1666666666667  27.0160590277778 49.6532118055556  26.04296875 50.6263020833333  C 25.0698784722222 51.5993923611111  24.5833333333333 52.7517361111111  24.5833333333333 54.0833333333333  L 24.5833333333333 63.9166666666667  C 24.5833333333333 65.2482638888889  25.0698784722222 66.4006076388889  26.04296875 67.3736979166667  C 27.0160590277778 68.3467881944444  28.1684027777778 68.8333333333333  29.5 68  L 50 68  L 50 88.5  C 49.1666666666667 89.8315972222222  49.6532118055556 90.9839409722222  50.6263020833333 91.95703125  C 51.5993923611111 92.9301215277778  52.7517361111111 93.4166666666667  54.0833333333333 93.4166666666667  L 63.9166666666667 93.4166666666667  C 65.2482638888889 93.4166666666667  66.4006076388889 92.9301215277778  67.3736979166667 91.95703125  C 68.3467881944445 90.9839409722222  68.8333333333333 89.8315972222222  68 88.5  L 68 68  L 88.5 68  C 89.8315972222222 68.8333333333333  90.9839409722222 68.3467881944444  91.95703125 67.3736979166667  Z M 110.087239583333 29.384765625  C 115.362413194444 38.4242621527778  118 48.2960069444444  118 59  C 118 69.7039930555556  115.362413194444 79.5757378472222  110.087239583333 88.615234375  C 104.812065972222 97.6547309027778  97.6547309027778 104.812065972222  88.615234375 110.087239583333  C 79.5757378472222 115.362413194444  69.7039930555556 118  59 118  C 48.2960069444445 118  38.4242621527778 115.362413194444  29.384765625 110.087239583333  C 20.3452690972222 104.812065972222  13.1879340277778 97.6547309027778  7.91276041666667 88.615234375  C 2.63758680555556 79.5757378472222  0 69.7039930555556  0 59  C 0 48.2960069444444  2.63758680555556 38.4242621527778  7.91276041666667 29.384765625  C 13.1879340277778 20.3452690972222  20.3452690972222 13.1879340277778  29.384765625 7.91276041666666  C 38.4242621527778 2.63758680555555  48.2960069444445 0  59 0  C 69.7039930555556 0  79.5757378472222 2.63758680555555  88.615234375 7.91276041666666  C 97.6547309027778 13.1879340277778  104.812065972222 20.3452690972222  110.087239583333 29.384765625  Z " fill-rule="nonzero" fill="#6c6c6c" stroke="none" transform="matrix(1 0 0 1 2120 308 )" />
  </g>
</svg>