<?xml version="1.0" encoding="utf-8"?>
<svg version="1.1" xmlns:xlink="http://www.w3.org/1999/xlink" width="29px" height="31px" xmlns="http://www.w3.org/2000/svg">
  <g transform="matrix(1 0 0 1 -696 -169 )">
    <path d="M 28.7094188376754 14.2484472049689  C 28.9031396125585 14.4623878536922  29 14.7084195997239  29 14.9865424430642  C 29 15.2646652864044  28.9031396125585 15.5106970324362  28.7094188376754 15.7246376811594  L 15.1683366733467 30.6790890269151  C 14.9746158984636 30.8930296756384  14.751837007348 31  14.5 31  C 14.248162992652 31  14.0253841015364 30.8930296756384  13.8316633266533 30.6790890269151  L 0.290581162324649 15.7246376811594  C 0.0968603874415501 15.5106970324362  0 15.2646652864044  0 14.9865424430642  C 0 14.7084195997239  0.0968603874415501 14.4623878536922  0.290581162324649 14.2484472049689  L 1.7434869739479 12.6438923395445  C 1.937207748831 12.4299516908213  2.15998663994656 12.3229813664596  2.41182364729459 12.3229813664596  C 2.66366065464262 12.3229813664596  2.88643954575818 12.4299516908213  3.08016032064128 12.6438923395445  L 14.5 25.2556935817805  L 25.9198396793587 12.6438923395445  C 26.1135604542418 12.4299516908213  26.3363393453574 12.3229813664596  26.5881763527054 12.3229813664596  C 26.8400133600534 12.3229813664596  27.062792251169 12.4299516908213  27.2565130260521 12.6438923395445  L 28.7094188376754 14.2484472049689  Z M 28.7094188376754 1.92546583850932  C 28.9031396125585 2.13940648723257  29 2.38543823326432  29 2.66356107660456  C 29 2.94168391994478  28.9031396125585 3.18771566597653  28.7094188376754 3.40165631469979  L 15.1683366733467 18.3561076604555  C 14.9746158984636 18.5700483091787  14.751837007348 18.6770186335404  14.5 18.6770186335404  C 14.248162992652 18.6770186335404  14.0253841015364 18.5700483091787  13.8316633266533 18.3561076604555  L 0.290581162324649 3.40165631469979  C 0.0968603874415501 3.18771566597653  0 2.94168391994478  0 2.66356107660456  C 0 2.38543823326432  0.0968603874415501 2.13940648723257  0.290581162324649 1.92546583850932  L 1.7434869739479 0.320910973084886  C 1.937207748831 0.106970324361626  2.15998663994656 0  2.41182364729459 0  C 2.66366065464262 0  2.88643954575818 0.106970324361626  3.08016032064128 0.320910973084886  L 14.5 12.9327122153209  L 25.9198396793587 0.320910973084886  C 26.1135604542418 0.106970324361626  26.3363393453574 0  26.5881763527054 0  C 26.8400133600534 0  27.062792251169 0.106970324361626  27.2565130260521 0.320910973084886  L 28.7094188376754 1.92546583850932  Z " fill-rule="nonzero" fill="#717171" stroke="none" transform="matrix(1 0 0 1 696 169 )" />
  </g>
</svg>