<?xml version="1.0" encoding="utf-8"?>
<svg version="1.1" xmlns:xlink="http://www.w3.org/1999/xlink" width="105px" height="90px" xmlns="http://www.w3.org/2000/svg">
  <g transform="matrix(1 0 0 1 -190 -222 )">
    <path d="M 41.37109375 40.9164663461538  C 44.4518229166667 37.8695913461538  48.1614583333333 36.3461538461538  52.5 36.3461538461538  C 56.8385416666667 36.3461538461538  60.5481770833333 37.8695913461538  63.62890625 40.9164663461538  C 66.7096354166667 43.9633413461538  68.25 47.6322115384615  68.25 51.9230769230769  C 68.25 56.2139423076923  66.7096354166667 59.8828125  63.62890625 62.9296875  C 60.5481770833333 65.9765625  56.8385416666667 67.5  52.5 67.5  C 48.1614583333333 67.5  44.4518229166667 65.9765625  41.37109375 62.9296875  C 38.2903645833333 59.8828125  36.75 56.2139423076923  36.75 51.9230769230769  C 36.75 47.6322115384615  38.2903645833333 43.9633413461538  41.37109375 40.9164663461538  Z M 78.75 14  L 91 14  C 94.8645833333333 13.8461538461538  98.1640625 15.1983173076923  100.8984375 17.9026442307692  C 103.6328125 20.6069711538462  105 23.8701923076923  105 27.6923076923077  L 105 76.1538461538461  C 105 79.9759615384615  103.6328125 83.2391826923077  100.8984375 85.9435096153846  C 98.1640625 88.6478365384615  94.8645833333333 90  91 90  L 14 90  C 10.1354166666667 90  6.8359375 88.6478365384615  4.1015625 85.9435096153846  C 1.3671875 83.2391826923077  0 79.9759615384615  0 76.1538461538461  L 0 27.6923076923077  C 0 23.8701923076923  1.3671875 20.6069711538462  4.1015625 17.9026442307692  C 6.8359375 15.1983173076923  10.1354166666667 13.8461538461538  14 14  L 26.25 14  L 29.0390625 6.49038461538461  C 29.7317708333333 4.72355769230769  30.9986979166667 3.20012019230769  32.83984375 1.92007211538461  C 34.6809895833333 0.640024038461547  36.5677083333333 0  38.5 0  L 66.5 0  C 68.4322916666667 0  70.3190104166667 0.640024038461547  72.16015625 1.92007211538461  C 74.0013020833333 3.20012019230769  75.2682291666667 4.72355769230769  75.9609375 6.49038461538461  L 78.75 14  Z M 35.19140625 69.0414663461539  C 39.9856770833333 73.7830528846154  45.7552083333333 76.1538461538461  52.5 76.1538461538461  C 59.2447916666667 76.1538461538461  65.0143229166667 73.7830528846154  69.80859375 69.0414663461539  C 74.6028645833333 64.2998798076923  77 58.59375  77 51.9230769230769  C 77 45.2524038461539  74.6028645833333 39.5462740384615  69.80859375 34.8046875  C 65.0143229166667 30.0631009615385  59.2447916666667 27.6923076923077  52.5 27.6923076923077  C 45.7552083333333 27.6923076923077  39.9856770833333 30.0631009615385  35.19140625 34.8046875  C 30.3971354166667 39.5462740384615  28 45.2524038461539  28 51.9230769230769  C 28 58.59375  30.3971354166667 64.2998798076923  35.19140625 69.0414663461539  Z " fill-rule="nonzero" fill="#000000" stroke="none" transform="matrix(1 0 0 1 190 222 )" />
  </g>
</svg>