<?xml version="1.0" encoding="utf-8"?>
<svg version="1.1" xmlns:xlink="http://www.w3.org/1999/xlink" width="103px" height="100px" xmlns="http://www.w3.org/2000/svg">
  <g transform="matrix(1 0 0 1 -58 -217 )">
    <path d="M 58 217  L 161 217  L 161 317  L 58 317  L 58 217  " fill-rule="nonzero" fill="#cccccc" stroke="none" />
    <path d="M 65 224  L 154 224  L 154 310  L 65 310  L 65 224  " fill-rule="nonzero" fill="#ffffff" stroke="none" />
    <path d="M 119.06 247  C 114.86 247  111.56 243.7  111.56 239.5  C 111.56 235.3  114.86 232  119.06 232  C 123.26 232  126.56 235.3  126.56 239.5  C 126.56 243.7  123.26 247  119.06 247  " fill-rule="nonzero" fill="#cccccc" stroke="none" />
    <path d="M 68 308  L 68 263.45  L 89 243.2  L 118.4 260.815533980583  L 135.2 255.35  L 152 260.815533980583  L 152 308  L 68 308  " fill-rule="nonzero" fill="#169bd5" stroke="none" />
  </g>
</svg>