<?xml version="1.0" encoding="utf-8"?>
<svg version="1.1" xmlns:xlink="http://www.w3.org/1999/xlink" width="300px" height="170px" xmlns="http://www.w3.org/2000/svg">
  <g transform="matrix(1 0 0 1 -28 -1787 )">
    <path d="M 28 1787  L 328 1787  L 328 1957  L 28 1957  L 28 1787  " fill-rule="nonzero" fill="#cccccc" stroke="none" />
    <path d="M 40 1799  L 316 1799  L 316 1945  L 40 1945  L 40 1799  " fill-rule="nonzero" fill="#ffffff" stroke="none" />
    <path d="M 196.75 1838  C 189.61 1838  184 1832.39  184 1825.25  C 184 1818.11  189.61 1812.5  196.75 1812.5  C 203.89 1812.5  209.5 1818.11  209.5 1825.25  C 209.5 1832.39  203.89 1838  196.75 1838  " fill-rule="nonzero" fill="#cccccc" stroke="none" />
    <path d="M 45 1941  L 45 1865.65  L 111.75 1831.4  L 205.2 1894.42  L 258.6 1851.95  L 312 1894.42  L 312 1941  L 45 1941  " fill-rule="nonzero" fill="#169bd5" stroke="none" />
  </g>
</svg>