<?xml version="1.0" encoding="utf-8"?>
<svg version="1.1" xmlns:xlink="http://www.w3.org/1999/xlink" width="12px" height="12px" viewBox="197 1.5  12 12" xmlns="http://www.w3.org/2000/svg">
  <path d="M 203 1.5  C 206.36 1.5  209 4.14  209 7.5  C 209 10.86  206.36 13.5  203 13.5  C 199.64 13.5  197 10.86  197 7.5  C 197 4.14  199.64 1.5  203 1.5  Z " fill-rule="nonzero" fill="#f0f0f0" stroke="none" />
  <path d="M 203 2  C 206.08 2  208.5 4.42  208.5 7.5  C 208.5 10.58  206.08 13  203 13  C 199.92 13  197.5 10.58  197.5 7.5  C 197.5 4.42  199.92 2  203 2  Z " stroke-width="1" stroke="#797979" fill="none" />
  <path d="M 203 10.5  C 201.32 10.5  200 9.18  200 7.5  C 200 5.82  201.32 4.5  203 4.5  C 204.68 4.5  206 5.82  206 7.5  C 206 9.18  204.68 10.5  203 10.5  " fill-rule="nonzero" fill="#797979" stroke="none" />
</svg>