<?xml version="1.0" encoding="utf-8"?>
<svg version="1.1" xmlns:xlink="http://www.w3.org/1999/xlink" width="28px" height="28px" xmlns="http://www.w3.org/2000/svg">
  <g transform="matrix(1 0 0 1 -714 -80 )">
    <path d="M 728 80  C 735.84 80  742 86.16  742 94  C 742 101.84  735.84 108  728 108  C 720.16 108  714 101.84  714 94  C 714 86.16  720.16 80  728 80  Z " fill-rule="nonzero" fill="#ffffff" stroke="none" />
    <path d="M 728 80.5  C 735.56 80.5  741.5 86.44  741.5 94  C 741.5 101.56  735.56 107.5  728 107.5  C 720.44 107.5  714.5 101.56  714.5 94  C 714.5 86.44  720.44 80.5  728 80.5  Z " stroke-width="1" stroke="#797979" fill="none" />
  </g>
</svg>