<?xml version="1.0" encoding="utf-8"?>
<svg version="1.1" xmlns:xlink="http://www.w3.org/1999/xlink" width="22px" height="19px" xmlns="http://www.w3.org/2000/svg">
  <g transform="matrix(1 0 0 1 -103 -59 )">
    <path d="M 12.4515590200445 15.9684495192308  C 12.529138827023 15.8961338141026  12.5679287305122 15.8066907051282  12.5679287305122 15.7001201923077  L 12.5679287305122 13.5306490384615  C 12.5679287305122 13.424078525641  12.529138827023 13.3346354166667  12.4515590200445 13.2623197115385  C 12.3739792130661 13.1900040064103  12.2821083890126 13.1538461538462  12.1759465478842 13.1538461538462  L 9.82405345211581 13.1538461538462  C 9.71789161098738 13.1538461538462  9.62602078693393 13.1900040064103  9.54844097995546 13.2623197115385  C 9.47086117297698 13.3346354166667  9.43207126948775 13.424078525641  9.43207126948775 13.5306490384615  L 9.43207126948775 15.7001201923077  C 9.43207126948775 15.8066907051282  9.47086117297698 15.8961338141026  9.54844097995546 15.9684495192308  C 9.62602078693393 16.040765224359  9.71789161098738 16.0769230769231  9.82405345211581 16.0769230769231  L 12.1759465478842 16.0769230769231  C 12.2821083890126 16.0769230769231  12.3739792130661 16.040765224359  12.4515590200445 15.9684495192308  Z M 12.4148106904232 11.6180889423077  C 12.4923904974016 11.568609775641  12.5352635486266 11.5058092948718  12.543429844098 11.4296875  L 12.7639198218263 6.18870192307692  C 12.7639198218263 6.09735576923077  12.7230883444692 6.02504006410256  12.641425389755 5.97175480769231  C 12.5352635486266 5.88802083333333  12.4372680029696 5.84615384615385  12.347438752784 5.84615384615385  L 9.65256124721603 5.84615384615385  C 9.56273199703044 5.84615384615385  9.46473645137342 5.88802083333333  9.35857461024499 5.97175480769231  C 9.27691165553081 6.02504006410256  9.23608017817372 6.10496794871795  9.23608017817372 6.21153846153846  L 9.44432071269488 11.4296875  C 9.44432071269488 11.5058092948718  9.48515219005197 11.568609775641  9.56681514476615 11.6180889423077  C 9.64847809948033 11.6675681089744  9.74647364513734 11.6923076923077  9.86080178173719 11.6923076923077  L 12.1269487750557 11.6923076923077  C 12.2412769116555 11.6923076923077  12.3372308834447 11.6675681089744  12.4148106904232 11.6180889423077  Z M 11.7962138084633 0.205528846153846  C 12.0412026726058 0.342548076923077  12.2331106161841 0.529046474358973  12.3719376391982 0.765024038461539  L 21.7795100222717 16.8419471153846  C 22.0653303637713 17.3215144230769  22.0571640682999 17.8010817307692  21.7550111358575 18.2806490384615  C 21.6161841128434 18.5014022435897  21.4263177431329 18.6764823717949  21.1854120267261 18.8058894230769  C 20.9445063103192 18.935296474359  20.6852264291017 19  20.4075723830735 19  L 1.5924276169265 19  C 1.31477357089829 19  1.05549368968077 18.935296474359  0.814587973273942 18.8058894230769  C 0.573682256867112 18.6764823717949  0.383815887156644 18.5014022435897  0.244988864142539 18.2806490384615  C -0.0571640682999258 17.8010817307692  -0.0653303637713437 17.3215144230769  0.220489977728285 16.8419471153846  L 9.62806236080178 0.765024038461539  C 9.76688938381589 0.529046474358973  9.95879732739421 0.342548076923077  10.2037861915367 0.205528846153846  C 10.4487750556793 0.0685096153846162  10.7141796585004 0  11 0  C 11.2858203414996 0  11.5512249443207 0.0685096153846162  11.7962138084633 0.205528846153846  Z " fill-rule="nonzero" fill="#d79f0f" stroke="none" transform="matrix(1 0 0 1 103 59 )" />
  </g>
</svg>