<?xml version="1.0" encoding="utf-8"?>
<svg version="1.1" xmlns:xlink="http://www.w3.org/1999/xlink" width="8px" height="8px" xmlns="http://www.w3.org/2000/svg">
  <g transform="matrix(1 0 0 1 -502 -210 )">
    <path d="M 7.84090909090909 3.06818181818182  C 7.9469696969697 3.17424242424242  8 3.3030303030303  8 3.45454545454545  L 8 4.54545454545455  C 8 4.6969696969697  7.9469696969697 4.82575757575758  7.84090909090909 4.93181818181818  C 7.73484848484849 5.03787878787879  7.60606060606061 5.09090909090909  7.45454545454545 5.09090909090909  L 5.09090909090909 5.09090909090909  L 5.09090909090909 7.45454545454546  C 5.09090909090909 7.60606060606061  5.03787878787879 7.73484848484848  4.93181818181818 7.84090909090909  C 4.82575757575758 7.9469696969697  4.6969696969697 8  4.54545454545455 8  L 3.45454545454545 8  C 3.3030303030303 8  3.17424242424242 7.9469696969697  3.06818181818182 7.84090909090909  C 2.96212121212121 7.73484848484848  2.90909090909091 7.60606060606061  2.90909090909091 7.45454545454546  L 2.90909090909091 5.09090909090909  L 0.545454545454545 5.09090909090909  C 0.393939393939394 5.09090909090909  0.265151515151515 5.03787878787879  0.159090909090909 4.93181818181818  C 0.053030303030303 4.82575757575758  0 4.6969696969697  0 4.54545454545455  L 0 3.45454545454545  C 0 3.3030303030303  0.053030303030303 3.17424242424242  0.159090909090909 3.06818181818182  C 0.265151515151515 2.96212121212121  0.393939393939394 2.90909090909091  0.545454545454545 2.90909090909091  L 2.90909090909091 2.90909090909091  L 2.90909090909091 0.545454545454546  C 2.90909090909091 0.393939393939394  2.96212121212121 0.265151515151515  3.06818181818182 0.159090909090909  C 3.17424242424242 0.0530303030303028  3.3030303030303 0  3.45454545454545 0  L 4.54545454545455 0  C 4.6969696969697 0  4.82575757575758 0.0530303030303028  4.93181818181818 0.159090909090909  C 5.03787878787879 0.265151515151515  5.09090909090909 0.393939393939394  5.09090909090909 0.545454545454546  L 5.09090909090909 2.90909090909091  L 7.45454545454545 2.90909090909091  C 7.60606060606061 2.90909090909091  7.73484848484849 2.96212121212121  7.84090909090909 3.06818181818182  Z " fill-rule="nonzero" fill="#000000" stroke="none" transform="matrix(1 0 0 1 502 210 )" />
  </g>
</svg>