<?xml version="1.0" encoding="utf-8"?>
<svg version="1.1" xmlns:xlink="http://www.w3.org/1999/xlink" width="46px" height="46px" xmlns="http://www.w3.org/2000/svg">
  <g transform="matrix(1 0 0 1 -697 -349 )">
    <path d="M 35.84765625 26.2643229166667  C 36.2269965277778 25.8849826388889  36.4166666666667 25.4357638888889  36.4166666666667 24.9166666666667  L 36.4166666666667 21.0833333333333  C 36.4166666666667 20.5642361111111  36.2269965277778 20.1150173611111  35.84765625 19.7356770833333  C 35.4683159722222 19.3563368055556  35.0190972222222 19.1666666666667  34.5 20  L 11.5 20  C 10.9809027777778 19.1666666666667  10.5316840277778 19.3563368055556  10.15234375 19.7356770833333  C 9.77300347222222 20.1150173611111  9.58333333333333 20.5642361111111  9.58333333333333 21.0833333333333  L 9.58333333333333 24.9166666666667  C 9.58333333333333 25.4357638888889  9.77300347222222 25.8849826388889  10.15234375 26.2643229166667  C 10.5316840277778 26.6436631944444  10.9809027777778 26.8333333333333  11.5 26  L 34.5 26  C 35.0190972222222 26.8333333333333  35.4683159722222 26.6436631944444  35.84765625 26.2643229166667  Z M 42.9153645833333 11.455078125  C 44.9717881944444 14.9789496527778  46 18.8272569444444  46 23  C 46 27.1727430555556  44.9717881944444 31.0210503472222  42.9153645833333 34.544921875  C 40.8589409722222 38.0687934027778  38.0687934027778 40.8589409722222  34.544921875 42.9153645833333  C 31.0210503472222 44.9717881944445  27.1727430555556 46  23 46  C 18.8272569444444 46  14.9789496527778 44.9717881944445  11.455078125 42.9153645833333  C 7.93120659722222 40.8589409722222  5.14105902777778 38.0687934027778  3.08463541666667 34.544921875  C 1.02821180555556 31.0210503472222  0 27.1727430555556  0 23  C 0 18.8272569444444  1.02821180555556 14.9789496527778  3.08463541666667 11.455078125  C 5.14105902777778 7.93120659722222  7.93120659722222 5.14105902777777  11.455078125 3.08463541666667  C 14.9789496527778 1.02821180555555  18.8272569444444 0  23 0  C 27.1727430555556 0  31.0210503472222 1.02821180555555  34.544921875 3.08463541666667  C 38.0687934027778 5.14105902777777  40.8589409722222 7.93120659722222  42.9153645833333 11.455078125  Z " fill-rule="nonzero" fill="#8a8888" stroke="none" transform="matrix(1 0 0 1 697 349 )" />
  </g>
</svg>