<?xml version="1.0" encoding="utf-8"?>
<svg version="1.1" xmlns:xlink="http://www.w3.org/1999/xlink" width="23px" height="19px" xmlns="http://www.w3.org/2000/svg">
  <g transform="matrix(1 0 0 1 -261 -4500 )">
    <path d="M 13.0175389755011 15.9684495192308  C 13.0986451373422 15.8961338141026  13.1391982182628 15.8066907051282  13.1391982182628 15.7001201923077  L 13.1391982182628 13.5306490384615  C 13.1391982182628 13.424078525641  13.0986451373422 13.3346354166667  13.0175389755011 13.2623197115385  C 12.93643281366 13.1900040064103  12.8403860430587 13.1538461538462  12.7293986636971 13.1538461538462  L 10.2706013363029 13.1538461538462  C 10.1596139569414 13.1538461538462  10.06356718634 13.1900040064103  9.98246102449889 13.2623197115385  C 9.90135486265776 13.3346354166667  9.86080178173719 13.424078525641  9.86080178173719 13.5306490384615  L 9.86080178173719 15.7001201923077  C 9.86080178173719 15.8066907051282  9.90135486265776 15.8961338141026  9.98246102449889 15.9684495192308  C 10.06356718634 16.040765224359  10.1596139569414 16.0769230769231  10.2706013363029 16.0769230769231  L 12.7293986636971 16.0769230769231  C 12.8403860430587 16.0769230769231  12.93643281366 16.040765224359  13.0175389755011 15.9684495192308  Z M 12.9791202672606 11.6180889423077  C 13.0602264291017 11.568609775641  13.1050482553823 11.5058092948718  13.1135857461024 11.4296875  L 13.3440979955457 6.18870192307692  C 13.3440979955457 6.09735576923077  13.3014105419451 6.02504006410256  13.2160356347439 5.97175480769231  C 13.1050482553823 5.88802083333333  13.0025983667409 5.84615384615385  12.9086859688196 5.84615384615385  L 10.0913140311804 5.84615384615385  C 9.9974016332591 5.84615384615385  9.89495174461767 5.88802083333333  9.78396436525613 5.97175480769231  C 9.69858945805494 6.02504006410256  9.65590200445434 6.10496794871795  9.65590200445434 6.21153846153846  L 9.87360801781737 11.4296875  C 9.87360801781737 11.5058092948718  9.91629547141797 11.568609775641  10.0016703786192 11.6180889423077  C 10.0870452858203 11.6675681089744  10.1894951744618 11.6923076923077  10.3090200445434 11.6923076923077  L 12.6781737193764 11.6923076923077  C 12.7976985894581 11.6923076923077  12.8980141054195 11.6675681089744  12.9791202672606 11.6180889423077  Z M 12.3324053452116 0.205528846153846  C 12.5885300668151 0.342548076923077  12.7891610987379 0.529046474358973  12.93429844098 0.765024038461539  L 22.7694877505568 16.8419471153846  C 23.068299925761 17.3215144230769  23.0597624350408 17.8010817307692  22.7438752783964 18.2806490384615  C 22.5987379361544 18.5014022435897  22.4002412769117 18.6764823717949  22.1483853006682 18.8058894230769  C 21.8965293244246 18.935296474359  21.6254639940609 19  21.3351893095768 19  L 1.66481069042316 19  C 1.37453600593912 19  1.10347067557535 18.935296474359  0.851614699331849 18.8058894230769  C 0.599758723088344 18.6764823717949  0.401262063845583 18.5014022435897  0.256124721603563 18.2806490384615  C -0.0597624350408315 17.8010817307692  -0.0682999257609503 17.3215144230769  0.230512249443207 16.8419471153846  L 10.06570155902 0.765024038461539  C 10.2108389012621 0.529046474358973  10.4114699331849 0.342548076923077  10.6675946547884 0.205528846153846  C 10.923719376392 0.0685096153846162  11.2011878247958 0  11.5 0  C 11.7988121752042 0  12.076280623608 0.0685096153846162  12.3324053452116 0.205528846153846  Z " fill-rule="nonzero" fill="#d79f0f" stroke="none" transform="matrix(1 0 0 1 261 4500 )" />
  </g>
</svg>