<?xml version="1.0" encoding="utf-8"?>
<svg version="1.1" xmlns:xlink="http://www.w3.org/1999/xlink" width="95px" height="128px" xmlns="http://www.w3.org/2000/svg">
  <defs>
    <mask fill="white" id="clip30">
      <path d="M 31.7021276595744 127.319148936171  L 0.851063829787336 127.319148936171  L 0.851063829787336 19.8723404255325  L 94.4680851063831 0.72340425531911  L 81 19.8723404255325  L 81 77.3191489361707  L 31.7021276595744 127.319148936171  Z " fill-rule="evenodd" />
    </mask>
  </defs>
  <g transform="matrix(1 0 0 1 -524 -4777 )">
    <path d="M 31.7021276595744 127.319148936171  L 0.851063829787336 127.319148936171  L 0.851063829787336 19.8723404255325  L 94.4680851063831 0.72340425531911  L 81 19.8723404255325  L 81 77.3191489361707  L 31.7021276595744 127.319148936171  Z " fill-rule="nonzero" fill="#0971ec" stroke="none" fill-opacity="0.407843137254902" transform="matrix(1 0 0 1 524 4777 )" />
    <path d="M 31.7021276595744 127.319148936171  L 0.851063829787336 127.319148936171  L 0.851063829787336 19.8723404255325  L 94.4680851063831 0.72340425531911  L 81 19.8723404255325  L 81 77.3191489361707  L 31.7021276595744 127.319148936171  Z " stroke-width="4" stroke="#0971ec" fill="none" transform="matrix(1 0 0 1 524 4777 )" mask="url(#clip30)" />
  </g>
</svg>