<?xml version="1.0" encoding="utf-8"?>
<svg version="1.1" xmlns:xlink="http://www.w3.org/1999/xlink" width="7px" height="25px" xmlns="http://www.w3.org/2000/svg">
  <g transform="matrix(1 0 0 1 -1765 -950 )">
    <path d="M 6.48958333333333 18.6789772727273  C 6.82986111111111 19.0104166666667  7 19.4128787878788  7 19.8863636363636  L 7 23.2954545454545  C 7 23.7689393939394  6.82986111111111 24.1714015151515  6.48958333333333 24.5028409090909  C 6.14930555555556 24.8342803030303  5.73611111111111 25  5.25 25  L 1.75 25  C 1.26388888888889 25  0.850694444444445 24.8342803030303  0.510416666666667 24.5028409090909  C 0.170138888888889 24.1714015151515  0 23.7689393939394  0 23.2954545454545  L 0 19.8863636363636  C 0 19.4128787878788  0.170138888888889 19.0104166666667  0.510416666666667 18.6789772727273  C 0.850694444444445 18.3475378787879  1.26388888888889 18.1818181818182  1.75 18.1818181818182  L 5.25 18.1818181818182  C 5.73611111111111 18.1818181818182  6.14930555555556 18.3475378787879  6.48958333333333 18.6789772727273  Z M 6.48958333333333 9.58806818181818  C 6.82986111111111 9.91950757575757  7 10.3219696969697  7 10.7954545454545  L 7 14.2045454545455  C 7 14.6780303030303  6.82986111111111 15.0804924242424  6.48958333333333 15.4119318181818  C 6.14930555555556 15.7433712121212  5.73611111111111 15.9090909090909  5.25 15.9090909090909  L 1.75 15.9090909090909  C 1.26388888888889 15.9090909090909  0.850694444444445 15.7433712121212  0.510416666666667 15.4119318181818  C 0.170138888888889 15.0804924242424  0 14.6780303030303  0 14.2045454545455  L 0 10.7954545454545  C 0 10.3219696969697  0.170138888888889 9.91950757575757  0.510416666666667 9.58806818181818  C 0.850694444444445 9.25662878787879  1.26388888888889 9.09090909090909  1.75 9.09090909090909  L 5.25 9.09090909090909  C 5.73611111111111 9.09090909090909  6.14930555555556 9.25662878787879  6.48958333333333 9.58806818181818  Z M 6.48958333333333 0.497159090909091  C 6.82986111111111 0.828598484848483  7 1.23106060606061  7 1.70454545454546  L 7 5.11363636363637  C 7 5.58712121212121  6.82986111111111 5.98958333333333  6.48958333333333 6.32102272727273  C 6.14930555555556 6.65246212121212  5.73611111111111 6.81818181818182  5.25 6.81818181818182  L 1.75 6.81818181818182  C 1.26388888888889 6.81818181818182  0.850694444444445 6.65246212121212  0.510416666666667 6.32102272727273  C 0.170138888888889 5.98958333333333  0 5.58712121212121  0 5.11363636363637  L 0 1.70454545454546  C 0 1.23106060606061  0.170138888888889 0.828598484848483  0.510416666666667 0.497159090909091  C 0.850694444444445 0.165719696969696  1.26388888888889 0  1.75 0  L 5.25 0  C 5.73611111111111 0  6.14930555555556 0.165719696969696  6.48958333333333 0.497159090909091  Z " fill-rule="nonzero" fill="#7f7f7f" stroke="none" transform="matrix(1 0 0 1 1765 950 )" />
  </g>
</svg>