<?xml version="1.0" encoding="utf-8"?>
<svg version="1.1" xmlns:xlink="http://www.w3.org/1999/xlink" width="94px" height="108px" xmlns="http://www.w3.org/2000/svg">
  <g transform="matrix(1 0 0 1 -196 -97 )">
    <path d="M 91.1134543269231 15.382125  C 89.7885291922906 14.1930039291452  88.0650322939228 13.5400282138503  86.2813798076923 13.5514125  L 85.7724014423077 13.5514125  C 85.6643918269231 13.5514125  84.5315336538462 13.6569375  82.7865456730769 13.6569375  C 79.80159375 13.6569375  74.1481490384615 13.4506125  68.7057524038462 12.1343625  C 61.7103221153846 10.5100875  53.5934447115385 2.882925  51.2266105769231 1.3602375  C 50.0918317307692 0.643162499999999  48.6534735576923 0.2399625  47.3181538461538 0.2399625  C 45.9809134615385 0.2399625  44.6495480769231 0.6431625  43.4096971153846 1.36035  C 43.1147043269231 1.56195  34.6864519230769 10.197225  26.4625817307692 12.134475  C 21.0135192307692 13.4496  15.1509471153846 13.65795  12.2740048076923 13.65795  C 10.4267692307692 13.65795  9.29492788461539 13.5514125  9.1917764423077 13.5514125  L 8.78391586538462 13.5514125  C 6.93283894230769 13.5514125  5.28422355769231 14.1676875  3.95285817307693 15.382125  C 2.52235065361552 16.6059294100012  1.6956879299971 18.3877136792137  2 20.2656375  L 2 37.1327625  C 1.68714182692308 99.3263625  44.3496971153846 107.3509875  46.09378125 107.6592375  C 46.5083076923077 107.7600375  46.9209134615385 107.7600375  47.3286610576923 107.7600375  C 47.7365216346154 107.7600375  48.15590625 107.7600375  48.5637668269231 107.6592375  C 50.4099855769231 107.352  93.2769230769231 99.32625  93 37.1327625  L 93 20.26575  C 93.2769230769231 18.4350375  92.4496778846154 16.6033125  91.1192163461538 15.382125  L 91.1135673076923 15.382125  Z M 75.2819110576923 39.473325  L 45.7775480769231 67.720275  C 45.5730528846154 68.0275125  45.3696875 68.33565  45.0572956730769 68.53725  C 44.2297940332204 69.3286750348385  43.1233940723829 69.7650778412085  41.9760841346154 69.7525875  C 40.7996726967103 69.7500999481877  39.6651194965004 69.3176257253011  38.7877668269231 68.53725  C 38.5270417593949 68.3108375268461  38.3168618457711 68.0325310763401  38.1707788461538 67.720275  L 22.3430769230769 52.577325  C 21.5547400488925 51.8185397180376  21.109396872263 50.773678074604  21.1089879807692 49.6819125  C 21.1093608084239 48.590435226385  21.5547316043985 47.545874184084  22.3430769230769 46.7875125  C 23.9858173076923 45.1632375  26.7615288461538 45.1632375  28.4044951923077 46.7875125  L 41.9750673076923 59.6946375  L 69.2206057692308 33.677775  C 70.9657067307692 32.0533875  73.6381538461538 32.0533875  75.2808942307692 33.677775  C 76.1141718234328 34.4126262774229  76.5914958775663 35.4676405268849  76.5921490384615 36.576  C 76.5921490384615 37.681875  76.1159350961538 38.736  75.2810072115385 39.473325  Z " fill-rule="nonzero" fill="#bfbfbf" stroke="none" transform="matrix(1 0 0 1 196 97 )" />
  </g>
</svg>