<?xml version="1.0" encoding="utf-8"?>
<svg version="1.1" xmlns:xlink="http://www.w3.org/1999/xlink" width="890px" height="141px" xmlns="http://www.w3.org/2000/svg">
  <g transform="matrix(1 0 0 1 -283 -1805 )">
    <path d="M 881.63492063492 138  L 0.682539682539698 138  C -4.66490479973589 123.687331024245  47.7019474872228 120.244259574039  96.1702127659574 86.8833250865908  C 157.954290093872 44.3570546651012  135.938400629814 3.36086945976282  195.106382978723 0.163879267689238  C 246.076871638975 -2.59018037509366  231.378462333287 55.8465570949504  291.914893617021 65.0327560613558  C 344.775977564353 73.05424699537  343.006575836439 29.3139826457287  396.170212765957 37.0367144977734  C 454.302925671124 45.4812713326205  429.933793544695 80.7924789708064  489.787234042553 97.8086095992083  C 536.424950109561 111.067554485341  531.872210573468 92.3325795357063  583.404255319149 97.8086095992083  C 639.179829463255 103.735576447303  639.409788556668 132.747327919447  681.276595744681 118.976348342405  C 751.984659191428 95.7187998676759  717.626209870822 1.19256582903699  768.510638297872 0.163879267689238  C 829.426030014339 -1.06759461882202  907.321656707203 99.405886194953  881.63492063492 138  Z " fill-rule="nonzero" fill="#81d3f8" stroke="none" transform="matrix(1 0 0 1 284 1806 )" />
    <path d="M 0.682539682539698 138  C -4.66490479973589 123.687331024245  47.7019474872228 120.244259574039  96.1702127659574 86.8833250865908  C 157.954290093872 44.3570546651012  135.938400629814 3.36086945976282  195.106382978723 0.163879267689238  C 246.076871638975 -2.59018037509366  231.378462333287 55.8465570949504  291.914893617021 65.0327560613558  C 344.775977564353 73.05424699537  343.006575836439 29.3139826457287  396.170212765957 37.0367144977734  C 454.302925671124 45.4812713326205  429.933793544695 80.7924789708064  489.787234042553 97.8086095992083  C 536.424950109561 111.067554485341  531.872210573468 92.3325795357063  583.404255319149 97.8086095992083  C 639.179829463255 103.735576447303  639.409788556668 132.747327919447  681.276595744681 118.976348342405  C 751.984659191428 95.7187998676759  717.626209870822 1.19256582903699  768.510638297872 0.163879267689238  C 829.426030014339 -1.06759461882202  907.321656707203 99.405886194953  881.63492063492 138  " stroke-width="2" stroke="#02a7f0" fill="none" transform="matrix(1 0 0 1 284 1806 )" />
  </g>
</svg>