<?xml version="1.0" encoding="utf-8"?>
<svg version="1.1" xmlns:xlink="http://www.w3.org/1999/xlink" width="421px" height="141px" xmlns="http://www.w3.org/2000/svg">
  <g transform="matrix(1 0 0 1 -785 -2842 )">
    <path d="M 0.321647787262225 138  C -2.19834296086765 123.687331024245  22.4796099770678 120.244259574039  45.3203482933148 86.8833250865908  C 74.4361818029745 44.3570546651012  64.0611628672628 3.36086945976282  91.9441579313488 0.163879267689238  C 115.964072542381 -2.59018037509366  109.03742644342 55.8465570949504  137.565304996522 65.0327560613558  C 162.476165300901 73.05424699537  161.642332243102 29.3139826457287  186.695771066708 37.0367144977734  C 214.090893946482 45.4812713326205  202.606906089834 80.7924789708064  230.81292427259 97.8086095992083  C 252.791013693119 111.067554485341  250.645528770811 92.3325795357063  274.930077478472 97.8086095992083  C 301.214395395311 103.735576447303  301.32276394215 132.747327919447  321.052555830075 118.976348342405  C 354.373830374314 95.7187998676759  338.182362712518 1.19256582903699  362.161721317374 0.163879267689238  C 390.868185508448 -1.06759461882202  427.576609361455 99.405886194953  415.471698788497 138  " stroke-width="2" stroke="#4b7902" fill="none" transform="matrix(1 0 0 1 786 2843 )" />
  </g>
</svg>