<?xml version="1.0" encoding="utf-8"?>
<svg version="1.1" xmlns:xlink="http://www.w3.org/1999/xlink" width="16px" height="16px" xmlns="http://www.w3.org/2000/svg">
  <g transform="matrix(1 0 0 1 -1772 -24 )">
    <path d="M 1.868437203125 1.86812540625  L 4.770725453125 1.86812540625  C 5.021883171875 1.86812540625  5.22828721875 1.662904546875  5.22828721875 1.409956046875  C 5.22828721875 1.155216765625  5.023386140625 0.951802671875  4.770725453125 0.951802671875  L 1.40967625 0.951802671875  C 1.284097390625 0.951802671875  1.16985484375 1.003095890625  1.0869350625 1.086031671875  C 1.00281609375 1.1689674375  0.952098484374999 1.283209984375  0.952098484374999 1.4093804375  L 0.952098484375 4.77041365625  C 0.952098484375 5.021571375  1.15731934375 5.227975421875  1.410251859375 5.227975421875  C 1.664991140625 5.227975421875  1.86842121875 5.023058359375  1.86842121875 4.77041365625  L 1.868421203125 1.86812540625  Z M 14.086105625 1.86812540625  L 11.183817375 1.86812540625  C 10.932355859375 1.86812540625  10.726255609375 1.662904546875  10.726255609375 1.409956046875  C 10.726255609375 1.155216765625  10.931172671875 0.951802671875  11.183817375 0.951802671875  L 14.544866578125 0.951802671875  C 14.6704454375 0.951802671875  14.784687984375 1.003095890625  14.867607765625 1.086031671875  C 14.95174271875 1.1689674375  15.00244434375 1.283209984375  15.00244434375 1.4093804375  L 15.00244434375 4.77041365625  C 15.00244434375 5.021571375  14.797223484375 5.227975421875  14.54429096875 5.227975421875  C 14.2895516875 5.227975421875  14.086121609375 5.023058359375  14.086121609375 4.77041365625  L 14.086121609375 1.86812540625  Z M 1.868437203125 14.08577784375  L 4.770725453125 14.08577784375  C 5.021883171875 14.08577784375  5.22828721875 14.29098271875  5.22828721875 14.54393121875  C 5.22828721875 14.7986705  5.023386140625 15.00208459375  4.770725453125 15.00208459375  L 1.40967625 15.00208459375  C 1.284097390625 15.00208459375  1.16985484375 14.950775375  1.0869350625 14.86785559375  C 1.00281609375 14.7849358125  0.952098484374999 14.67067728125  0.952098484374999 14.544506828125  L 0.952098484375 11.183505578125  C 0.952098484375 10.932331875  1.15731934375 10.725911828125  1.410251859375 10.725911828125  C 1.664991140625 10.725911828125  1.86842121875 10.930828890625  1.86842121875 11.183505578125  L 1.868421203125 14.08577784375  Z M 14.086105625 14.08577784375  L 11.183817375 14.08577784375  C 10.932355859375 14.08577784375  10.726255609375 14.29098271875  10.726255609375 14.54393121875  C 10.726255609375 14.7986705  10.931172671875 15.00208459375  11.183817375 15.00208459375  L 14.544866578125 15.00208459375  C 14.6704454375 15.00208459375  14.784687984375 14.950775375  14.867607765625 14.86785559375  C 14.95174271875 14.7849358125  15.00244434375 14.67067728125  15.00244434375 14.544506828125  L 15.00244434375 11.183505578125  C 15.00244434375 10.932331875  14.797223484375 10.725911828125  14.54429096875 10.725911828125  C 14.2895516875 10.725911828125  14.086121609375 10.930828890625  14.086121609375 11.183505578125  L 14.086121609375 14.08577784375  Z " fill-rule="nonzero" fill="#ffffff" stroke="none" transform="matrix(1 0 0 1 1772 24 )" />
  </g>
</svg>