<?xml version="1.0" encoding="utf-8"?>
<svg version="1.1" xmlns:xlink="http://www.w3.org/1999/xlink" width="28px" height="28px" xmlns="http://www.w3.org/2000/svg">
  <g transform="matrix(1 0 0 1 -629 -3496 )">
    <path d="M 27.9403409090909 21.6960227272727  C 27.9801136363636 21.7888257575758  28 21.9280303030303  28 22.1136363636364  C 28 22.4715909090909  27.9337121212121 22.9389204545455  27.8011363636364 23.515625  C 27.6685606060606 24.0923295454545  27.5293560606061 24.5464015151515  27.3835227272727 24.8778409090909  C 27.1051136363636 25.5407196969697  26.2964015151515 26.2433712121212  24.9573863636364 26.9857954545455  C 23.7111742424242 27.6619318181818  22.4782196969697 28  21.2585227272727 28  C 20.9005681818182 28  20.5492424242424 27.9767992424242  20.2045454545455 27.9303977272727  C 19.8598484848485 27.8839962121212  19.4786931818182 27.8011363636364  19.0610795454545 27.6818181818182  C 18.6434659090909 27.5625  18.3319128787879 27.4663825757576  18.1264204545455 27.3934659090909  C 17.920928030303 27.3205492424242  17.5530303030303 27.1846590909091  17.0227272727273 26.9857954545455  C 16.4924242424242 26.7869318181818  16.1676136363636 26.6676136363636  16.0482954545455 26.6278409090909  C 14.749053030303 26.1638257575758  13.5890151515152 25.6136363636364  12.5681818181818 24.9772727272727  C 10.8844696969697 23.9299242424242  9.1344696969697 22.4981060606061  7.31818181818182 20.6818181818182  C 5.50189393939394 18.8655303030303  4.07007575757576 17.1155303030303  3.02272727272727 15.4318181818182  C 2.38636363636364 14.4109848484848  1.83617424242424 13.250946969697  1.37215909090909 11.9517045454545  C 1.33238636363636 11.8323863636364  1.21306818181818 11.5075757575758  1.01420454545455 10.9772727272727  C 0.815340909090909 10.4469696969697  0.679450757575758 10.079071969697  0.606534090909091 9.87357954545455  C 0.533617424242424 9.66808712121212  0.4375 9.35653409090909  0.318181818181818 8.93892045454545  C 0.198863636363636 8.52130681818181  0.116003787878788 8.14015151515151  0.0696022727272727 7.79545454545455  C 0.0232007575757576 7.45075757575757  0 7.09943181818182  0 6.74147727272727  C 0 5.5217803030303  0.338068181818182 4.28882575757576  1.01420454545455 3.04261363636364  C 1.75662878787879 1.70359848484848  2.4592803030303 0.894886363636364  3.12215909090909 0.616477272727272  C 3.45359848484849 0.470643939393937  3.90767045454545 0.331439393939391  4.484375 0.198863636363636  C 5.06107954545455 0.0662878787878776  5.52840909090909 0  5.88636363636364 0  C 6.0719696969697 0  6.21117424242424 0.0198863636363642  6.30397727272727 0.0596590909090895  C 6.54261363636364 0.139204545454546  6.89393939393939 0.642992424242424  7.35795454545455 1.57102272727273  C 7.50378787878788 1.82291666666666  7.70265151515152 2.18087121212121  7.95454545454546 2.64488636363636  C 8.20643939393939 3.10890151515151  8.43844696969697 3.52982954545455  8.65056818181818 3.90767045454545  C 8.86268939393939 4.28551136363636  9.06818181818182 4.64015151515151  9.26704545454546 4.97159090909091  C 9.30681818181818 5.02462121212121  9.42282196969697 5.19034090909091  9.61505681818182 5.46875  C 9.80729166666667 5.74715909090909  9.94981060606061 5.98248106060606  10.0426136363636 6.17471590909091  C 10.1354166666667 6.36695075757576  10.1818181818182 6.55587121212121  10.1818181818182 6.74147727272727  C 10.1818181818182 7.00662878787879  9.99289772727273 7.33806818181818  9.61505681818182 7.73579545454545  C 9.23721590909091 8.13352272727273  8.82623106060606 8.49810606060606  8.38210227272727 8.82954545454545  C 7.93797348484849 9.16098484848484  7.52698863636364 9.51231060606061  7.14914772727273 9.88352272727273  C 6.77130681818182 10.2547348484848  6.58238636363636 10.5596590909091  6.58238636363636 10.7982954545455  C 6.58238636363636 10.9176136363636  6.6155303030303 11.0667613636364  6.68181818181818 11.2457386363636  C 6.74810606060606 11.4247159090909  6.80445075757576 11.5606060606061  6.85085227272727 11.6534090909091  C 6.89725378787879 11.7462121212121  6.99005681818182 11.905303030303  7.12926136363636 12.1306818181818  C 7.26846590909091 12.3560606060606  7.34469696969697 12.4820075757576  7.35795454545455 12.5085227272727  C 8.3655303030303 14.3248106060606  9.51893939393939 15.8825757575758  10.8181818181818 17.1818181818182  C 12.1174242424242 18.4810606060606  13.6751893939394 19.6344696969697  15.4914772727273 20.6420454545455  C 15.5179924242424 20.655303030303  15.6439393939394 20.7315340909091  15.8693181818182 20.8707386363636  C 16.094696969697 21.0099431818182  16.2537878787879 21.1027462121212  16.3465909090909 21.1491477272727  C 16.4393939393939 21.1955492424242  16.5752840909091 21.2518939393939  16.7542613636364 21.3181818181818  C 16.9332386363636 21.3844696969697  17.0823863636364 21.4176136363636  17.2017045454545 21.4176136363636  C 17.4403409090909 21.4176136363636  17.7452651515152 21.2286931818182  18.1164772727273 20.8508522727273  C 18.4876893939394 20.4730113636364  18.8390151515152 20.0620265151515  19.1704545454545 19.6178977272727  C 19.5018939393939 19.1737689393939  19.8664772727273 18.7627840909091  20.2642045454545 18.3849431818182  C 20.6619318181818 18.0071022727273  20.9933712121212 17.8181818181818  21.2585227272727 17.8181818181818  C 21.4441287878788 17.8181818181818  21.6330492424242 17.8645833333333  21.8252840909091 17.9573863636364  C 22.0175189393939 18.0501893939394  22.2528409090909 18.1927083333333  22.53125 18.3849431818182  C 22.8096590909091 18.577178030303  22.9753787878788 18.6931818181818  23.0284090909091 18.7329545454545  C 23.3598484848485 18.9318181818182  23.7144886363636 19.1373106060606  24.0923295454545 19.3494318181818  C 24.4701704545455 19.561553030303  24.8910984848485 19.7935606060606  25.3551136363636 20.0454545454545  C 25.8191287878788 20.2973484848485  26.1770833333333 20.4962121212121  26.4289772727273 20.6420454545455  C 27.3570075757576 21.1060606060606  27.8607954545455 21.4573863636364  27.9403409090909 21.6960227272727  Z " fill-rule="nonzero" fill="#f6f6f6" stroke="none" transform="matrix(1 0 0 1 629 3496 )" />
  </g>
</svg>