<?xml version="1.0" encoding="utf-8"?>
<svg version="1.1" xmlns:xlink="http://www.w3.org/1999/xlink" width="40px" height="40px" xmlns="http://www.w3.org/2000/svg">
  <defs>
    <filter x="143px" y="3215px" width="40px" height="40px" filterUnits="userSpaceOnUse" id="filter31">
      <feOffset dx="1" dy="1" in="SourceAlpha" result="shadowOffsetInner" />
      <feGaussianBlur stdDeviation="2.5" in="shadowOffsetInner" result="shadowGaussian" />
      <feComposite in2="shadowGaussian" operator="atop" in="SourceAlpha" result="shadowComposite" />
      <feColorMatrix type="matrix" values="0 0 0 0 0  0 0 0 0 0  0 0 0 0 0  0 0 0 0.698039215686274 0  " in="shadowComposite" />
    </filter>
    <g id="widget32">
      <path d="M 162 3219  C 170.4 3219  177 3225.6  177 3234  C 177 3242.4  170.4 3249  162 3249  C 153.6 3249  147 3242.4  147 3234  C 147 3225.6  153.6 3219  162 3219  Z " fill-rule="nonzero" fill="#009dd9" stroke="none" />
      <path d="M 162 3219.5  C 170.12 3219.5  176.5 3225.88  176.5 3234  C 176.5 3242.12  170.12 3248.5  162 3248.5  C 153.88 3248.5  147.5 3242.12  147.5 3234  C 147.5 3225.88  153.88 3219.5  162 3219.5  Z " stroke-width="1" stroke="#ffffff" fill="none" />
    </g>
  </defs>
  <g transform="matrix(1 0 0 1 -143 -3215 )">
    <use xlink:href="#widget32" filter="url(#filter31)" />
    <use xlink:href="#widget32" />
  </g>
</svg>