<?xml version="1.0" encoding="utf-8"?>
<svg version="1.1" xmlns:xlink="http://www.w3.org/1999/xlink" width="12px" height="12px" viewBox="584 641.5  12 12" xmlns="http://www.w3.org/2000/svg">
  <path d="M 590 641.5  C 593.36 641.5  596 644.14  596 647.5  C 596 650.86  593.36 653.5  590 653.5  C 586.64 653.5  584 650.86  584 647.5  C 584 644.14  586.64 641.5  590 641.5  Z " fill-rule="nonzero" fill="#f0f0f0" stroke="none" />
  <path d="M 590 642  C 593.08 642  595.5 644.42  595.5 647.5  C 595.5 650.58  593.08 653  590 653  C 586.92 653  584.5 650.58  584.5 647.5  C 584.5 644.42  586.92 642  590 642  Z " stroke-width="1" stroke="#797979" fill="none" />
  <path d="M 590 650.5  C 588.32 650.5  587 649.18  587 647.5  C 587 645.82  588.32 644.5  590 644.5  C 591.68 644.5  593 645.82  593 647.5  C 593 649.18  591.68 650.5  590 650.5  " fill-rule="nonzero" fill="#797979" stroke="none" />
</svg>