<?xml version="1.0" encoding="utf-8"?>
<svg version="1.1" xmlns:xlink="http://www.w3.org/1999/xlink" width="112px" height="112px" xmlns="http://www.w3.org/2000/svg">
  <g transform="matrix(1 0 0 1 -1413 -87 )">
    <path d="M 1469 94  C 1496.44 94  1518 115.56  1518 143  C 1518 170.44  1496.44 192  1469 192  C 1441.56 192  1420 170.44  1420 143  C 1420 115.56  1441.56 94  1469 94  Z " fill-rule="nonzero" fill="#ffffff" stroke="none" />
    <path d="M 1469 91  C 1498.12 91  1521 113.88  1521 143  C 1521 172.12  1498.12 195  1469 195  C 1439.88 195  1417 172.12  1417 143  C 1417 113.88  1439.88 91  1469 91  Z " stroke-width="8" stroke="#0664f0" fill="none" />
  </g>
</svg>