<?xml version="1.0" encoding="utf-8"?>
<svg version="1.1" xmlns:xlink="http://www.w3.org/1999/xlink" width="112px" height="112px" xmlns="http://www.w3.org/2000/svg">
  <g transform="matrix(1 0 0 1 -1585 -87 )">
    <path d="M 1641 94  C 1668.44 94  1690 115.56  1690 143  C 1690 170.44  1668.44 192  1641 192  C 1613.56 192  1592 170.44  1592 143  C 1592 115.56  1613.56 94  1641 94  Z " fill-rule="nonzero" fill="#ffffff" stroke="none" />
    <path d="M 1641 91  C 1670.12 91  1693 113.88  1693 143  C 1693 172.12  1670.12 195  1641 195  C 1611.88 195  1589 172.12  1589 143  C 1589 113.88  1611.88 91  1641 91  Z " stroke-width="8" stroke="#757373" fill="none" />
  </g>
</svg>