<?xml version="1.0" encoding="utf-8"?>
<svg version="1.1" xmlns:xlink="http://www.w3.org/1999/xlink" width="12px" height="12px" viewBox="2453 1568  12 12" xmlns="http://www.w3.org/2000/svg">
  <path d="M 2459 1568  C 2462.36 1568  2465 1570.64  2465 1574  C 2465 1577.36  2462.36 1580  2459 1580  C 2455.64 1580  2453 1577.36  2453 1574  C 2453 1570.64  2455.64 1568  2459 1568  Z " fill-rule="nonzero" fill="#f0f0f0" stroke="none" />
  <path d="M 2459 1568.5  C 2462.08 1568.5  2464.5 1570.92  2464.5 1574  C 2464.5 1577.08  2462.08 1579.5  2459 1579.5  C 2455.92 1579.5  2453.5 1577.08  2453.5 1574  C 2453.5 1570.92  2455.92 1568.5  2459 1568.5  Z " stroke-width="1" stroke="#797979" fill="none" />
  <path d="M 2459 1577  C 2457.32 1577  2456 1575.68  2456 1574  C 2456 1572.32  2457.32 1571  2459 1571  C 2460.68 1571  2462 1572.32  2462 1574  C 2462 1575.68  2460.68 1577  2459 1577  " fill-rule="nonzero" fill="#797979" stroke="none" />
</svg>