<?xml version="1.0" encoding="utf-8"?>
<svg version="1.1" xmlns:xlink="http://www.w3.org/1999/xlink" width="12px" height="12px" viewBox="2453 1628  12 12" xmlns="http://www.w3.org/2000/svg">
  <path d="M 2459 1628  C 2462.36 1628  2465 1630.64  2465 1634  C 2465 1637.36  2462.36 1640  2459 1640  C 2455.64 1640  2453 1637.36  2453 1634  C 2453 1630.64  2455.64 1628  2459 1628  Z " fill-rule="nonzero" fill="#ffffff" stroke="none" />
  <path d="M 2459 1628.5  C 2462.08 1628.5  2464.5 1630.92  2464.5 1634  C 2464.5 1637.08  2462.08 1639.5  2459 1639.5  C 2455.92 1639.5  2453.5 1637.08  2453.5 1634  C 2453.5 1630.92  2455.92 1628.5  2459 1628.5  Z " stroke-width="1" stroke="#797979" fill="none" />
  <path d="M 2459 1637  C 2457.32 1637  2456 1635.68  2456 1634  C 2456 1632.32  2457.32 1631  2459 1631  C 2460.68 1631  2462 1632.32  2462 1634  C 2462 1635.68  2460.68 1637  2459 1637  " fill-rule="nonzero" fill="#797979" stroke="none" />
</svg>