<?xml version="1.0" encoding="utf-8"?>
<svg version="1.1" xmlns:xlink="http://www.w3.org/1999/xlink" width="12px" height="12px" viewBox="2453 1374.5  12 12" xmlns="http://www.w3.org/2000/svg">
  <path d="M 2459 1374.5  C 2462.36 1374.5  2465 1377.14  2465 1380.5  C 2465 1383.86  2462.36 1386.5  2459 1386.5  C 2455.64 1386.5  2453 1383.86  2453 1380.5  C 2453 1377.14  2455.64 1374.5  2459 1374.5  Z " fill-rule="nonzero" fill="#f0f0f0" stroke="none" />
  <path d="M 2459 1375  C 2462.08 1375  2464.5 1377.42  2464.5 1380.5  C 2464.5 1383.58  2462.08 1386  2459 1386  C 2455.92 1386  2453.5 1383.58  2453.5 1380.5  C 2453.5 1377.42  2455.92 1375  2459 1375  Z " stroke-width="1" stroke="#797979" fill="none" />
  <path d="M 2459 1383.5  C 2457.32 1383.5  2456 1382.18  2456 1380.5  C 2456 1378.82  2457.32 1377.5  2459 1377.5  C 2460.68 1377.5  2462 1378.82  2462 1380.5  C 2462 1382.18  2460.68 1383.5  2459 1383.5  " fill-rule="nonzero" fill="#797979" stroke="none" />
</svg>