<?xml version="1.0" encoding="utf-8"?>
<svg version="1.1" xmlns:xlink="http://www.w3.org/1999/xlink" width="12px" height="12px" viewBox="2453 1501  12 12" xmlns="http://www.w3.org/2000/svg">
  <path d="M 2459 1501  C 2462.36 1501  2465 1503.64  2465 1507  C 2465 1510.36  2462.36 1513  2459 1513  C 2455.64 1513  2453 1510.36  2453 1507  C 2453 1503.64  2455.64 1501  2459 1501  Z " fill-rule="nonzero" fill="#f0f0f0" stroke="none" />
  <path d="M 2459 1501.5  C 2462.08 1501.5  2464.5 1503.92  2464.5 1507  C 2464.5 1510.08  2462.08 1512.5  2459 1512.5  C 2455.92 1512.5  2453.5 1510.08  2453.5 1507  C 2453.5 1503.92  2455.92 1501.5  2459 1501.5  Z " stroke-width="1" stroke="#797979" fill="none" />
  <path d="M 2459 1510  C 2457.32 1510  2456 1508.68  2456 1507  C 2456 1505.32  2457.32 1504  2459 1504  C 2460.68 1504  2462 1505.32  2462 1507  C 2462 1508.68  2460.68 1510  2459 1510  " fill-rule="nonzero" fill="#797979" stroke="none" />
</svg>