<?xml version="1.0" encoding="utf-8"?>
<svg version="1.1" xmlns:xlink="http://www.w3.org/1999/xlink" width="12px" height="12px" viewBox="3819 541.5  12 12" xmlns="http://www.w3.org/2000/svg">
  <path d="M 3825 541.5  C 3828.36 541.5  3831 544.14  3831 547.5  C 3831 550.86  3828.36 553.5  3825 553.5  C 3821.64 553.5  3819 550.86  3819 547.5  C 3819 544.14  3821.64 541.5  3825 541.5  Z " fill-rule="nonzero" fill="#f0f0f0" stroke="none" />
  <path d="M 3825 542  C 3828.08 542  3830.5 544.42  3830.5 547.5  C 3830.5 550.58  3828.08 553  3825 553  C 3821.92 553  3819.5 550.58  3819.5 547.5  C 3819.5 544.42  3821.92 542  3825 542  Z " stroke-width="1" stroke="#797979" fill="none" />
  <path d="M 3825 550.5  C 3823.32 550.5  3822 549.18  3822 547.5  C 3822 545.82  3823.32 544.5  3825 544.5  C 3826.68 544.5  3828 545.82  3828 547.5  C 3828 549.18  3826.68 550.5  3825 550.5  " fill-rule="nonzero" fill="#797979" stroke="none" />
</svg>