<?xml version="1.0" encoding="utf-8"?>
<svg version="1.1" xmlns:xlink="http://www.w3.org/1999/xlink" width="12px" height="12px" viewBox="3819 491.5  12 12" xmlns="http://www.w3.org/2000/svg">
  <path d="M 3825 491.5  C 3828.36 491.5  3831 494.14  3831 497.5  C 3831 500.86  3828.36 503.5  3825 503.5  C 3821.64 503.5  3819 500.86  3819 497.5  C 3819 494.14  3821.64 491.5  3825 491.5  Z " fill-rule="nonzero" fill="#ffffff" stroke="none" />
  <path d="M 3825 492  C 3828.08 492  3830.5 494.42  3830.5 497.5  C 3830.5 500.58  3828.08 503  3825 503  C 3821.92 503  3819.5 500.58  3819.5 497.5  C 3819.5 494.42  3821.92 492  3825 492  Z " stroke-width="1" stroke="#797979" fill="none" />
  <path d="M 3825 500.5  C 3823.32 500.5  3822 499.18  3822 497.5  C 3822 495.82  3823.32 494.5  3825 494.5  C 3826.68 494.5  3828 495.82  3828 497.5  C 3828 499.18  3826.68 500.5  3825 500.5  " fill-rule="nonzero" fill="#797979" stroke="none" />
</svg>