<?xml version="1.0" encoding="utf-8"?>
<svg version="1.1" xmlns:xlink="http://www.w3.org/1999/xlink" width="12px" height="12px" viewBox="3819 589.5  12 12" xmlns="http://www.w3.org/2000/svg">
  <path d="M 3825 589.5  C 3828.36 589.5  3831 592.14  3831 595.5  C 3831 598.86  3828.36 601.5  3825 601.5  C 3821.64 601.5  3819 598.86  3819 595.5  C 3819 592.14  3821.64 589.5  3825 589.5  Z " fill-rule="nonzero" fill="#ffffff" stroke="none" />
  <path d="M 3825 590  C 3828.08 590  3830.5 592.42  3830.5 595.5  C 3830.5 598.58  3828.08 601  3825 601  C 3821.92 601  3819.5 598.58  3819.5 595.5  C 3819.5 592.42  3821.92 590  3825 590  Z " stroke-width="1" stroke="#797979" fill="none" />
  <path d="M 3825 598.5  C 3823.32 598.5  3822 597.18  3822 595.5  C 3822 593.82  3823.32 592.5  3825 592.5  C 3826.68 592.5  3828 593.82  3828 595.5  C 3828 597.18  3826.68 598.5  3825 598.5  " fill-rule="nonzero" fill="#797979" stroke="none" />
</svg>