<?xml version="1.0" encoding="utf-8"?>
<svg version="1.1" xmlns:xlink="http://www.w3.org/1999/xlink" width="12px" height="12px" viewBox="3819 639.5  12 12" xmlns="http://www.w3.org/2000/svg">
  <path d="M 3825 639.5  C 3828.36 639.5  3831 642.14  3831 645.5  C 3831 648.86  3828.36 651.5  3825 651.5  C 3821.64 651.5  3819 648.86  3819 645.5  C 3819 642.14  3821.64 639.5  3825 639.5  Z " fill-rule="nonzero" fill="#ffffff" stroke="none" />
  <path d="M 3825 640  C 3828.08 640  3830.5 642.42  3830.5 645.5  C 3830.5 648.58  3828.08 651  3825 651  C 3821.92 651  3819.5 648.58  3819.5 645.5  C 3819.5 642.42  3821.92 640  3825 640  Z " stroke-width="1" stroke="#797979" fill="none" />
  <path d="M 3825 648.5  C 3823.32 648.5  3822 647.18  3822 645.5  C 3822 643.82  3823.32 642.5  3825 642.5  C 3826.68 642.5  3828 643.82  3828 645.5  C 3828 647.18  3826.68 648.5  3825 648.5  " fill-rule="nonzero" fill="#797979" stroke="none" />
</svg>