<?xml version="1.0" encoding="utf-8"?>
<svg version="1.1" xmlns:xlink="http://www.w3.org/1999/xlink" width="12px" height="12px" viewBox="4840 491.5  12 12" xmlns="http://www.w3.org/2000/svg">
  <path d="M 4846 491.5  C 4849.36 491.5  4852 494.14  4852 497.5  C 4852 500.86  4849.36 503.5  4846 503.5  C 4842.64 503.5  4840 500.86  4840 497.5  C 4840 494.14  4842.64 491.5  4846 491.5  Z " fill-rule="nonzero" fill="#ffffff" stroke="none" />
  <path d="M 4846 492  C 4849.08 492  4851.5 494.42  4851.5 497.5  C 4851.5 500.58  4849.08 503  4846 503  C 4842.92 503  4840.5 500.58  4840.5 497.5  C 4840.5 494.42  4842.92 492  4846 492  Z " stroke-width="1" stroke="#797979" fill="none" />
  <path d="M 4846 500.5  C 4844.32 500.5  4843 499.18  4843 497.5  C 4843 495.82  4844.32 494.5  4846 494.5  C 4847.68 494.5  4849 495.82  4849 497.5  C 4849 499.18  4847.68 500.5  4846 500.5  " fill-rule="nonzero" fill="#797979" stroke="none" />
</svg>