<?xml version="1.0" encoding="utf-8"?>
<svg version="1.1" xmlns:xlink="http://www.w3.org/1999/xlink" width="12px" height="12px" viewBox="4840 541.5  12 12" xmlns="http://www.w3.org/2000/svg">
  <path d="M 4846 541.5  C 4849.36 541.5  4852 544.14  4852 547.5  C 4852 550.86  4849.36 553.5  4846 553.5  C 4842.64 553.5  4840 550.86  4840 547.5  C 4840 544.14  4842.64 541.5  4846 541.5  Z " fill-rule="nonzero" fill="#f0f0f0" stroke="none" />
  <path d="M 4846 542  C 4849.08 542  4851.5 544.42  4851.5 547.5  C 4851.5 550.58  4849.08 553  4846 553  C 4842.92 553  4840.5 550.58  4840.5 547.5  C 4840.5 544.42  4842.92 542  4846 542  Z " stroke-width="1" stroke="#797979" fill="none" />
  <path d="M 4846 550.5  C 4844.32 550.5  4843 549.18  4843 547.5  C 4843 545.82  4844.32 544.5  4846 544.5  C 4847.68 544.5  4849 545.82  4849 547.5  C 4849 549.18  4847.68 550.5  4846 550.5  " fill-rule="nonzero" fill="#797979" stroke="none" />
</svg>