<?xml version="1.0" encoding="utf-8"?>
<svg version="1.1" xmlns:xlink="http://www.w3.org/1999/xlink" width="12px" height="12px" viewBox="4840 639.5  12 12" xmlns="http://www.w3.org/2000/svg">
  <path d="M 4846 639.5  C 4849.36 639.5  4852 642.14  4852 645.5  C 4852 648.86  4849.36 651.5  4846 651.5  C 4842.64 651.5  4840 648.86  4840 645.5  C 4840 642.14  4842.64 639.5  4846 639.5  Z " fill-rule="nonzero" fill="#f0f0f0" stroke="none" />
  <path d="M 4846 640  C 4849.08 640  4851.5 642.42  4851.5 645.5  C 4851.5 648.58  4849.08 651  4846 651  C 4842.92 651  4840.5 648.58  4840.5 645.5  C 4840.5 642.42  4842.92 640  4846 640  Z " stroke-width="1" stroke="#797979" fill="none" />
  <path d="M 4846 648.5  C 4844.32 648.5  4843 647.18  4843 645.5  C 4843 643.82  4844.32 642.5  4846 642.5  C 4847.68 642.5  4849 643.82  4849 645.5  C 4849 647.18  4847.68 648.5  4846 648.5  " fill-rule="nonzero" fill="#797979" stroke="none" />
</svg>