<?xml version="1.0" encoding="utf-8"?>
<svg version="1.1" xmlns:xlink="http://www.w3.org/1999/xlink" width="12px" height="12px" viewBox="2453 432.5  12 12" xmlns="http://www.w3.org/2000/svg">
  <path d="M 2459 432.5  C 2462.36 432.5  2465 435.14  2465 438.5  C 2465 441.86  2462.36 444.5  2459 444.5  C 2455.64 444.5  2453 441.86  2453 438.5  C 2453 435.14  2455.64 432.5  2459 432.5  Z " fill-rule="nonzero" fill="#ffffff" stroke="none" />
  <path d="M 2459 433  C 2462.08 433  2464.5 435.42  2464.5 438.5  C 2464.5 441.58  2462.08 444  2459 444  C 2455.92 444  2453.5 441.58  2453.5 438.5  C 2453.5 435.42  2455.92 433  2459 433  Z " stroke-width="1" stroke="#797979" fill="none" />
  <path d="M 2459 441.5  C 2457.32 441.5  2456 440.18  2456 438.5  C 2456 436.82  2457.32 435.5  2459 435.5  C 2460.68 435.5  2462 436.82  2462 438.5  C 2462 440.18  2460.68 441.5  2459 441.5  " fill-rule="nonzero" fill="#797979" stroke="none" />
</svg>