<?xml version="1.0" encoding="utf-8"?>
<svg version="1.1" xmlns:xlink="http://www.w3.org/1999/xlink" width="12px" height="12px" viewBox="2453 484.5  12 12" xmlns="http://www.w3.org/2000/svg">
  <path d="M 2459 484.5  C 2462.36 484.5  2465 487.14  2465 490.5  C 2465 493.86  2462.36 496.5  2459 496.5  C 2455.64 496.5  2453 493.86  2453 490.5  C 2453 487.14  2455.64 484.5  2459 484.5  Z " fill-rule="nonzero" fill="#f0f0f0" stroke="none" />
  <path d="M 2459 485  C 2462.08 485  2464.5 487.42  2464.5 490.5  C 2464.5 493.58  2462.08 496  2459 496  C 2455.92 496  2453.5 493.58  2453.5 490.5  C 2453.5 487.42  2455.92 485  2459 485  Z " stroke-width="1" stroke="#797979" fill="none" />
  <path d="M 2459 493.5  C 2457.32 493.5  2456 492.18  2456 490.5  C 2456 488.82  2457.32 487.5  2459 487.5  C 2460.68 487.5  2462 488.82  2462 490.5  C 2462 492.18  2460.68 493.5  2459 493.5  " fill-rule="nonzero" fill="#797979" stroke="none" />
</svg>