<?xml version="1.0" encoding="utf-8"?>
<svg version="1.1" xmlns:xlink="http://www.w3.org/1999/xlink" width="12px" height="12px" viewBox="2453 541.5  12 12" xmlns="http://www.w3.org/2000/svg">
  <path d="M 2459 541.5  C 2462.36 541.5  2465 544.14  2465 547.5  C 2465 550.86  2462.36 553.5  2459 553.5  C 2455.64 553.5  2453 550.86  2453 547.5  C 2453 544.14  2455.64 541.5  2459 541.5  Z " fill-rule="nonzero" fill="#f0f0f0" stroke="none" />
  <path d="M 2459 542  C 2462.08 542  2464.5 544.42  2464.5 547.5  C 2464.5 550.58  2462.08 553  2459 553  C 2455.92 553  2453.5 550.58  2453.5 547.5  C 2453.5 544.42  2455.92 542  2459 542  Z " stroke-width="1" stroke="#797979" fill="none" />
  <path d="M 2459 550.5  C 2457.32 550.5  2456 549.18  2456 547.5  C 2456 545.82  2457.32 544.5  2459 544.5  C 2460.68 544.5  2462 545.82  2462 547.5  C 2462 549.18  2460.68 550.5  2459 550.5  " fill-rule="nonzero" fill="#797979" stroke="none" />
</svg>