<?xml version="1.0" encoding="utf-8"?>
<svg version="1.1" xmlns:xlink="http://www.w3.org/1999/xlink" width="14px" height="12px" xmlns="http://www.w3.org/2000/svg">
  <g transform="matrix(1 0 0 1 -383 -638 )">
    <path d="M 13.588 2.891  C 14.01 2.45  14.01 1.738  13.587 1.297  C 13.164 0.858  12.474 0.858  12.051 1.299  L 4.632 8.988  L 2.33 6.604  C 1.905 6.164  1.217 6.164  0.792 6.603  C 0.37 7.042  0.37 7.754  0.792 8.196  L 3.868 11.382  C 4.29 11.821  4.979 11.821  5.404 11.384  C 5.412 11.375  5.415 11.363  5.423 11.354  L 13.588 2.891  Z " fill-rule="nonzero" fill="#ffffff" stroke="none" transform="matrix(1 0 0 1 383 638 )" />
  </g>
</svg>