<?xml version="1.0" encoding="utf-8"?>
<svg version="1.1" xmlns:xlink="http://www.w3.org/1999/xlink" width="14px" height="13px" xmlns="http://www.w3.org/2000/svg">
  <g transform="matrix(1 0 0 1 -383 -475 )">
    <path d="M 12.852 12.188  C 12.413 12.627  11.698 12.627  11.258 12.188  L 1.161 2.091  C 0.722 1.651  0.721 0.937  1.161 0.497  C 1.599 0.0569999999999999  2.314 0.0569999999999999  2.756 0.497  L 12.852 10.593  C 13.291 11.035  13.293 11.748  12.852 12.188  Z M 12.84 2.086  L 2.744 12.182  C 2.303 12.623  1.589 12.623  1.149 12.182  C 0.709 11.743  0.709 11.03  1.15 10.588  L 11.246 0.493  C 11.687 0.0529999999999999  12.402 0.0529999999999999  12.84 0.492  C 13.281 0.932  13.279 1.646  12.84 2.086  Z " fill-rule="nonzero" fill="#ffffff" stroke="none" transform="matrix(1 0 0 1 383 475 )" />
  </g>
</svg>