<?xml version="1.0" encoding="utf-8"?>
<svg version="1.1" xmlns:xlink="http://www.w3.org/1999/xlink" width="32px" height="32px" xmlns="http://www.w3.org/2000/svg">
  <g transform="matrix(1 0 0 1 -1307 -325 )">
    <path d="M 24.9375 18.2708333333333  C 25.2013888888889 18.0069444444444  25.3333333333333 17.6944444444444  25.3333333333333 17.3333333333333  L 25.3333333333333 14.6666666666667  C 25.3333333333333 14.3055555555556  25.2013888888889 13.9930555555556  24.9375 13.7291666666667  C 24.6736111111111 13.4652777777778  24.3611111111111 13.3333333333333  24 13.3333333333333  L 8 13.3333333333333  C 7.63888888888889 13.3333333333333  7.32638888888889 13.4652777777778  7.0625 13.7291666666667  C 6.79861111111111 13.9930555555556  6.66666666666667 14.3055555555556  6.66666666666667 14.6666666666667  L 6.66666666666667 17.3333333333333  C 6.66666666666667 17.6944444444444  6.79861111111111 18.0069444444444  7.0625 18.2708333333333  C 7.32638888888889 18.5347222222222  7.63888888888889 18.6666666666667  8 18.6666666666667  L 24 18.6666666666667  C 24.3611111111111 18.6666666666667  24.6736111111111 18.5347222222222  24.9375 18.2708333333333  Z M 29.8541666666667 7.96875  C 31.2847222222222 10.4201388888889  32 13.0972222222222  32 16  C 32 18.9027777777778  31.2847222222222 21.5798611111111  29.8541666666667 24.03125  C 28.4236111111111 26.4826388888889  26.4826388888889 28.4236111111111  24.03125 29.8541666666667  C 21.5798611111111 31.2847222222222  18.9027777777778 32  16 32  C 13.0972222222222 32  10.4201388888889 31.2847222222222  7.96875 29.8541666666667  C 5.51736111111111 28.4236111111111  3.57638888888889 26.4826388888889  2.14583333333333 24.03125  C 0.715277777777778 21.5798611111111  0 18.9027777777778  0 16  C 0 13.0972222222222  0.715277777777778 10.4201388888889  2.14583333333333 7.96875  C 3.57638888888889 5.51736111111111  5.51736111111111 3.57638888888889  7.96875 2.14583333333333  C 10.4201388888889 0.715277777777775  13.0972222222222 0  16 0  C 18.9027777777778 0  21.5798611111111 0.715277777777775  24.03125 2.14583333333333  C 26.4826388888889 3.57638888888889  28.4236111111111 5.51736111111111  29.8541666666667 7.96875  Z " fill-rule="nonzero" fill="#6c6c6c" stroke="none" transform="matrix(1 0 0 1 1307 325 )" />
  </g>
</svg>