<?xml version="1.0" encoding="utf-8"?>
<svg version="1.1" xmlns:xlink="http://www.w3.org/1999/xlink" width="36px" height="21px" xmlns="http://www.w3.org/2000/svg">
  <g transform="matrix(1 0 0 1 -877 -309 )">
    <path d="M 35.6392785571142 2.16494845360825  C 35.8797595190381 2.40549828178694  36 2.68213058419244  36 2.99484536082474  C 36 3.30756013745704  35.8797595190381 3.58419243986254  35.6392785571142 3.82474226804124  L 18.8296593186373 20.639175257732  C 18.5891783567134 20.8797250859106  18.312625250501 21  18 21  C 17.687374749499 21  17.4108216432866 20.8797250859106  17.1703406813627 20.639175257732  L 0.360721442885772 3.82474226804124  C 0.120240480961924 3.58419243986254  0 3.30756013745704  0 2.99484536082474  C 0 2.68213058419244  0.120240480961924 2.40549828178694  0.360721442885772 2.16494845360825  L 2.16432865731463 0.360824742268042  C 2.40480961923848 0.120274914089344  2.6813627254509 0  2.9939879759519 0  C 3.30661322645291 0  3.58316633266533 0.120274914089344  3.82364729458918 0.360824742268042  L 18 14.5412371134021  L 32.1763527054108 0.360824742268042  C 32.4168336673347 0.120274914089344  32.6933867735471 0  33.0060120240481 0  C 33.3186372745491 0  33.5951903807615 0.120274914089344  33.8356713426854 0.360824742268042  L 35.6392785571142 2.16494845360825  Z " fill-rule="nonzero" fill="#f6f6f6" stroke="none" transform="matrix(1 0 0 1 877 309 )" />
  </g>
</svg>