<?xml version="1.0" encoding="utf-8"?>
<svg version="1.1" xmlns:xlink="http://www.w3.org/1999/xlink" width="13px" height="4px" xmlns="http://www.w3.org/2000/svg">
  <g transform="matrix(1 0 0 1 -87 -577 )">
    <path d="M 12.7414772727273 0.291666666666667  C 12.9138257575758 0.486111111111109  13 0.722222222222221  13 1  L 13 3  C 13 3.27777777777778  12.9138257575758 3.51388888888889  12.7414772727273 3.70833333333333  C 12.5691287878788 3.90277777777778  12.3598484848485 4  12.1136363636364 4  L 0.886363636363636 4  C 0.640151515151515 4  0.430871212121212 3.90277777777778  0.258522727272727 3.70833333333333  C 0.0861742424242424 3.51388888888889  0 3.27777777777778  0 3  L 0 1  C 0 0.722222222222221  0.0861742424242424 0.486111111111109  0.258522727272727 0.291666666666667  C 0.430871212121212 0.0972222222222214  0.640151515151515 0  0.886363636363636 0  L 12.1136363636364 0  C 12.3598484848485 0  12.5691287878788 0.0972222222222214  12.7414772727273 0.291666666666667  Z " fill-rule="nonzero" fill="#74b4fa" stroke="none" transform="matrix(1 0 0 1 87 577 )" />
  </g>
</svg>