<?xml version="1.0" encoding="utf-8"?>
<svg version="1.1" xmlns:xlink="http://www.w3.org/1999/xlink" width="42px" height="42px" xmlns="http://www.w3.org/2000/svg">
  <g transform="matrix(1 0 0 1 -1528 -664 )">
    <path d="M 1 11.6225  L 1 1  L 12.1535 1  L 12.1535 11.5775  L 9.3655 11.6225  L 9.3655 10.7375  L 11.2475 10.7375  L 11.2475 1.3175  L 1.7575 1.3175  L 1.7575 10.7375  L 3.8255 10.7375  L 3.8255 11.6225  L 1 11.6225  Z M 3.7335 6.0175  C 3.73542144126575 7.4704131794811  4.9115914161248 8.64837132609972  6.3645 8.6525  C 6.36499960411939 8.65250028444939  6.36549920830961 8.6525004266741  6.36599881250998 8.6525004266741  C 7.81988841643954 8.6525004266741  8.99849881250998 7.47389003060366  8.99849881250998 6.0200004266741  C 8.99849881250998 4.56611082274453  7.81988841643954 3.3875004266741  6.36599881250998 3.3875004266741  C 4.91308559006654 3.3875004266741  3.73488002012404 4.56458743294876  3.7335 6.0175  Z M 20.408 35.7625  C 20.329375473029 37.1098723911983  19.6445102270131 38.3490648094927  18.5455 39.1325  L 18.5455 41.4775  L 4.8955 41.5975  L 4.954 39.9275  L 0.420000000000001 30.9675  L 0.420000000000001 30.7225  C 0.414000000000001 30.7175  0.409500000000001 30.7175  0.403500000000001 30.7125  L 0.346000000000001 20.8075  C 0.612713835929221 20.5382481767705  0.967996644422449 20.3748180848636  1.346 20.3475  C 2.699 20.3475  3.806 22.1875  3.806 23.5425  L 3.98 29.7825  C 4.22 30.3825  4.791 30.4075  5.037 29.8025  L 4.8485 11.0025  C 5.531 9.2925  7.368 9.4025  8.082 11.0025  L 8.082 20.2575  C 8.34739439584078 20.4130217745734  8.67610560415923 20.4130217745734  8.9415 20.2575  L 8.9415 19.5425  C 9.446 17.7875  11.6135 17.7175  12.299 19.5425  L 12.299 21.8175  C 12.5163333333333 22.1475  12.746 22.1475  12.988 21.8175  L 12.988 21.1725  C 13.583 19.5925  15.6115 19.3675  16.2925 21.1725  L 16.2925 21.8175  L 16.2955 21.8175  L 16.2955 23.7625  C 16.3894973069267 23.8580840242288  16.5179410599877 23.9119179839182  16.652 23.9119179839182  C 16.7860589400123 23.9119179839182  16.9145026930734 23.8580840242288  17.0085 23.7625  L 17.0085 22.8375  C 17.862 21.1375  19.871 21.2025  20.416 22.8375  L 20.416 23.7625  L 20.422 23.7625  L 20.422 31.8675  L 20.408 31.8675  L 20.408 35.7625  Z M 41.357 14.5575  C 37.365 12.7225  33.7085 8.9525  34.903 2.0375  C 35.6023992988693 5.48250521900517  38.0492220201936 8.31261547848556  41.357 9.5025  L 41.357 14.5575  Z M 41.453 27.0825  C 33.9785 26.1375  27.9795 19.4475  26.703 11.7475  C 27.777 15.5525  37.5675 21.8225  41.453 22.0275  L 41.453 27.0825  Z M 41.6605 33.3375  L 41.659 33.3375  L 41.659 38.0125  C 37.3695 38.6275  29.644 35.7675  26.7485 29.7975  C 31.372 32.4225  36.969 34.7625  41.6605 33.3375  Z M 30.095 11.2825  C 28.922 6.8275  27.503 4.5975  24.753 3.0075  C 29.1165 3.1725  32.122 5.0125  33.522 9.4625  C 35.5565 14.3275  37.9095 17.2475  40.686 17.5875  C 35.8045 17.6875  32.0935 15.8775  30.095 11.2825  Z M 32.983 25.9025  C 35.407 28.7075  38.0736666666667 30.2075  40.983 30.4025  C 37.018 32.3325  33.4595 31.9225  30.3875 28.7075  C 28.6175 26.3125  26.509 24.8225  23.085 24.8225  C 26.603 23.0925  29.9415 23.1025  32.9835 25.9025  Z " fill-rule="nonzero" fill="#ff0000" stroke="none" transform="matrix(1 0 0 1 1528 664 )" />
  </g>
</svg>