<?xml version="1.0" encoding="utf-8"?>
<svg version="1.1" xmlns:xlink="http://www.w3.org/1999/xlink" width="31px" height="24px" xmlns="http://www.w3.org/2000/svg">
  <g transform="matrix(1 0 0 1 -1535 -738 )">
    <path d="M 13.8583984375 12.689453125  L 15.5478515625 14.564453125  C 14.0439453125 14.564453125  12.5400390625 15.1259765625  11.6025390625 16.068359375  C 11.2265625 16.4443359375  10.6650390625 16.4443359375  10.2890625 16.068359375  C 9.7275390625 15.6923828125  9.9130859375 14.9404296875  10.2890625 14.37890625  C 11.2265625 13.626953125  12.544921875 13.0654296875  13.8583984375 12.689453125  Z M 10.6552734375 9.8671875  L 9.15625 8.36328125  C 7.8427734375 8.9248046875  6.71484375 9.6767578125  5.7724609375 10.619140625  C 5.396484375 10.9951171875  5.396484375 11.7470703125  5.7724609375 12.123046875  C 6.1484375 12.4990234375  6.900390625 12.4990234375  7.0859375 12.123046875  C 8.2138671875 11.185546875  9.341796875 10.43359375  10.6552734375 9.8671875  Z M 5.9580078125 5.169921875  L 4.458984375 3.666015625  C 3.3310546875 4.41796875  2.017578125 5.35546875  1.0751953125 6.4833984375  C 0.699218750000002 6.859375  0.699218750000002 7.611328125  1.0751953125 7.9873046875  C 1.451171875 8.36328125  2.0126953125 8.36328125  2.388671875 7.9873046875  C 3.5166015625 6.859375  4.64453125 5.921875  5.9580078125 5.169921875  Z M 29.8251953125 7.796875  C 30.2060546875 7.611328125  30.3916015625 6.859375  29.830078125 6.4833984375  C 26.0703125 2.7236328125  20.9970703125 0.4677734375  15.5478515625 0.4677734375  C 13.2919921875 0.4677734375  11.2265625 0.84375  9.3466796875 1.4052734375  L 11.0361328125 3.0947265625  C 12.349609375 2.71875  13.853515625 2.533203125  15.5478515625 2.533203125  C 20.62109375 2.533203125  25.1328125 4.5986328125  28.51171875 7.796875  C 28.8876953125 8.3583984375  29.44921875 8.3583984375  29.8251953125 7.796875  Z M 24.9423828125 10.619140625  C 22.5009765625 8.36328125  19.1171875 6.859375  15.5478515625 6.859375  L 14.7958984375 6.859375  L 17.0517578125 9.115234375  C 19.4931640625 9.30078125  21.939453125 10.4287109375  23.62890625 12.123046875  C 24.0048828125 12.4990234375  24.56640625 12.4990234375  24.9423828125 12.123046875  C 25.50390625 11.7470703125  25.50390625 10.9951171875  24.9423828125 10.619140625  Z M 17.61328125 20.951171875  C 17.61328125 19.6376953125  16.67578125 18.8857421875  15.5478515625 18.8857421875  C 14.419921875 18.8857421875  13.482421875 19.8232421875  13.482421875 20.951171875  C 13.482421875 22.0791015625  14.419921875 23.0166015625  15.5478515625 23.0166015625  C 16.67578125 23.0166015625  17.61328125 22.0791015625  17.61328125 20.951171875  Z M 22.125 16.25390625  L 21.1875 15.31640625  L 19.3076171875 13.4365234375  L 14.7958984375 8.9248046875  L 12.916015625 7.044921875  L 7.8427734375 1.9716796875  L 6.71484375 0.84375  C 6.1533203125 0.4677734375  5.5869140625 0.4677734375  5.2109375 0.84375  C 4.8349609375 1.2197265625  4.8349609375 1.9716796875  5.2109375 2.34765625  L 20.62109375 17.7578125  C 20.9970703125 18.1337890625  21.7490234375 18.1337890625  22.125 17.7578125  C 22.5009765625 17.3818359375  22.5009765625 16.6298828125  22.125 16.25390625  Z " fill-rule="nonzero" fill="#f67b05" stroke="none" transform="matrix(1 0 0 1 1535 738 )" />
  </g>
</svg>