<svg t="1594625904845" class="icon" viewBox="0 0 1024 1024" version="1.1" xmlns="http://www.w3.org/2000/svg" p-id="2879" width="200" height="200"><path d="M512 512m-450 0a450 450 0 1 0 900 0 450 450 0 1 0-900 0Z" fill="#ffffff" opacity=".6" p-id="2880"></path><path d="M605.7 528.2l-28.2 28.5-20.6-18.3-25-24.2 44.8-47.9c50.3 21.9 102.5 13 137.6-17.4 34.5-29.9 34.5-88.8 34.5-88.8l-27.6-10.8-53.1 53.7-77.4-76.7 53.4-54.1-10.9-27.5s-53.5 0-89.1 35.4C511 313 500.5 367 523.8 415.9l-46.5 45.4-66.9-64.9-4-45.5-62.6-40.4-17.7 17.7-17.6 17.7-17.7 17.7 40.3 62.8 42.6 3.7 68.6 65.4-175.3 171s-5.1 31.4 15.4 51.9c16.5 16.5 46.5 13.1 46.5 13.1l170.1-182 24.7 23.5 18.3 18.2-35.1 36.1c50.4 50.4 100.8 100.9 151.1 151.4 51.9-14 81.8-50 98.8-99-50.3-50.5-100.7-101-151.1-151.5M333 694.2c-8.1 8.1-21.2 8.2-29.4 0.1-8.1-8.1-8.2-21.3-0.1-29.5s21.2-8.3 29.4-0.2c8.1 8.3 8.2 21.4 0.1 29.6m329.5 45.6L547.9 625l17-17 118.7 118.9-21.1 12.9m40.4-32.3L584.2 588.6l17-17.1 114.6 114.8-12.9 21.2m0 0" fill="#ffffff" p-id="2881"></path></svg>