<?xml version="1.0" encoding="utf-8"?>
<svg version="1.1" xmlns:xlink="http://www.w3.org/1999/xlink" width="35px" height="43px" xmlns="http://www.w3.org/2000/svg">
  <g transform="matrix(1 0 0 1 -1536 -986 )">
    <path d="M 34.6164038623047 40.2918269101563  C 34.5957307724609 39.4028845927734  33.8721730898437 38.6586538203125  32.9418846347656 38.6586538623047  L 32.9418846347656 40.3951923173828  C 32.9418846347656 40.6225961796875  32.8591923173828 40.8293269521484  32.6938076826172 40.9740384550781  C 32.5284230478516 41.1394230898437  32.3216923173828 41.2221153652344  32.1149615449219 41.2221153652344  L 2.96592308984375 41.3461538623047  C 2.51111540722656 41.3461538623047  2.139 40.9740384970703  2.139 40.5192307724609  L 2.01496154492188 8.68269231738281  C 2.01496154492188 8.22788463476562  2.38707691015625 7.85576922753906  2.84188463476563 7.85576922753906  L 4.78515386230469 7.85576922753906  L 4.78515386230469 8.62067308984374  C 4.78515386230469 9.9850961796875  5.9015 11.1221154072266  7.28659613769531 11.1221153652344  L 27.7115961376953 11.1221153652344  C 29.0760192275391 11.1221153652344  30.2130384550781 10.0057692275391  30.2130384550781 8.62067308984374  L 30.2130384550781 7.75240386230468  L 32.0322692275391 7.75240386230468  C 32.2596730898438 7.75240386230468  32.4664038623047 7.8350961796875  32.6111153652344 8.00048077246093  C 32.7765 8.16586540722656  32.8591922753906 8.37259613769531  32.8591923173828 8.57932691015625  L 32.8798653652344 14.3884615449219  C 33.7894807304687 14.3884615449219  34.5337115029297 13.6442307724609  34.5337115449219 12.7346153652344  L 34.5130384550781 8.57932691015625  C 34.5130384550781 7.91778845507812  34.2442884550781 7.29759613769531  33.7688076826172 6.82211536523437  C 33.2933269101563 6.34663459277343  32.6731345927734 6.09855768261718  32.0322692275391 6.09855768261718  L 30.2130384550781 6.09855768261718  L 30.2130384550781 5.45769231738281  C 30.2130384550781 4.09326922753906  29.0966923173828 2.95625  27.7115961376953 2.95625  L 25.5615961376953 2.95625  L 25.5615961376953 2.50144231738281  C 25.5615961376953 1.13701922753906  24.44525 0  23.0601538623047 0  L 11.9173653652344 0  C 10.5322692275391 0  9.41592308984375 1.11634613769531  9.41592308984375 2.50144231738281  L 9.41592308984375 2.95625  L 7.26592308984375 2.95625  C 5.9015 2.95625  4.76448077246094 4.07259613769531  4.76448077246094 5.45769231738281  L 4.76448077246094 6.20192308984375  L 2.80053845507813 6.20192308984375  C 1.43611536523438 6.20192308984375  0.319769227539063 7.31826922753906  0.340442317382813 8.70336536523438  L 0.464480772460938 40.5399038623047  C 0.464480772460938 41.9043269521484  1.58082691015625 43  2.94525 43  L 2.96592308984375 43  L 32.1356346347656 42.8759615449219  C 32.7971730898437 42.8759615449219  33.4173654072266 42.6072115449219  33.8928461376953 42.1317307724609  C 34.3683268681641 41.65625  34.6164038203125 41.0360576826172  34.6164038623047 40.3745192275391  L 34.6164038623047 40.2918269101563  Z M 6.41832691015625 8.62067308984375  L 6.41832691015625 5.43701922753906  C 6.41832691015625 4.98221154492188  6.79044227539063 4.58942308984375  7.26592308984375 4.58942308984375  L 10.2428461376953 4.58942308984375  C 10.6976538203125 4.58942308984375  11.0697692275391 4.21730772460938  11.0697692275391 3.7625  L 11.0697692275391 2.50144231738281  C 11.0697692275391 2.02596154492187  11.4418846347656 1.65384613769531  11.9173653652344 2  L 23.0601538623047 2  C 23.5149615449219 1.65384613769531  23.90775 2.02596150292969  23.90775 2.50144231738281  L 23.90775 3.78317308984375  C 23.90775 4.23798077246094  24.2798653652344 4.6100961796875  24.7346730898437 4.61009613769531  L 27.7115961376953 4.61009613769531  C 28.1664038203125 4.61009613769531  28.5591922753906 4.98221150292969  28.5591923173828 5.45769231738281  L 28.5591923173828 8.62067308984375  C 28.5591923173828 9.07548077246094  28.1870769521484 9.46826922753906  27.7115961376953 10  L 7.26592308984375 10  C 6.81111540722656 9.46826922753906  6.41832695214844 9.09615386230469  6.41832691015625 8.62067308984375  Z " fill-rule="nonzero" fill="#ffffff" stroke="none" transform="matrix(1 0 0 1 1536 986 )" />
  </g>
</svg>