<?xml version="1.0" encoding="utf-8"?>
<svg version="1.1" xmlns:xlink="http://www.w3.org/1999/xlink" width="31px" height="21px" xmlns="http://www.w3.org/2000/svg">
  <g transform="matrix(1 0 0 1 -1545 -1002 )">
    <path d="M 0.209192317382808 1.48942308984375  C 0.209192317382808 1.92355772460937  0.560634634765622 2.29567308984375  0.994769227539061 2.275  L 13.2332307724609 2.23365386230468  C 13.6673654072266 2.23365386230468  14.0188076826172 1.86153849707031  14.0188076826172 1.42740386230469  C 14.0188076826172 0.993269227539063  13.6466923173828 0.641826952148435  13.2125576826172 1  L 0.994769227539059 1  C 0.560634592773434 0.683173089843748  0.209192317382808 1.05528845507812  0.209192317382808 1.48942308984375  Z M 13.2539038623047 9.34519231738281  C 13.6880384970703 9.32451922753907  14.0601538623047 8.97307695214844  14.0394807724609 8.53894231738281  C 14.0394807724609 8.10480768261719  13.6673654072266 7.75336540722656  13.2332307724609 8  L 0.994769227539063 8  C 0.56063459277344 7.79471154492187  0.209192317382813 8.16682691015625  0.209192317382813 8.60096154492188  C 0.209192317382813 9.0350961796875  0.581307682617188 9.38653845507812  1.01544231738281 9.38653845507812  L 13.2539038623047 9.34519231738281  Z M 8.54044231738281 14.8235576826172  L 1.01544231738281 14.8442307724609  C 0.560634634765625 14.8442307724609  0.209192317382813 15.2163461376953  0.209192317382813 15.6504807724609  C 0.209192317382813 16.1052884550781  0.581307682617188 16.4567307724609  1.01544231738281 16.4567307724609  L 8.54044231738281 16.4360576826172  C 8.99525 16.4360576826172  9.34669231738281 16.0639423173828  9.34669231738281 15.6298076826172  C 9.34669231738281 15.175  8.97457695214844 14.8235576826172  8.54044231738281 14.8235576826172  Z M 28.9654423173828 8.06346154492187  L 30.0817884550781 8.06346154492187  C 30.5365961376953 8.06346154492187  30.9087115449219 7.6913461796875  30.9087115449219 7.23653845507813  C 30.9087115449219 6.78173073046875  30.5365961796875 6.40961536523437  30.0817884550781 6.40961536523437  L 28.88275 6.40961536523437  C 28.6553461376953 4.85913459277344  27.6423653652344 3.55673073046875  26.2572692275391 2.93653845507812  C 26.2986153652344 2.87451922753906  26.3192884550781 2.79182691015625  26.3192884550781 2.70913463476562  L 26.3192884550781 1.05528845507812  C 26.3192884550781 0.786538455078123  26.0918845927734 0.559134592773436  25.8231346347656 0.559134634765623  L 22.9909230898438 0.559134634765623  C 22.7221730898438 0.559134634765623  22.4947692275391 0.78653849707031  22.4947692275391 1.05528845507812  L 22.4947692275391 2.70913463476562  C 22.4947692275391 2.79182695214843  22.5154423173828 2.87451926953125  22.5567884550781 2.93653845507812  C 21.1716923173828 3.55673077246093  20.1587115449219 4.85913459277343  19.9313076826172 6.40961536523437  L 18.7322692275391 6.40961536523437  C 18.2774615449219 6.40961536523437  17.9053461376953 6.78173073046875  17.9053461376953 7.23653845507813  C 17.9053461376953 7.6913461796875  18.2774615029297 8.06346154492187  18.7322692275391 8.06346154492187  L 19.8692884550781 8.06346154492187  L 19.8692884550781 11.1850961376953  L 19.1457307724609 11.1850961376953  C 18.9803461376953 11.1850961376953  18.8356346347656 11.3298076826172  18.8356346347656 11.4951923173828  L 18.8356346347656 14.8028846347656  C 18.8356346347656 14.9682692695312  18.9803461796875 15.1129807724609  19.1457307724609 15.1129807724609  L 19.8692884550781 15.1129807724609  L 19.8692884550781 19.0408653652344  L 18.7322692275391 19.0408653652344  C 18.2774615449219 19.0408653652344  17.9053461376953 19.4129807304688  17.9053461376953 19.8677884550781  C 17.9053461376953 20.3225961796875  18.2774615029297 20.6947115449219  18.7322692275391 20.6947115449219  L 30.1024615449219 20.6947115449219  C 30.5572692275391 20.6947115449219  30.9293846347656 20.3225961796875  30.9293846347656 19.8677884550781  C 30.9293846347656 19.4129807304688  30.5572692695313 19.0408653652344  30.1024615449219 19.0408653652344  L 28.9654423173828 19.0408653652344  L 28.9654423173828 15.1129807724609  L 29.689 15.1129807724609  C 29.8543846347656 15.1129807724609  29.9990961376953 14.9682692275391  29.9990961376953 14.8028846347656  L 29.9990961376953 11.4951923173828  C 29.9990961376953 11.3298076826172  29.8543845927734 11.1850961796875  29.689 11.1850961376953  L 28.9654423173828 11.1850961376953  L 28.9654423173828 8.06346154492187  Z M 21.5851538623047 6.40961536523438  C 21.8745769521484 5.12788459277344  23.0115961796875 4.19759613769532  24.3966923173828 4.19759613769531  C 25.7611154072266 4.19759613769531  26.8981346347656 5.12788459277344  27.2082307724609 6.40961536523438  L 21.5851538623047 6.40961536523438  Z M 27 8.06346154492187  L 27 19.0408653652344  L 21 19.0408653652344  L 21 8.06346154492187  L 27 8.06346154492187  Z " fill-rule="nonzero" fill="#ffffff" stroke="none" transform="matrix(1 0 0 1 1545 1002 )" />
  </g>
</svg>