<?xml version="1.0" encoding="utf-8"?>
<svg version="1.1" xmlns:xlink="http://www.w3.org/1999/xlink" width="5px" height="9px" xmlns="http://www.w3.org/2000/svg">
  <g transform="matrix(1 0 0 1 -1567 -1011 )">
    <path d="M 2.8515 7.82884613769532  C 2.8515 8.18028845507813  3.14092308984375 8.44903845507812  3.47169231738281 8.44903845507812  C 3.82313463476562 8.44903845507812  4.09188463476563 8.18028845507813  4.09188463476563 7.82884613769532  L 4.09188463476563 1.56490386230469  C 4.09188463476563 1.21346154492188  3.82313463476562 0.944711544921876  3.47169231738281 0.944711544921876  C 3.12025 0.944711544921876  2.8515 1.21346154492188  2.8515 1.56490386230469  L 2.8515 7.82884613769532  Z M 0.680826910156249 7.82884613769532  C 0.680826910156249 8.18028845507813  0.97025 8.44903845507812  1.30101922753906 8.44903845507812  C 1.65246154492188 8.44903845507812  1.92121154492187 8.18028845507813  1.92121154492187 7.82884613769532  L 1.92121154492187 1.56490386230469  C 1.92121154492187 1.21346154492188  1.65246154492188 0.944711544921876  1.30101922753906 0.944711544921876  C 0.949576910156246 0.944711544921876  0.680826910156249 1.21346154492188  0.680826910156249 1.56490386230469  L 0.680826910156249 7.82884613769532  Z " fill-rule="nonzero" fill="#ffffff" stroke="none" transform="matrix(1 0 0 1 1567 1011 )" />
  </g>
</svg>