<?xml version="1.0" encoding="utf-8"?>
<svg version="1.1" xmlns:xlink="http://www.w3.org/1999/xlink" width="12px" height="12px" xmlns="http://www.w3.org/2000/svg">
  <g transform="matrix(1 0 0 1 -361 -682 )">
    <path d="M 11.9744318181818 9.29829545454546  C 11.9914772727273 9.33806818181818  12 9.39772727272727  12 9.47727272727273  C 12 9.63068181818182  11.9715909090909 9.83096590909091  11.9147727272727 10.078125  C 11.8579545454545 10.3252840909091  11.7982954545455 10.5198863636364  11.7357954545455 10.6619318181818  C 11.6164772727273 10.9460227272727  11.2698863636364 11.2471590909091  10.6960227272727 11.5653409090909  C 10.1619318181818 11.8551136363636  9.63352272727273 12  9.11079545454546 12  C 8.95738636363636 12  8.80681818181818 11.9900568181818  8.65909090909091 11.9701704545455  C 8.51136363636364 11.9502840909091  8.34801136363637 11.9147727272727  8.16903409090909 11.8636363636364  C 7.99005681818182 11.8125  7.85653409090909 11.7713068181818  7.76846590909091 11.7400568181818  C 7.68039772727273 11.7088068181818  7.52272727272727 11.6505681818182  7.29545454545455 11.5653409090909  C 7.06818181818182 11.4801136363636  6.92897727272727 11.4289772727273  6.87784090909091 11.4119318181818  C 6.32102272727273 11.2130681818182  5.82386363636364 10.9772727272727  5.38636363636364 10.7045454545455  C 4.66477272727273 10.2556818181818  3.91477272727273 9.64204545454545  3.13636363636364 8.86363636363636  C 2.35795454545455 8.08522727272727  1.74431818181818 7.33522727272727  1.29545454545455 6.61363636363636  C 1.02272727272727 6.17613636363636  0.786931818181818 5.67897727272727  0.588068181818182 5.12215909090909  C 0.571022727272727 5.07102272727273  0.519886363636364 4.93181818181818  0.434659090909091 4.70454545454546  C 0.349431818181818 4.47727272727273  0.291193181818182 4.31960227272727  0.259943181818182 4.23153409090909  C 0.228693181818182 4.14346590909091  0.1875 4.00994318181818  0.136363636363636 3.83096590909091  C 0.0852272727272727 3.65198863636363  0.0497159090909091 3.48863636363636  0.0298295454545455 3.34090909090909  C 0.00994318181818182 3.19318181818182  0 3.04261363636364  0 2.88920454545455  C 0 2.36647727272727  0.144886363636364 1.83806818181818  0.434659090909091 1.30397727272727  C 0.752840909090909 0.730113636363634  1.05397727272727 0.383522727272728  1.33806818181818 0.264204545454545  C 1.48011363636364 0.201704545454545  1.67471590909091 0.142045454545453  1.921875 0.0852272727272725  C 2.16903409090909 0.0284090909090904  2.36931818181818 0  2.52272727272727 0  C 2.60227272727273 0  2.66193181818182 0.00852272727272752  2.70170454545455 0.0255681818181812  C 2.80397727272727 0.0596590909090913  2.95454545454545 0.275568181818182  3.15340909090909 0.673295454545455  C 3.21590909090909 0.781249999999998  3.30113636363636 0.93465909090909  3.40909090909091 1.13352272727273  C 3.51704545454545 1.33238636363636  3.61647727272727 1.51278409090909  3.70738636363636 1.67471590909091  C 3.79829545454545 1.83664772727273  3.88636363636364 1.98863636363636  3.97159090909091 2.13068181818182  C 3.98863636363636 2.15340909090909  4.03835227272727 2.22443181818182  4.12073863636364 2.34375  C 4.203125 2.46306818181818  4.26420454545455 2.56392045454545  4.30397727272727 2.64630681818182  C 4.34375 2.72869318181818  4.36363636363636 2.80965909090909  4.36363636363636 2.88920454545455  C 4.36363636363636 3.00284090909091  4.28267045454545 3.14488636363636  4.12073863636364 3.31534090909091  C 3.95880681818182 3.48579545454546  3.78267045454546 3.64204545454545  3.59232954545455 3.78409090909091  C 3.40198863636364 3.92613636363636  3.22585227272727 4.07670454545455  3.06392045454545 4.23579545454546  C 2.90198863636364 4.39488636363636  2.82102272727273 4.52556818181818  2.82102272727273 4.62784090909091  C 2.82102272727273 4.67897727272727  2.83522727272727 4.74289772727273  2.86363636363636 4.81960227272727  C 2.89204545454546 4.89630681818182  2.91619318181818 4.95454545454545  2.93607954545455 4.99431818181818  C 2.95596590909091 5.03409090909091  2.99573863636364 5.10227272727273  3.05539772727273 5.19886363636364  C 3.11505681818182 5.29545454545455  3.14772727272727 5.34943181818182  3.15340909090909 5.36079545454546  C 3.58522727272727 6.13920454545454  4.07954545454546 6.80681818181818  4.63636363636364 7.36363636363636  C 5.19318181818182 7.92045454545454  5.86079545454546 8.41477272727273  6.63920454545455 8.84659090909091  C 6.65056818181818 8.85227272727273  6.70454545454546 8.88494318181818  6.80113636363636 8.94460227272727  C 6.89772727272727 9.00426136363636  6.96590909090909 9.04403409090909  7.00568181818182 9.06392045454546  C 7.04545454545455 9.08380681818182  7.10369318181818 9.10795454545455  7.18039772727273 9.13636363636364  C 7.25710227272727 9.16477272727273  7.32102272727273 9.17897727272727  7.37215909090909 9.17897727272727  C 7.47443181818182 9.17897727272727  7.60511363636364 9.09801136363636  7.76420454545455 8.93607954545455  C 7.92329545454546 8.77414772727273  8.07386363636364 8.59801136363636  8.21590909090909 8.40767045454546  C 8.35795454545455 8.21732954545454  8.51420454545455 8.04119318181818  8.68465909090909 7.87926136363636  C 8.85511363636364 7.71732954545455  8.99715909090909 7.63636363636364  9.11079545454546 7.63636363636364  C 9.19034090909091 7.63636363636364  9.27130681818182 7.65625  9.35369318181818 7.69602272727273  C 9.43607954545455 7.73579545454545  9.53693181818182 7.796875  9.65625 7.87926136363636  C 9.77556818181818 7.96164772727273  9.84659090909091 8.01136363636364  9.86931818181818 8.02840909090909  C 10.0113636363636 8.11363636363636  10.1633522727273 8.20170454545454  10.3252840909091 8.29261363636364  C 10.4872159090909 8.38352272727273  10.6676136363636 8.48295454545454  10.8664772727273 8.59090909090909  C 11.0653409090909 8.69886363636364  11.21875 8.78409090909091  11.3267045454545 8.84659090909091  C 11.7244318181818 9.04545454545454  11.9403409090909 9.19602272727273  11.9744318181818 9.29829545454546  Z " fill-rule="nonzero" fill="#f0efef" stroke="none" transform="matrix(1 0 0 1 361 682 )" />
  </g>
</svg>