<?xml version="1.0" encoding="utf-8"?>
<svg version="1.1" xmlns:xlink="http://www.w3.org/1999/xlink" width="309px" height="228px" xmlns="http://www.w3.org/2000/svg">
  <defs>
    <mask fill="white" id="clip21">
      <path d="M 90.1020522483068 208.937680879799  L 0 142.586147019101  L 0.409125630187964 50.9521126760564  L 128.209042967061 1.05382683699094  L 219 66.3368705382983  L 219 78.0675284584218  L 225.428222233539 78.0675284584218  L 308.040128329174 142.586147019101  L 308.040128329174 166.780628979356  L 165.239547792433 228  L 123.714869888476 193.541192359637  L 90.1020522483068 208.937680879799  Z " fill-rule="evenodd" />
    </mask>
  </defs>
  <g transform="matrix(1 0 0 1 -563 -468 )">
    <path d="M 90.1020522483068 208.937680879799  L 0 142.586147019101  L 0.409125630187964 50.9521126760564  L 128.209042967061 1.05382683699094  L 219 66.3368705382983  L 219 78.0675284584218  L 225.428222233539 78.0675284584218  L 308.040128329174 142.586147019101  L 308.040128329174 166.780628979356  L 165.239547792433 228  L 123.714869888476 193.541192359637  L 90.1020522483068 208.937680879799  Z " fill-rule="nonzero" fill="#fe7429" stroke="none" fill-opacity="0.101960784313725" transform="matrix(1 0 0 1 563 468 )" />
    <path d="M 90.1020522483068 208.937680879799  L 0 142.586147019101  L 0.409125630187964 50.9521126760564  L 128.209042967061 1.05382683699094  L 219 66.3368705382983  L 219 78.0675284584218  L 225.428222233539 78.0675284584218  L 308.040128329174 142.586147019101  L 308.040128329174 166.780628979356  L 165.239547792433 228  L 123.714869888476 193.541192359637  L 90.1020522483068 208.937680879799  Z " stroke-width="2" stroke="#fe7429" fill="none" transform="matrix(1 0 0 1 563 468 )" mask="url(#clip21)" />
  </g>
</svg>