<?xml version="1.0" encoding="utf-8"?>
<svg version="1.1" xmlns:xlink="http://www.w3.org/1999/xlink" width="335px" height="266px" xmlns="http://www.w3.org/2000/svg">
  <defs>
    <mask fill="white" id="clip22">
      <path d="M 0.925925925923593 149.385306051971  L 0.925925925923593 57.5265475265454  L 136.111111111109 0.114823448154758  L 247 78.76888543555  L 247 92.5476992143637  L 334.259259259257 149.385306051971  L 335 182.684106017437  L 151.597077821146 265.072758707801  L 0.925925925923593 149.385306051971  Z " fill-rule="evenodd" />
    </mask>
  </defs>
  <g transform="matrix(1 0 0 1 -825 -670 )">
    <path d="M 0.925925925923593 149.385306051971  L 0.925925925923593 57.5265475265454  L 136.111111111109 0.114823448154758  L 247 78.76888543555  L 247 92.5476992143637  L 334.259259259257 149.385306051971  L 335 182.684106017437  L 151.597077821146 265.072758707801  L 0.925925925923593 149.385306051971  Z " fill-rule="nonzero" fill="#33c803" stroke="none" fill-opacity="0.184313725490196" transform="matrix(1 0 0 1 825 670 )" />
    <path d="M 0.925925925923593 149.385306051971  L 0.925925925923593 57.5265475265454  L 136.111111111109 0.114823448154758  L 247 78.76888543555  L 247 92.5476992143637  L 334.259259259257 149.385306051971  L 335 182.684106017437  L 151.597077821146 265.072758707801  L 0.925925925923593 149.385306051971  Z " stroke-width="2" stroke="#33c803" fill="none" transform="matrix(1 0 0 1 825 670 )" mask="url(#clip22)" />
  </g>
</svg>