<?xml version="1.0" encoding="utf-8"?>
<svg version="1.1" xmlns:xlink="http://www.w3.org/1999/xlink" width="255px" height="120px" xmlns="http://www.w3.org/2000/svg">
  <g>
    <path d="M 0 98.8823529411765  C 0 98.8823529411765  0 7  0 7  C 0 3.13400675118445  3.13400675118445 0  7 0  C 7 0  248 0  248 0  C 251.865993248816 0  255 3.13400675118445  255 7  C 255 7  255 98.8823529411765  255 98.8823529411765  C 255 102.748346189992  251.865993248816 105.882352941176  248 105.882352941176  C 248 105.882352941176  68 105.882352941176  68 105.882352941176  C 68 105.882352941176  55.25 120  55.25 120  C 55.25 120  42.5 105.882352941176  42.5 105.882352941176  C 42.5 105.882352941176  7 105.882352941176  7 105.882352941176  C 3.13400675118445 105.882352941176  0 102.748346189992  0 98.8823529411765  Z " fill-rule="nonzero" fill="#fe7429" stroke="none" />
  </g>
</svg>