<?xml version="1.0" encoding="utf-8"?>
<svg version="1.1" xmlns:xlink="http://www.w3.org/1999/xlink" width="255px" height="50px" xmlns="http://www.w3.org/2000/svg">
  <g>
    <path d="M 0 27.0557275541796  C 0 27.0557275541796  0 7  0 7  C 0 3.13400675118445  3.13400675118445 0  7 0  C 7 0  248 0  248 0  C 251.865993248816 0  255 3.13400675118445  255 7  C 255 7  255 27.0557275541796  255 27.0557275541796  C 255 30.9217208029951  251.865993248816 34.0557275541796  248 34.0557275541796  C 248 34.0557275541796  61.7915019762846 34.0557275541796  61.7915019762846 34.0557275541796  C 61.7915019762846 34.0557275541796  51.2015810276682 49.9375910131059  51.2015810276682 49.9375910131059  C 51.2015810276682 49.9375910131059  41.7915019762846 34.0557275541796  41.7915019762846 34.0557275541796  C 41.7915019762846 34.0557275541796  7 34.0557275541796  7 34.0557275541796  C 3.13400675118445 34.0557275541796  0 30.9217208029951  0 27.0557275541796  Z " fill-rule="nonzero" fill="#33c803" stroke="none" />
  </g>
</svg>