<?xml version="1.0" encoding="utf-8"?>
<svg version="1.1" xmlns:xlink="http://www.w3.org/1999/xlink" width="21px" height="22px" xmlns="http://www.w3.org/2000/svg">
  <g transform="matrix(1 0 0 1 -214 -5 )">
    <path d="M 12.4347826086957 10.4929859719439  C 12.5797101449275 10.6399465597862  12.6521739130435 10.8089512358049  12.6521739130435 11  C 12.6521739130435 11.1910487641951  12.5797101449275 11.3600534402138  12.4347826086957 11.5070140280561  L 2.30434782608696 21.7795591182365  C 2.15942028985507 21.9265197060788  1.99275362318841 22  1.80434782608696 22  C 1.61594202898551 22  1.44927536231884 21.9265197060788  1.30434782608696 21.7795591182365  L 0.217391304347826 20.6773547094188  C 0.0724637681159421 20.5303941215765  0 20.3613894455578  0 20.1703406813627  C 0 19.9792919171677  0.0724637681159421 19.810287241149  0.217391304347826 19.6633266533066  L 8.76086956521739 11  L 0.217391304347826 2.33667334669339  C 0.0724637681159421 2.18971275885103  0 2.02070808283233  0 1.82965931863728  C 0 1.63861055444221  0.0724637681159421 1.46960587842351  0.217391304347826 1.32264529058116  L 1.30434782608696 0.220440881763527  C 1.44927536231884 0.0734802939211749  1.61594202898551 0  1.80434782608696 0  C 1.99275362318841 0  2.15942028985507 0.0734802939211749  2.30434782608696 0.220440881763527  L 12.4347826086957 10.4929859719439  Z M 20.7826086956522 10.4929859719439  C 20.9275362318841 10.6399465597862  21 10.8089512358049  21 11  C 21 11.1910487641951  20.9275362318841 11.3600534402138  20.7826086956522 11.5070140280561  L 10.6521739130435 21.7795591182365  C 10.5072463768116 21.9265197060788  10.3405797101449 22  10.1521739130435 22  C 9.96376811594203 22  9.79710144927536 21.9265197060788  9.65217391304348 21.7795591182365  L 8.56521739130435 20.6773547094188  C 8.42028985507246 20.5303941215765  8.34782608695652 20.3613894455578  8.34782608695652 20.1703406813627  C 8.34782608695652 19.9792919171677  8.42028985507246 19.810287241149  8.56521739130435 19.6633266533066  L 17.1086956521739 11  L 8.56521739130435 2.33667334669339  C 8.42028985507246 2.18971275885103  8.34782608695652 2.02070808283233  8.34782608695652 1.82965931863728  C 8.34782608695652 1.63861055444221  8.42028985507246 1.46960587842351  8.56521739130435 1.32264529058116  L 9.65217391304348 0.220440881763527  C 9.79710144927536 0.0734802939211749  9.96376811594203 0  10.1521739130435 0  C 10.3405797101449 0  10.5072463768116 0.0734802939211749  10.6521739130435 0.220440881763527  L 20.7826086956522 10.4929859719439  Z " fill-rule="nonzero" fill="#fffbfb" stroke="none" transform="matrix(1 0 0 1 214 5 )" />
  </g>
</svg>