<?xml version="1.0" encoding="utf-8"?>
<svg version="1.1" xmlns:xlink="http://www.w3.org/1999/xlink" width="27px" height="27px" xmlns="http://www.w3.org/2000/svg">
  <g transform="matrix(1 0 0 1 -362 -104 )">
    <path d="M 1.88434636363638 12.1068818181818  C 1.88434636363638 6.48549  6.44087454545456 1.92896181818182  12.0622663636364 1.92896181818182  C 17.6838136363637 1.92896181818182  22.2403418181818 6.48564545454545  22.2403418181818 12.1068818181818  C 22.2403418181818 17.7282736363636  17.6838136363637 22.2849572727273  12.0622663636364 22.2849572727273  C 6.44087454545456 22.2849572727273  1.88434636363638 17.7282736363636  1.88434636363638 12.1068818181818  Z M 19.5696327272727 21.4019754545455  L 24.9691909090909 26.80029  L 26.5339963636363 25.2350181818182  L 21.1558909090909 19.8555136363636  C 22.9353790909091 17.7696245454545  24.0101918181819 15.0639381818182  24.0101918181819 12.1070372727273  C 24.0101918181819 5.50830272727272  18.6610009090909 0.159111818181813  12.062110909091 0.159111818181813  C 5.46322090909092 0.159111818181813  0.114185454545463 5.50830272727272  0.114185454545463 12.1070372727273  C 0.114185454545463 18.7059272727273  5.46337636363637 24.0552736363636  12.062110909091 24.0552736363636  C 14.9063072727273 24.0551181818182  17.5180990909091 23.0612972727273  19.5696327272727 21.4019754545455  Z " fill-rule="nonzero" fill="#8a8a8a" stroke="none" transform="matrix(1 0 0 1 362 104 )" />
  </g>
</svg>