<svg t="1561884961849" class="icon" viewBox="0 0 1024 1024" version="1.1" xmlns="http://www.w3.org/2000/svg" p-id="8559" width="128" height="128"><path d="M512.064 567.87257c105.887868 0 191.99976-86.143892 191.99976-191.99976s-86.111892-191.99976-191.99976-191.99976-191.99976 86.111892-191.99976 191.99976 86.111892 191.99976 191.99976 191.99976z m0-351.99956c88.25589 0 159.9998 71.74391 159.9998 159.9998s-71.74391 159.9998-159.9998 159.9998-159.9998-71.74391-159.9998-159.9998 71.74391-159.9998 159.9998-159.9998z" fill="#8a8a8a" p-id="8560"></path><path d="M512 0.00128C300.224265 0.00128 128.00048 170.113067 128.00048 384.0328c0 223.99972 192.03176 453.151434 332.031585 614.207232 0.511999 0.639999 22.975971 25.759968 50.751937 25.759968h2.463996c27.743965 0 50.239937-25.119969 50.751937-25.759968 140.063825-161.055799 332.063585-390.175512 332.063585-614.207232A383.071521 383.071521 0 0 0 512 0.00128z m3.743995 956.254805c-0.671999 0.639999-2.623997 2.047997-4.319994 3.135996-0.32-0.863999-2.687997-2.751997-4.127995-4.255995C390.016152 820.192255 192.0004 592.448539 192.0004 384.0328 192.0004 207.585021 335.584221 64.0012 512 64.0012c176.511779 0 320.0636 143.583821 320.0636 320.0636 0 208.38374-198.015752 436.127455-316.319605 572.191285z" fill="#8a8a8a" p-id="8561"></path></svg>