<?xml version="1.0" encoding="utf-8"?>
<svg version="1.1" xmlns:xlink="http://www.w3.org/1999/xlink" width="34px" height="30px" xmlns="http://www.w3.org/2000/svg">
  <defs>
    <mask fill="white" id="clip23">
      <path d="M 34 0.4276  L 0 16.7952  L 7.939 20.5454  L 11.7062 19.2364  L 10.6216 20.661  L 10.6386 29.5724  L 15.4088 24.0678  L 24.6058 28.413  L 34 0.4276  Z M 29.8146 5.0958  L 23.1744 25.0742  L 14.7696 21.103  L 13.0696 23.0648  L 13.0662 21.4532  L 18.4722 14.3404  L 8.0818 17.9478  L 5.6066 16.7782  L 29.8146 5.0958  Z " fill-rule="evenodd" />
    </mask>
  </defs>
  <g transform="matrix(1 0 0 1 -283 -180 )">
    <path d="M 34 0.4276  L 0 16.7952  L 7.939 20.5454  L 11.7062 19.2364  L 10.6216 20.661  L 10.6386 29.5724  L 15.4088 24.0678  L 24.6058 28.413  L 34 0.4276  Z M 29.8146 5.0958  L 23.1744 25.0742  L 14.7696 21.103  L 13.0696 23.0648  L 13.0662 21.4532  L 18.4722 14.3404  L 8.0818 17.9478  L 5.6066 16.7782  L 29.8146 5.0958  Z " fill-rule="nonzero" fill="#ffffff" stroke="none" transform="matrix(1 0 0 1 283 180 )" />
    <path d="M 34 0.4276  L 0 16.7952  L 7.939 20.5454  L 11.7062 19.2364  L 10.6216 20.661  L 10.6386 29.5724  L 15.4088 24.0678  L 24.6058 28.413  L 34 0.4276  Z " stroke-width="10" stroke="#ffffff" fill="none" transform="matrix(1 0 0 1 283 180 )" mask="url(#clip23)" />
    <path d="M 29.8146 5.0958  L 23.1744 25.0742  L 14.7696 21.103  L 13.0696 23.0648  L 13.0662 21.4532  L 18.4722 14.3404  L 8.0818 17.9478  L 5.6066 16.7782  L 29.8146 5.0958  Z " stroke-width="10" stroke="#ffffff" fill="none" transform="matrix(1 0 0 1 283 180 )" mask="url(#clip23)" />
  </g>
</svg>