<?xml version="1.0" encoding="utf-8"?>
<svg version="1.1" xmlns:xlink="http://www.w3.org/1999/xlink" width="28px" height="40px" xmlns="http://www.w3.org/2000/svg">
  <defs>
    <linearGradient gradientUnits="userSpaceOnUse" x1="14" y1="0" x2="14" y2="40" id="LinearGradient17">
      <stop id="Stop18" stop-color="#00cc99" offset="0" />
      <stop id="Stop19" stop-color="#009999" offset="1" />
    </linearGradient>
    <mask fill="white" id="clip20">
      <path d="M 25.78515625 21.3858695652174  C 27.26171875 19.0851449275362  28 16.5942028985507  28 13.9130434782609  C 28 10.0724637681159  26.6328125 6.7934782608696  23.8984375 4.0760869565217  C 21.1640625 1.3586956521739  17.8645833333333 0  14 0  C 10.1354166666667 0  6.8359375 1.3586956521739  4.1015625 4.0760869565217  C 1.3671875 6.7934782608696  0 10.0724637681159  0 13.9130434782609  C 0 16.5398550724638  0.73828125 19.0307971014493  2.21484375 21.3858695652174  C 2.32421875 21.5489130434783  2.8938802083333 22.3686594202899  3.923828125 23.8451086956522  C 4.9537760416667 25.3215579710145  5.8743489583333 26.6893115942029  6.685546875 27.9483695652174  C 7.4967447916667 29.2074275362319  8.4036458333333 30.8197463768116  9.40625 32.7853260869565  C 10.4088541666667 34.7509057971015  11.1653645833333 36.5760869565217  11.67578125 38.2608695652174  C 11.83984375 38.804347826087  12.1497395833333 39.2300724637681  12.60546875 39.5380434782609  C 13.0611979166667 39.8460144927536  13.5260416666667 40  14 40  C 14.4739583333333 40  14.943359375 39.8460144927536  15.408203125 39.5380434782609  C 15.873046875 39.2300724637681  16.1783854166667 38.804347826087  16.32421875 38.2608695652174  C 16.8346354166667 36.5760869565217  17.5911458333333 34.7509057971015  18.59375 32.7853260869565  C 19.5963541666667 30.8197463768116  20.5032552083333 29.2074275362319  21.314453125 27.9483695652174  C 22.1256510416667 26.6893115942029  23.0462239583333 25.3215579710145  24.076171875 23.8451086956522  C 25.1061197916667 22.3686594202899  25.67578125 21.5489130434783  25.78515625 21.3858695652174  Z " fill-rule="evenodd" />
    </mask>
  </defs>
  <g transform="matrix(1 0 0 1 -464 -598 )">
    <path d="M 25.78515625 21.3858695652174  C 27.26171875 19.0851449275362  28 16.5942028985507  28 13.9130434782609  C 28 10.0724637681159  26.6328125 6.7934782608696  23.8984375 4.0760869565217  C 21.1640625 1.3586956521739  17.8645833333333 0  14 0  C 10.1354166666667 0  6.8359375 1.3586956521739  4.1015625 4.0760869565217  C 1.3671875 6.7934782608696  0 10.0724637681159  0 13.9130434782609  C 0 16.5398550724638  0.73828125 19.0307971014493  2.21484375 21.3858695652174  C 2.32421875 21.5489130434783  2.8938802083333 22.3686594202899  3.923828125 23.8451086956522  C 4.9537760416667 25.3215579710145  5.8743489583333 26.6893115942029  6.685546875 27.9483695652174  C 7.4967447916667 29.2074275362319  8.4036458333333 30.8197463768116  9.40625 32.7853260869565  C 10.4088541666667 34.7509057971015  11.1653645833333 36.5760869565217  11.67578125 38.2608695652174  C 11.83984375 38.804347826087  12.1497395833333 39.2300724637681  12.60546875 39.5380434782609  C 13.0611979166667 39.8460144927536  13.5260416666667 40  14 40  C 14.4739583333333 40  14.943359375 39.8460144927536  15.408203125 39.5380434782609  C 15.873046875 39.2300724637681  16.1783854166667 38.804347826087  16.32421875 38.2608695652174  C 16.8346354166667 36.5760869565217  17.5911458333333 34.7509057971015  18.59375 32.7853260869565  C 19.5963541666667 30.8197463768116  20.5032552083333 29.2074275362319  21.314453125 27.9483695652174  C 22.1256510416667 26.6893115942029  23.0462239583333 25.3215579710145  24.076171875 23.8451086956522  C 25.1061197916667 22.3686594202899  25.67578125 21.5489130434783  25.78515625 21.3858695652174  Z " fill-rule="nonzero" fill="url(#LinearGradient17)" stroke="none" transform="matrix(1 0 0 1 464 598 )" />
    <path d="M 25.78515625 21.3858695652174  C 27.26171875 19.0851449275362  28 16.5942028985507  28 13.9130434782609  C 28 10.0724637681159  26.6328125 6.7934782608696  23.8984375 4.0760869565217  C 21.1640625 1.3586956521739  17.8645833333333 0  14 0  C 10.1354166666667 0  6.8359375 1.3586956521739  4.1015625 4.0760869565217  C 1.3671875 6.7934782608696  0 10.0724637681159  0 13.9130434782609  C 0 16.5398550724638  0.73828125 19.0307971014493  2.21484375 21.3858695652174  C 2.32421875 21.5489130434783  2.8938802083333 22.3686594202899  3.923828125 23.8451086956522  C 4.9537760416667 25.3215579710145  5.8743489583333 26.6893115942029  6.685546875 27.9483695652174  C 7.4967447916667 29.2074275362319  8.4036458333333 30.8197463768116  9.40625 32.7853260869565  C 10.4088541666667 34.7509057971015  11.1653645833333 36.5760869565217  11.67578125 38.2608695652174  C 11.83984375 38.804347826087  12.1497395833333 39.2300724637681  12.60546875 39.5380434782609  C 13.0611979166667 39.8460144927536  13.5260416666667 40  14 40  C 14.4739583333333 40  14.943359375 39.8460144927536  15.408203125 39.5380434782609  C 15.873046875 39.2300724637681  16.1783854166667 38.804347826087  16.32421875 38.2608695652174  C 16.8346354166667 36.5760869565217  17.5911458333333 34.7509057971015  18.59375 32.7853260869565  C 19.5963541666667 30.8197463768116  20.5032552083333 29.2074275362319  21.314453125 27.9483695652174  C 22.1256510416667 26.6893115942029  23.0462239583333 25.3215579710145  24.076171875 23.8451086956522  C 25.1061197916667 22.3686594202899  25.67578125 21.5489130434783  25.78515625 21.3858695652174  Z " stroke-width="2" stroke="#ffffff" fill="none" stroke-opacity="0.6" transform="matrix(1 0 0 1 464 598 )" mask="url(#clip20)" />
  </g>
</svg>