<?xml version="1.0" encoding="utf-8"?>
<svg version="1.1" xmlns:xlink="http://www.w3.org/1999/xlink" width="28px" height="32px" xmlns="http://www.w3.org/2000/svg">
  <g transform="matrix(1 0 0 1 -997 -357 )">
    <path d="M 27.1342105625 12.96419540625  C 26.9796230199243 5.94397025037016  21.3788915007981 0.261439677529634  14.3616455 0.0050861875  C 14.239850144516 0.00169873363551837  14.118013579171 0  13.9961711257274 0  C 6.73602722289428 0  0.850517719477382 5.88551426456954  0.850517719477382 13.1456581674026  C 0.850517719477382 13.1460829657806  0.850517740068254 13.146507764124  0.85051778125 13.1469325625  C 0.85051778125 15.5415505625  1.783238625 18.17601109375  3.62203115625 20.97036659375  L 11.14851734375 30.6173650625  C 11.8387634795437 31.4906221668729  12.8906735312961 31.9999985635559  14.00378525 31.9999985635559  C 15.1168969687039 31.9999985635559  16.1688070204563 31.4906221668729  16.85905315625 30.6173650625  L 24.336048 21.03127896875  L 24.38934634375 20.95894553125  C 26.06443684375 18.343520125  27.1760878125 15.98316534375  27.1342105625 12.96419540625  Z " fill-rule="nonzero" fill="#ffffff" stroke="none" transform="matrix(1 0 0 1 997 357 )" />
  </g>
</svg>