<?xml version="1.0" encoding="utf-8"?>
<svg version="1.1" xmlns:xlink="http://www.w3.org/1999/xlink" width="14px" height="13px" xmlns="http://www.w3.org/2000/svg">
  <g transform="matrix(1 0 0 1 -1004 -364 )">
    <path d="M 13.01126890625 6.1469325625  C 13.0070739308335 2.8245224427288  10.3147743072712 0.132222819166495  6.9923641875 0.128027843749999  C 3.66821490064977 0.128027843750001  0.973459468749997 2.82278327564977  0.973459468749997 6.1469325625  C 0.973459468749997 9.47108184935022  3.66821490064977 12.16583728125  6.9923641875 12.16583728125  C 10.3165134743502 12.16583728125  13.01126890625 9.47108184935022  13.01126890625 6.1469325625  Z M 6.9923641875 2.66731275  C 8.91323538251476 2.66941092218285  10.4698858278171 4.22606136748525  10.471984 6.1469325625  C 10.471984 8.06867352015284  8.91410514515283 9.626552375  6.9923641875 9.626552375  C 5.07062322984716 9.626552375  3.512744375 8.06867352015284  3.512744375 6.1469325625  C 3.512744375 4.22519160484717  5.07062322984716 2.66731275  6.9923641875 2.66731275  Z " fill-rule="nonzero" fill="#ffffff" stroke="none" transform="matrix(1 0 0 1 1004 364 )" />
  </g>
</svg>