<?xml version="1.0" encoding="utf-8"?>
<svg version="1.1" xmlns:xlink="http://www.w3.org/1999/xlink" width="94px" height="94px" xmlns="http://www.w3.org/2000/svg">
  <g transform="matrix(1 0 0 1 -807 -279 )">
    <path d="M 854 280  C 879.76 280  900 300.24  900 326  C 900 351.76  879.76 372  854 372  C 828.24 372  808 351.76  808 326  C 808 300.24  828.24 280  854 280  Z " fill-rule="nonzero" fill="#44da6f" stroke="none" fill-opacity="0.8" />
    <path d="M 854 280  C 879.76 280  900 300.24  900 326  C 900 351.76  879.76 372  854 372  C 828.24 372  808 351.76  808 326  C 808 300.24  828.24 280  854 280  Z " stroke-width="2" stroke="#2dc859" fill="none" />
  </g>
</svg>