<?xml version="1.0" encoding="utf-8"?>
<svg version="1.1" xmlns:xlink="http://www.w3.org/1999/xlink" width="19px" height="13px" xmlns="http://www.w3.org/2000/svg">
  <g transform="matrix(1 0 0 1 -758 -419 )">
    <path d="M 18.4636458333333 9.2934765625  C 18.4636458333333 10.457890625  17.543828125 11.4019140625  16.4092708333333 11.4019140625  C 15.2747135416667 11.4019140625  14.3548958333333 10.457890625  14.3548958333333 9.2934765625  C 14.3548958333333 6.5279296875  12.170390625 4.2864453125  9.47625 4.2864453125  C 6.78161458333333 4.2864453125  4.59760416666666 6.5284375  4.59760416666666 9.2934765625  C 4.59760416666666 10.0465625  4.20622395833333 10.742265625  3.57041666666667 11.1190625  C 2.93483187670293 11.4958557719924  2.1516264566304 11.4958557719924  1.51604166666667 11.1190625  C 0.880603374773665 10.7424166963938  0.489086498442608 10.0465868661788  0.488854166666666 9.2934765625  C 0.488854166666666 4.1991015625  4.51299479166667 0.0695703125000002  9.47625 0.0695703125000002  C 14.44 0.0695703125000002  18.4636458333333 4.1991015625  18.4636458333333 9.2934765625  Z " fill-rule="nonzero" fill="#ffffff" stroke="none" transform="matrix(1 0 0 1 758 419 )" />
  </g>
</svg>