<?xml version="1.0" encoding="utf-8"?>
<svg version="1.1" xmlns:xlink="http://www.w3.org/1999/xlink" width="32px" height="19px" xmlns="http://www.w3.org/2000/svg">
  <g transform="matrix(1 0 0 1 -752 -412 )">
    <path d="M 31.415 15.388515625  C 31.4155 16.5230729166667  30.486 17.442890625  29.3395 17.442890625  C 28.193 17.442890625  27.2635 16.5230729166667  27.2635 15.388515625  C 27.2635 9.219453125  22.21 4.21859375  15.976 4.21859375  C 9.742 4.21859375  4.6885 9.219453125  4.6885 15.388515625  C 4.6835 16.5191145833333  3.7555 17.4334895833333  2.6125 17.4334895833333  C 1.4695 17.4334895833333  0.541999999999999 16.519609375  0.536499999999998 15.388515625  C 0.536499999999998 6.95033854166667  7.449 0.109843749999999  15.9755 0.109843749999999  C 24.5025 0.109843749999999  31.415 6.95033854166667  31.415 15.388515625  Z " fill-rule="nonzero" fill="#ffffff" stroke="none" transform="matrix(1 0 0 1 752 412 )" />
  </g>
</svg>