<?xml version="1.0" encoding="utf-8"?>
<svg version="1.1" xmlns:xlink="http://www.w3.org/1999/xlink" width="42px" height="27px" xmlns="http://www.w3.org/2000/svg">
  <g transform="matrix(1 0 0 1 -747 -427 )">
    <path d="M 41.2326923076923 11.0407169117647  C 40.7410828475026 10.557708582266  40.0745404221319 10.2863610344224  39.3795432692308 10.2863051470588  L 23.1368509615385 10.2863051470588  L 23.1368509615385 3.20277573529412  C 23.1368509615385 2.06470588235294  22.1984134615385 1.14204044117647  21.0408894230769 1.14204044117647  C 19.8833653846154 1.14204044117647  18.9449278846154 2.06470588235294  18.9449278846154 3.20277573529412  L 18.9449278846154 10.2863051470588  L 2.70274038461538 10.2863051470588  C 1.25596153846154 10.2863051470588  0.0827884615384609 11.4397610294118  0 12.8622242647059  L 0 24.3888419117647  C 0.0827884615384609 25.8113051470588  1.25596153846154 26.9647610294118  2.70274038461538 27  L 39.3800480769231 27  C 40.8268269230769 26.9647610294118  42 25.8113051470588  42 24.3888419117647  L 42 12.8617279411765  C 42 12.1787867647059  41.7238701923077 11.5236397058824  41.2326923076923 11.0407169117647  Z M 8.64028846153846 18.6255330882353  C 8.64028846153846 19.7636029411765  7.70185096153846 20.6857720588235  6.54483173076923 20.6857720588235  C 5.69675480769231 20.6857720588235  4.93298076923077 20.1834926470588  4.60838942307692 19.4136948529412  C 4.28430288461539 18.6434007352941  4.46350961538462 17.7574632352941  5.06271634615385 17.1683272058823  C 5.66192307692308 16.5791911764706  6.56350961538462 16.4025  7.34646634615385 16.7216360294118  C 8.12976239127138 17.0404982810142  8.6404575619124 17.7920011512908  8.64028846153846 18.6255330882353  Z M 14.9917788461538 18.6255330882353  C 14.9917788461538 19.7636029411765  14.0538461538462 20.6857720588235  12.8963221153846 20.6857720588235  C 12.0485831599983 20.6858041288927  11.2843029451968 20.1837373044416  10.9598798076923 19.4136948529412  C 10.6352176289769 18.6438077853959  10.8145679806958 17.7574251899932  11.4142067307692 17.1683272058823  C 12.0134134615385 16.5791911764706  12.915 16.4025  13.6979567307692 16.7216360294118  C 14.4812527758868 17.0404982810142  14.9919479465278 17.7920011512908  14.9917788461538 18.6255330882353  Z " fill-rule="nonzero" fill="#ffffff" stroke="none" transform="matrix(1 0 0 1 747 427 )" />
  </g>
</svg>