<?xml version="1.0" encoding="utf-8"?>
<svg version="1.1" xmlns:xlink="http://www.w3.org/1999/xlink" width="33px" height="15px" xmlns="http://www.w3.org/2000/svg">
  <g transform="matrix(1 0 0 1 -921 -555 )">
    <path d="M 32.6693386773547 6.8944099378882  C 32.8897795591182 6.99792960662526  33 7.11697722567288  33 7.25155279503106  C 33 7.38612836438923  32.8897795591182 7.50517598343685  32.6693386773547 7.60869565217391  L 17.2605210420842 14.8447204968944  C 17.0400801603206 14.9482401656315  16.7865731462926 15  16.5 15  C 16.2134268537074 15  15.9599198396794 14.9482401656315  15.7394789579158 14.8447204968944  L 0.330661322645291 7.60869565217391  C 0.110220440881764 7.50517598343685  0 7.38612836438923  0 7.25155279503106  C 0 7.11697722567288  0.110220440881764 6.99792960662526  0.330661322645291 6.8944099378882  L 1.98396793587174 6.11801242236025  C 2.20440881763527 6.01449275362319  2.45791583166333 5.96273291925466  2.74448897795591 5.96273291925466  C 3.0310621242485 5.96273291925466  3.28456913827655 6.01449275362319  3.50501002004008 6.11801242236025  L 16.5 12.2204968944099  L 29.4949899799599 6.11801242236025  C 29.7154308617234 6.01449275362319  29.9689378757515 5.96273291925466  30.2555110220441 5.96273291925466  C 30.5420841683367 5.96273291925466  30.7955911823647 6.01449275362319  31.0160320641283 6.11801242236025  L 32.6693386773547 6.8944099378882  Z M 32.6693386773547 0.93167701863354  C 32.8897795591182 1.0351966873706  33 1.15424430641822  33 1.2888198757764  C 33 1.42339544513457  32.8897795591182 1.54244306418219  32.6693386773547 1.64596273291925  L 17.2605210420842 8.88198757763975  C 17.0400801603206 8.98550724637681  16.7865731462926 9.03726708074534  16.5 9.03726708074534  C 16.2134268537074 9.03726708074534  15.9599198396794 8.98550724637681  15.7394789579158 8.88198757763975  L 0.330661322645291 1.64596273291925  C 0.110220440881764 1.54244306418219  0 1.42339544513457  0 1.2888198757764  C 0 1.15424430641822  0.110220440881764 1.0351966873706  0.330661322645291 0.93167701863354  L 1.98396793587174 0.15527950310559  C 2.20440881763527 0.0517598343685288  2.45791583166333 0  2.74448897795591 0  C 3.0310621242485 0  3.28456913827655 0.0517598343685288  3.50501002004008 0.15527950310559  L 16.5 6.25776397515528  L 29.4949899799599 0.15527950310559  C 29.7154308617234 0.0517598343685288  29.9689378757515 0  30.2555110220441 0  C 30.5420841683367 0  30.7955911823647 0.0517598343685288  31.0160320641283 0.15527950310559  L 32.6693386773547 0.93167701863354  Z " fill-rule="nonzero" fill="#ffffff" stroke="none" transform="matrix(1 0 0 1 921 555 )" />
  </g>
</svg>