<?xml version="1.0" encoding="utf-8"?>
<svg version="1.1" xmlns:xlink="http://www.w3.org/1999/xlink" width="48px" height="48px" xmlns="http://www.w3.org/2000/svg">
  <g transform="matrix(1 0 0 1 -1701 -259 )">
    <path d="M 1725 259  C 1738.44 259  1749 269.56  1749 283  C 1749 296.44  1738.44 307  1725 307  C 1711.56 307  1701 296.44  1701 283  C 1701 269.56  1711.56 259  1725 259  Z " fill-rule="nonzero" fill="#ffffff" stroke="none" />
    <path d="M 1725 259.5  C 1738.16 259.5  1748.5 269.84  1748.5 283  C 1748.5 296.16  1738.16 306.5  1725 306.5  C 1711.84 306.5  1701.5 296.16  1701.5 283  C 1701.5 269.84  1711.84 259.5  1725 259.5  Z " stroke-width="1" stroke="#797979" fill="none" />
  </g>
</svg>