<?xml version="1.0" encoding="utf-8"?>
<svg version="1.1" xmlns:xlink="http://www.w3.org/1999/xlink" width="24px" height="28px" xmlns="http://www.w3.org/2000/svg">
  <g transform="matrix(1 0 0 1 -318 -88 )">
    <path d="M 21.59683734375 20.87569028125  C 22.54947146875 19.2174545625  22.86196359375 17.36613375  23.43450340625 15.1276834375  C 22.95025571875 17.0122616875  19.57647915625 17.21621940625  17.88556159375 17.92780096875  C 20.89181134375 16.66325034375  23.31727090625 13.6736293125  23.43178525 9.8952310625  C 22.18578203125 11.075806625  21.48510509375 12.40034859375  19.592916 12.54130903125  C 21.215144125 10.407299875  21.70156634375 7.81085228125  22.0233001875 5.12659221875  C 22.00040371875 3.510599875  22.14053271875 1.926521875  21.77521240625 0.0403127187500019  C 21.17971215625 1.2258129375  20.856379375 2.4854389375  19.51217075 4.3836399375  C 17.7519561875 6.871553125  15.1988391875 9.26081321875  8.1617863125 10.97168525  C 7.94967412499999 11.023490125  7.65739228125 11.29204403125  7.37109040624999 10.8503595  C 7.15517281249999 10.5277941875  6.46808665624999 9.53889665625  10.6276025 7.6126186875  C 11.36319975 7.27179378125  11.9995683125 6.91926478125  12.6359688125 6.2376149375  C 11.92979159375 6.99422196875  6.92121940625 6.39657915625  3.551823875 10.0792663125  C 1.75668896875 12.04043265625  0.597378999999997 14.49237021875  0.587561656249997 17.58751971875  C 0.565752437499997 19.20568659375  0.414175218749997 20.79935809375  1.3515236875 22.63644853125  C 1.6977849375 19.10696953125  3.1188374375 16.49773059375  6.3791869375 15.15083578125  C 5.9413078125 16.147376125  5.12282275 16.70274359375  5.47343303125 18.2595760625  C 6.307747375 16.541381  7.25763134375 15.29317128125  8.705961375 14.49921359375  C 8.07448553125 15.7206894375  8.45838521875 16.69813871875  8.45838521875 16.69813871875  C 11.67674715625 13.89722175  15.10066575 13.41873015625  15.10066575 13.41873015625  C 15.10066575 13.41873015625  9.81672825 18.24461015625  10.354923375 23.2144885625  C 11.67892171875 22.2580170625  12.342024125 21.14290109375  12.7853395625 19.8499856875  C 13.294114625 20.18531034375  13.90483653125 24.24236765625  10.59651959375 26.19646678125  C 9.55447409375 26.812657  8.33897821875 27.1016450625  7.31001184375 27.7396445  C 11.4597423125 28.46248240625  14.64814059375 27.334223375  17.43732153125 25.3812435  C 19.26680109375 24.30095196875  20.558053625 22.68691028125  21.59683734375 20.87569028125  Z " fill-rule="nonzero" fill="#bfbfbf" stroke="none" transform="matrix(1 0 0 1 318 88 )" />
  </g>
</svg>