<?xml version="1.0" encoding="utf-8"?>
<svg version="1.1" xmlns:xlink="http://www.w3.org/1999/xlink" width="27px" height="29px" xmlns="http://www.w3.org/2000/svg">
  <g transform="matrix(1 0 0 1 -397 -87 )">
    <path d="M 17.7558635 4.2202366875  C 18.64403371875 4.28579225  19.41832453125 3.6057413125  19.48503403125 2.70155434375  C 19.5517115625 1.797367375  18.8858956875 1.0107646875  17.99769346875 0.94520915625  C 17.10949125 0.879653625  16.3352644375 1.5596725625  16.26877878125 2.46411534375  C 16.20184540625 3.3683023125  16.86769328125 4.154681125  17.7558635 4.2202366875  Z M 7.314162875 12.6381773125  L 0.7579231875 12.6381773125  L 0.7579231875 19.159292  L 7.314162875 19.159292  L 7.314162875 22.42031303125  L 13.86992284375 22.42031303125  L 13.86992284375 25.680886375  L 20.42616253125 25.680886375  L 20.42616253125 28.94145971875  L 26.98240221875 28.94145971875  L 26.98240221875 22.42031303125  L 20.42616253125 22.42031303125  L 20.42616253125 19.159292  L 18.092609 19.159292  L 18.1971184375 17.74377171875  C 18.1971184375 17.74377171875  18.26015028125 15.0181636875  16.1074415625 12.12889059375  L 16.1661241875 11.3299123125  L 16.72356109375 9.12273678125  C 16.72356109375 9.12273678125  17.23561890625 8.59877203125  17.51387365625 9.10118340625  C 17.51387365625 9.10118340625  17.3855074375 9.77410315625  18.66584384375 10.591437  L 20.19076046875 11.30608846875  C 20.19076046875 11.30608846875  21.03012978125 11.68928465625  21.222679125 11.22172965625  C 21.222679125 11.22172965625  21.5894215 10.5258814375  21.13051384375 10.33151721875  L 19.77729584375 9.42848146875  C 19.77729584375 9.42848146875  18.212500625 8.18896984375  18.3970230625 6.75672490625  C 18.3970230625 6.75672490625  18.22970565625 5.1484393125  16.85311053125 4.56489896875  C 16.85311053125 4.56489896875  16.18815809375 3.95363340625  15.30158684375 4.2096518125  L 11.4559405625 5.68250925  C 11.4559405625 5.68250925  10.8929711875 5.96212765625  10.863198125 6.36137696875  C 10.8338728125 6.76062628125  10.58539109375 10.1252570625  10.58539109375 10.1252570625  C 10.58539109375 10.1252570625  10.43457515625 10.83667871875  10.915005125 10.87243046875  C 10.915005125 10.87243046875  11.75939525 10.65331503125  11.777271875 10.41405325  L 12.026681 7.57153246875  C 12.026681 7.57153246875  12.141264 7.3492191875  12.77890584375 6.99464359375  L 13.442707 6.5518398125  C 13.442707 6.5518398125  14.1839628125 6.12460946875  13.97996478125 6.752152  C 13.97996478125 6.752152  12.59601434375 8.5369259375  12.51075665625 9.6952765625  L 12.29806015625 12.57031928125  L 10.5744860625 15.898718625  L 7.314162875 15.89871865625  L 7.314162875 12.6381773125  Z M 13.869890875 15.89871865625  L 13.1046823125 15.89871865625  L 13.5118789375 15.22992409375  C 13.5118789375 15.22992409375  14.11837259375 13.95971328125  14.51763828125 14.43049809375  L 15.99097178125 16.37682646875  C 15.99097178125 16.37682646875  16.2785965625 17.1676183125  16.2053951875 19.15929196875  L 13.86989090625 19.15929196875  L 13.869890875 15.89871865625  Z " fill-rule="nonzero" fill="#bfbfbf" stroke="none" transform="matrix(1 0 0 1 397 87 )" />
  </g>
</svg>