<?xml version="1.0" encoding="utf-8"?>
<svg version="1.1" xmlns:xlink="http://www.w3.org/1999/xlink" width="16px" height="20px" xmlns="http://www.w3.org/2000/svg">
  <g transform="matrix(1 0 0 1 -764 -532 )">
    <path d="M 0.727272727272727 0  L 15.2727272727273 0  C 15.469696969697 0  15.6401515151515 0.0706845238095255  15.7840909090909 0.212053571428572  C 15.9280303030303 0.353422619047616  16 0.520833333333333  16 0.714285714285714  L 16 19.2857142857143  C 16 19.4791666666667  15.9280303030303 19.6465773809524  15.7840909090909 19.7879464285714  C 15.6401515151515 19.9293154761905  15.469696969697 20  15.2727272727273 20  L 0.727272727272727 20  C 0.53030303030303 20  0.359848484848485 19.9293154761905  0.215909090909091 19.7879464285714  C 0.071969696969697 19.6465773809524  0 19.4791666666667  0 19.2857142857143  L 0 0.714285714285714  C 0 0.520833333333333  0.071969696969697 0.353422619047616  0.215909090909091 0.212053571428572  C 0.359848484848485 0.0706845238095255  0.53030303030303 0  0.727272727272727 0  Z M 5.92045454545455 2.95758928571429  C 5.85227272727273 3.02455357142857  5.81818181818182 3.11011904761905  5.81818181818182 3.21428571428571  L 5.81818181818182 3.92857142857143  C 5.81818181818182 4.03273809523809  5.85227272727273 4.11830357142857  5.92045454545455 4.18526785714286  C 5.98863636363636 4.25223214285714  6.07575757575758 4.28571428571429  6.18181818181818 4.28571428571429  L 6.90909090909091 4.28571428571429  C 7.01515151515152 4.28571428571429  7.10227272727273 4.25223214285714  7.17045454545455 4.18526785714286  C 7.23863636363636 4.11830357142857  7.27272727272727 4.03273809523809  7.27272727272727 3.92857142857143  L 7.27272727272727 3.21428571428571  C 7.27272727272727 3.11011904761905  7.23863636363636 3.02455357142857  7.17045454545455 2.95758928571429  C 7.10227272727273 2.890625  7.01515151515152 2.85714285714286  6.90909090909091 2.85714285714286  L 6.18181818181818 2.85714285714286  C 6.07575757575758 2.85714285714286  5.98863636363636 2.890625  5.92045454545455 2.95758928571429  Z M 5.92045454545455 5.81473214285714  C 5.85227272727273 5.88169642857143  5.81818181818182 5.9672619047619  5.81818181818182 6.07142857142857  L 5.81818181818182 6.78571428571429  C 5.81818181818182 6.88988095238095  5.85227272727273 6.97544642857143  5.92045454545455 7.04241071428571  C 5.98863636363636 7.109375  6.07575757575758 7.14285714285714  6.18181818181818 7.14285714285714  L 6.90909090909091 7.14285714285714  C 7.01515151515152 7.14285714285714  7.10227272727273 7.109375  7.17045454545455 7.04241071428571  C 7.23863636363636 6.97544642857143  7.27272727272727 6.88988095238095  7.27272727272727 6.78571428571429  L 7.27272727272727 6.07142857142857  C 7.27272727272727 5.9672619047619  7.23863636363636 5.88169642857143  7.17045454545455 5.81473214285714  C 7.10227272727273 5.74776785714286  7.01515151515152 5.71428571428571  6.90909090909091 5.71428571428571  L 6.18181818181818 5.71428571428571  C 6.07575757575758 5.71428571428571  5.98863636363636 5.74776785714286  5.92045454545455 5.81473214285714  Z M 5.92045454545455 8.671875  C 5.85227272727273 8.73883928571429  5.81818181818182 8.82440476190476  5.81818181818182 8.92857142857143  L 5.81818181818182 9.64285714285714  C 5.81818181818182 9.74702380952381  5.85227272727273 9.83258928571429  5.92045454545455 9.89955357142857  C 5.98863636363636 9.96651785714286  6.07575757575758 10  6.18181818181818 10  L 6.90909090909091 10  C 7.01515151515152 10  7.10227272727273 9.96651785714286  7.17045454545455 9.89955357142857  C 7.23863636363636 9.83258928571429  7.27272727272727 9.74702380952381  7.27272727272727 9.64285714285714  L 7.27272727272727 8.92857142857143  C 7.27272727272727 8.82440476190476  7.23863636363636 8.73883928571429  7.17045454545455 8.671875  C 7.10227272727273 8.60491071428571  7.01515151515152 8.57142857142857  6.90909090909091 8.57142857142857  L 6.18181818181818 8.57142857142857  C 6.07575757575758 8.57142857142857  5.98863636363636 8.60491071428571  5.92045454545455 8.671875  Z M 5.92045454545455 11.5290178571429  C 5.85227272727273 11.5959821428571  5.81818181818182 11.6815476190476  5.81818181818182 11.7857142857143  L 5.81818181818182 12.5  C 5.81818181818182 12.6041666666667  5.85227272727273 12.6897321428571  5.92045454545455 12.7566964285714  C 5.98863636363636 12.8236607142857  6.07575757575758 12.8571428571429  6.18181818181818 12.8571428571429  L 6.90909090909091 12.8571428571429  C 7.01515151515152 12.8571428571429  7.10227272727273 12.8236607142857  7.17045454545455 12.7566964285714  C 7.23863636363636 12.6897321428571  7.27272727272727 12.6041666666667  7.27272727272727 12.5  L 7.27272727272727 11.7857142857143  C 7.27272727272727 11.6815476190476  7.23863636363636 11.5959821428571  7.17045454545455 11.5290178571429  C 7.10227272727273 11.4620535714286  7.01515151515152 11.4285714285714  6.90909090909091 11.4285714285714  L 6.18181818181818 11.4285714285714  C 6.07575757575758 11.4285714285714  5.98863636363636 11.4620535714286  5.92045454545455 11.5290178571429  Z M 4.26136363636364 15.6138392857143  C 4.32954545454545 15.546875  4.36363636363636 15.4613095238095  4.36363636363636 15.3571428571429  L 4.36363636363636 14.6428571428571  C 4.36363636363636 14.5386904761905  4.32954545454545 14.453125  4.26136363636364 14.3861607142857  C 4.19318181818182 14.3191964285714  4.10606060606061 14.2857142857143  4 14.2857142857143  L 3.27272727272727 14.2857142857143  C 3.16666666666667 14.2857142857143  3.07954545454545 14.3191964285714  3.01136363636364 14.3861607142857  C 2.94318181818182 14.453125  2.90909090909091 14.5386904761905  2.90909090909091 14.6428571428571  L 2.90909090909091 15.3571428571429  C 2.90909090909091 15.4613095238095  2.94318181818182 15.546875  3.01136363636364 15.6138392857143  C 3.07954545454545 15.6808035714286  3.16666666666667 15.7142857142857  3.27272727272727 15.7142857142857  L 4 15.7142857142857  C 4.10606060606061 15.7142857142857  4.19318181818182 15.6808035714286  4.26136363636364 15.6138392857143  Z M 4.26136363636364 12.7566964285714  C 4.32954545454545 12.6897321428571  4.36363636363636 12.6041666666667  4.36363636363636 12.5  L 4.36363636363636 11.7857142857143  C 4.36363636363636 11.6815476190476  4.32954545454545 11.5959821428571  4.26136363636364 11.5290178571429  C 4.19318181818182 11.4620535714286  4.10606060606061 11.4285714285714  4 11.4285714285714  L 3.27272727272727 11.4285714285714  C 3.16666666666667 11.4285714285714  3.07954545454545 11.4620535714286  3.01136363636364 11.5290178571429  C 2.94318181818182 11.5959821428571  2.90909090909091 11.6815476190476  2.90909090909091 11.7857142857143  L 2.90909090909091 12.5  C 2.90909090909091 12.6041666666667  2.94318181818182 12.6897321428571  3.01136363636364 12.7566964285714  C 3.07954545454545 12.8236607142857  3.16666666666667 12.8571428571429  3.27272727272727 12.8571428571429  L 4 12.8571428571429  C 4.10606060606061 12.8571428571429  4.19318181818182 12.8236607142857  4.26136363636364 12.7566964285714  Z M 4.26136363636364 9.89955357142857  C 4.32954545454545 9.83258928571429  4.36363636363636 9.74702380952381  4.36363636363636 9.64285714285714  L 4.36363636363636 8.92857142857143  C 4.36363636363636 8.82440476190476  4.32954545454545 8.73883928571429  4.26136363636364 8.671875  C 4.19318181818182 8.60491071428571  4.10606060606061 8.57142857142857  4 8.57142857142857  L 3.27272727272727 8.57142857142857  C 3.16666666666667 8.57142857142857  3.07954545454545 8.60491071428571  3.01136363636364 8.671875  C 2.94318181818182 8.73883928571429  2.90909090909091 8.82440476190476  2.90909090909091 8.92857142857143  L 2.90909090909091 9.64285714285714  C 2.90909090909091 9.74702380952381  2.94318181818182 9.83258928571429  3.01136363636364 9.89955357142857  C 3.07954545454545 9.96651785714286  3.16666666666667 10  3.27272727272727 10  L 4 10  C 4.10606060606061 10  4.19318181818182 9.96651785714286  4.26136363636364 9.89955357142857  Z M 4.26136363636364 7.04241071428571  C 4.32954545454545 6.97544642857143  4.36363636363636 6.88988095238095  4.36363636363636 6.78571428571429  L 4.36363636363636 6.07142857142857  C 4.36363636363636 5.9672619047619  4.32954545454545 5.88169642857143  4.26136363636364 5.81473214285714  C 4.19318181818182 5.74776785714286  4.10606060606061 5.71428571428571  4 5.71428571428571  L 3.27272727272727 5.71428571428571  C 3.16666666666667 5.71428571428571  3.07954545454545 5.74776785714286  3.01136363636364 5.81473214285714  C 2.94318181818182 5.88169642857143  2.90909090909091 5.9672619047619  2.90909090909091 6.07142857142857  L 2.90909090909091 6.78571428571429  C 2.90909090909091 6.88988095238095  2.94318181818182 6.97544642857143  3.01136363636364 7.04241071428571  C 3.07954545454545 7.109375  3.16666666666667 7.14285714285714  3.27272727272727 7.14285714285714  L 4 7.14285714285714  C 4.10606060606061 7.14285714285714  4.19318181818182 7.109375  4.26136363636364 7.04241071428571  Z M 4.26136363636364 4.18526785714286  C 4.32954545454545 4.11830357142857  4.36363636363636 4.03273809523809  4.36363636363636 3.92857142857143  L 4.36363636363636 3.21428571428571  C 4.36363636363636 3.11011904761905  4.32954545454545 3.02455357142857  4.26136363636364 2.95758928571429  C 4.19318181818182 2.890625  4.10606060606061 2.85714285714286  4 2.85714285714286  L 3.27272727272727 2.85714285714286  C 3.16666666666667 2.85714285714286  3.07954545454545 2.890625  3.01136363636364 2.95758928571429  C 2.94318181818182 3.02455357142857  2.90909090909091 3.11011904761905  2.90909090909091 3.21428571428571  L 2.90909090909091 3.92857142857143  C 2.90909090909091 4.03273809523809  2.94318181818182 4.11830357142857  3.01136363636364 4.18526785714286  C 3.07954545454545 4.25223214285714  3.16666666666667 4.28571428571429  3.27272727272727 4.28571428571429  L 4 4.28571428571429  C 4.10606060606061 4.28571428571429  4.19318181818182 4.25223214285714  4.26136363636364 4.18526785714286  Z M 10.0795454545455 18.4709821428571  C 10.1477272727273 18.4040178571429  10.1818181818182 18.3184523809524  10.1818181818182 18.2142857142857  L 10.1818181818182 16.0714285714286  C 10.1818181818182 15.9672619047619  10.1477272727273 15.8816964285714  10.0795454545455 15.8147321428571  C 10.0113636363636 15.7477678571429  9.92424242424242 15.7142857142857  9.81818181818182 15.7142857142857  L 6.18181818181818 15.7142857142857  C 6.07575757575758 15.7142857142857  5.98863636363636 15.7477678571429  5.92045454545455 15.8147321428571  C 5.85227272727273 15.8816964285714  5.81818181818182 15.9672619047619  5.81818181818182 16.0714285714286  L 5.81818181818182 18.2142857142857  C 5.81818181818182 18.3184523809524  5.85227272727273 18.4040178571429  5.92045454545455 18.4709821428571  C 5.98863636363636 18.5379464285714  6.07575757575758 18.5714285714286  6.18181818181818 18.5714285714286  L 9.81818181818182 18.5714285714286  C 9.92424242424242 18.5714285714286  10.0113636363636 18.5379464285714  10.0795454545455 18.4709821428571  Z M 10.0795454545455 12.7566964285714  C 10.1477272727273 12.6897321428571  10.1818181818182 12.6041666666667  10.1818181818182 12.5  L 10.1818181818182 11.7857142857143  C 10.1818181818182 11.6815476190476  10.1477272727273 11.5959821428571  10.0795454545455 11.5290178571429  C 10.0113636363636 11.4620535714286  9.92424242424242 11.4285714285714  9.81818181818182 11.4285714285714  L 9.09090909090909 11.4285714285714  C 8.98484848484849 11.4285714285714  8.89772727272727 11.4620535714286  8.82954545454546 11.5290178571429  C 8.76136363636364 11.5959821428571  8.72727272727273 11.6815476190476  8.72727272727273 11.7857142857143  L 8.72727272727273 12.5  C 8.72727272727273 12.6041666666667  8.76136363636364 12.6897321428571  8.82954545454546 12.7566964285714  C 8.89772727272727 12.8236607142857  8.98484848484849 12.8571428571429  9.09090909090909 12.8571428571429  L 9.81818181818182 12.8571428571429  C 9.92424242424242 12.8571428571429  10.0113636363636 12.8236607142857  10.0795454545455 12.7566964285714  Z M 10.0795454545455 9.89955357142857  C 10.1477272727273 9.83258928571429  10.1818181818182 9.74702380952381  10.1818181818182 9.64285714285714  L 10.1818181818182 8.92857142857143  C 10.1818181818182 8.82440476190476  10.1477272727273 8.73883928571429  10.0795454545455 8.671875  C 10.0113636363636 8.60491071428571  9.92424242424242 8.57142857142857  9.81818181818182 8.57142857142857  L 9.09090909090909 8.57142857142857  C 8.98484848484849 8.57142857142857  8.89772727272727 8.60491071428571  8.82954545454546 8.671875  C 8.76136363636364 8.73883928571429  8.72727272727273 8.82440476190476  8.72727272727273 8.92857142857143  L 8.72727272727273 9.64285714285714  C 8.72727272727273 9.74702380952381  8.76136363636364 9.83258928571429  8.82954545454546 9.89955357142857  C 8.89772727272727 9.96651785714286  8.98484848484849 10  9.09090909090909 10  L 9.81818181818182 10  C 9.92424242424242 10  10.0113636363636 9.96651785714286  10.0795454545455 9.89955357142857  Z M 10.0795454545455 7.04241071428571  C 10.1477272727273 6.97544642857143  10.1818181818182 6.88988095238095  10.1818181818182 6.78571428571429  L 10.1818181818182 6.07142857142857  C 10.1818181818182 5.9672619047619  10.1477272727273 5.88169642857143  10.0795454545455 5.81473214285714  C 10.0113636363636 5.74776785714286  9.92424242424242 5.71428571428571  9.81818181818182 5.71428571428571  L 9.09090909090909 5.71428571428571  C 8.98484848484849 5.71428571428571  8.89772727272727 5.74776785714286  8.82954545454546 5.81473214285714  C 8.76136363636364 5.88169642857143  8.72727272727273 5.9672619047619  8.72727272727273 6.07142857142857  L 8.72727272727273 6.78571428571429  C 8.72727272727273 6.88988095238095  8.76136363636364 6.97544642857143  8.82954545454546 7.04241071428571  C 8.89772727272727 7.109375  8.98484848484849 7.14285714285714  9.09090909090909 7.14285714285714  L 9.81818181818182 7.14285714285714  C 9.92424242424242 7.14285714285714  10.0113636363636 7.109375  10.0795454545455 7.04241071428571  Z M 10.0795454545455 4.18526785714286  C 10.1477272727273 4.11830357142857  10.1818181818182 4.03273809523809  10.1818181818182 3.92857142857143  L 10.1818181818182 3.21428571428571  C 10.1818181818182 3.11011904761905  10.1477272727273 3.02455357142857  10.0795454545455 2.95758928571429  C 10.0113636363636 2.890625  9.92424242424242 2.85714285714286  9.81818181818182 2.85714285714286  L 9.09090909090909 2.85714285714286  C 8.98484848484849 2.85714285714286  8.89772727272727 2.890625  8.82954545454546 2.95758928571429  C 8.76136363636364 3.02455357142857  8.72727272727273 3.11011904761905  8.72727272727273 3.21428571428571  L 8.72727272727273 3.92857142857143  C 8.72727272727273 4.03273809523809  8.76136363636364 4.11830357142857  8.82954545454546 4.18526785714286  C 8.89772727272727 4.25223214285714  8.98484848484849 4.28571428571429  9.09090909090909 4.28571428571429  L 9.81818181818182 4.28571428571429  C 9.92424242424242 4.28571428571429  10.0113636363636 4.25223214285714  10.0795454545455 4.18526785714286  Z M 12.9886363636364 15.6138392857143  C 13.0568181818182 15.546875  13.0909090909091 15.4613095238095  13.0909090909091 15.3571428571429  L 13.0909090909091 14.6428571428571  C 13.0909090909091 14.5386904761905  13.0568181818182 14.453125  12.9886363636364 14.3861607142857  C 12.9204545454545 14.3191964285714  12.8333333333333 14.2857142857143  12.7272727272727 14.2857142857143  L 12 14.2857142857143  C 11.8939393939394 14.2857142857143  11.8068181818182 14.3191964285714  11.7386363636364 14.3861607142857  C 11.6704545454545 14.453125  11.6363636363636 14.5386904761905  11.6363636363636 14.6428571428571  L 11.6363636363636 15.3571428571429  C 11.6363636363636 15.4613095238095  11.6704545454545 15.546875  11.7386363636364 15.6138392857143  C 11.8068181818182 15.6808035714286  11.8939393939394 15.7142857142857  12 15.7142857142857  L 12.7272727272727 15.7142857142857  C 12.8333333333333 15.7142857142857  12.9204545454545 15.6808035714286  12.9886363636364 15.6138392857143  Z M 12.9886363636364 12.7566964285714  C 13.0568181818182 12.6897321428571  13.0909090909091 12.6041666666667  13.0909090909091 12.5  L 13.0909090909091 11.7857142857143  C 13.0909090909091 11.6815476190476  13.0568181818182 11.5959821428571  12.9886363636364 11.5290178571429  C 12.9204545454545 11.4620535714286  12.8333333333333 11.4285714285714  12.7272727272727 11.4285714285714  L 12 11.4285714285714  C 11.8939393939394 11.4285714285714  11.8068181818182 11.4620535714286  11.7386363636364 11.5290178571429  C 11.6704545454545 11.5959821428571  11.6363636363636 11.6815476190476  11.6363636363636 11.7857142857143  L 11.6363636363636 12.5  C 11.6363636363636 12.6041666666667  11.6704545454545 12.6897321428571  11.7386363636364 12.7566964285714  C 11.8068181818182 12.8236607142857  11.8939393939394 12.8571428571429  12 12.8571428571429  L 12.7272727272727 12.8571428571429  C 12.8333333333333 12.8571428571429  12.9204545454545 12.8236607142857  12.9886363636364 12.7566964285714  Z M 12.9886363636364 9.89955357142857  C 13.0568181818182 9.83258928571429  13.0909090909091 9.74702380952381  13.0909090909091 9.64285714285714  L 13.0909090909091 8.92857142857143  C 13.0909090909091 8.82440476190476  13.0568181818182 8.73883928571429  12.9886363636364 8.671875  C 12.9204545454545 8.60491071428571  12.8333333333333 8.57142857142857  12.7272727272727 8.57142857142857  L 12 8.57142857142857  C 11.8939393939394 8.57142857142857  11.8068181818182 8.60491071428571  11.7386363636364 8.671875  C 11.6704545454545 8.73883928571429  11.6363636363636 8.82440476190476  11.6363636363636 8.92857142857143  L 11.6363636363636 9.64285714285714  C 11.6363636363636 9.74702380952381  11.6704545454545 9.83258928571429  11.7386363636364 9.89955357142857  C 11.8068181818182 9.96651785714286  11.8939393939394 10  12 10  L 12.7272727272727 10  C 12.8333333333333 10  12.9204545454545 9.96651785714286  12.9886363636364 9.89955357142857  Z M 12.9886363636364 7.04241071428571  C 13.0568181818182 6.97544642857143  13.0909090909091 6.88988095238095  13.0909090909091 6.78571428571429  L 13.0909090909091 6.07142857142857  C 13.0909090909091 5.9672619047619  13.0568181818182 5.88169642857143  12.9886363636364 5.81473214285714  C 12.9204545454545 5.74776785714286  12.8333333333333 5.71428571428571  12.7272727272727 5.71428571428571  L 12 5.71428571428571  C 11.8939393939394 5.71428571428571  11.8068181818182 5.74776785714286  11.7386363636364 5.81473214285714  C 11.6704545454545 5.88169642857143  11.6363636363636 5.9672619047619  11.6363636363636 6.07142857142857  L 11.6363636363636 6.78571428571429  C 11.6363636363636 6.88988095238095  11.6704545454545 6.97544642857143  11.7386363636364 7.04241071428571  C 11.8068181818182 7.109375  11.8939393939394 7.14285714285714  12 7.14285714285714  L 12.7272727272727 7.14285714285714  C 12.8333333333333 7.14285714285714  12.9204545454545 7.109375  12.9886363636364 7.04241071428571  Z M 12.9886363636364 4.18526785714286  C 13.0568181818182 4.11830357142857  13.0909090909091 4.03273809523809  13.0909090909091 3.92857142857143  L 13.0909090909091 3.21428571428571  C 13.0909090909091 3.11011904761905  13.0568181818182 3.02455357142857  12.9886363636364 2.95758928571429  C 12.9204545454545 2.890625  12.8333333333333 2.85714285714286  12.7272727272727 2.85714285714286  L 12 2.85714285714286  C 11.8939393939394 2.85714285714286  11.8068181818182 2.890625  11.7386363636364 2.95758928571429  C 11.6704545454545 3.02455357142857  11.6363636363636 3.11011904761905  11.6363636363636 3.21428571428571  L 11.6363636363636 3.92857142857143  C 11.6363636363636 4.03273809523809  11.6704545454545 4.11830357142857  11.7386363636364 4.18526785714286  C 11.8068181818182 4.25223214285714  11.8939393939394 4.28571428571429  12 4.28571428571429  L 12.7272727272727 4.28571428571429  C 12.8333333333333 4.28571428571429  12.9204545454545 4.25223214285714  12.9886363636364 4.18526785714286  Z " fill-rule="nonzero" fill="#ffffff" stroke="none" transform="matrix(1 0 0 1 764 532 )" />
  </g>
</svg>