<?xml version="1.0" encoding="utf-8"?>
<svg version="1.1" xmlns:xlink="http://www.w3.org/1999/xlink" width="28px" height="31px" xmlns="http://www.w3.org/2000/svg">
  <g transform="matrix(1 0 0 1 -354 -86 )">
    <path d="M 14.1471609756098 0.777865365853659  C 10.9692643902439 0.777865365853659  8.39577756097561 3.46224390243902  8.39577756097561 6.77201170731707  C 8.39577756097561 10.0827785365854  10.9702634146341 12.768156097561  14.1471609756098 12.768156097561  C 17.3220604878049 12.768156097561  19.8975453658537 10.0827785365854  19.8975453658537 6.77201170731707  C 19.8975453658537 3.46224390243902  17.3220604878049 0.777865365853659  14.1471609756098 0.777865365853659  Z M 27.8118165853659 28.3629268292683  C 27.8118165853659 26.4328117073171  26.3672273170732 26.0491863414634  26.3672273170732 26.0491863414634  C 25.9326517073171 25.0831297560976  25.0405229268293 22.2389073170732  24.01952 22.2389073170732  C 23.0005151219512 22.2389073170732  22.917596097561 22.6235317073171  22.917596097561 22.6235317073171  L 24.01952 25.5766478048781  L 18.3770302439024 25.0841287804878  L 15.99136 19.4416390243902  C 13.6596370731707 13.6902556097561  11.3249170731707 13.0418887804878  9.04714146341463 13.0418887804878  C 7.94421853658537 13.0418887804878  5.62848 13.17376  3.85421268292683 15.4165697560976  C 2.08394146341463 17.6583804878049  0.998001951219512 30.0762536585366  0.998001951219512 30  L 11.8014517073171 30  L 7.91924292682927 22.5276253658537  L 9.55864195121951 21.4916370731707  C 9.55864195121951 21.4916370731707  9.84935804878049 22.1170263414634  11.7524995121951 26.1690692682927  C 13.6586380487805 30.2241092682927  14.959367804878 30.7765697560976  14.959367804878 30.7765697560976  L 25.1124526829268 30.7765697560976  C 26.6059941463415 30.7765697560976  27.8118165853659 30.2940409756098  27.8118165853659 28.3629268292683  Z " fill-rule="nonzero" fill="#bfbfbf" stroke="none" transform="matrix(1 0 0 1 354 86 )" />
  </g>
</svg>