<?xml version="1.0" encoding="utf-8"?>
<svg version="1.1" xmlns:xlink="http://www.w3.org/1999/xlink" width="105px" height="105px" xmlns="http://www.w3.org/2000/svg">
  <g transform="matrix(1 0 0 1 -728 -324 )">
    <path d="M 780.5 324  C 809.9 324  833 347.1  833 376.5  C 833 405.9  809.9 429  780.5 429  C 751.1 429  728 405.9  728 376.5  C 728 347.1  751.1 324  780.5 324  Z " fill-rule="nonzero" fill="#ffffff" stroke="none" />
    <path d="M 780.5 324.5  C 809.62 324.5  832.5 347.38  832.5 376.5  C 832.5 405.62  809.62 428.5  780.5 428.5  C 751.38 428.5  728.5 405.62  728.5 376.5  C 728.5 347.38  751.38 324.5  780.5 324.5  Z " stroke-width="1" stroke="#797979" fill="none" />
  </g>
</svg>